{
.appVersion = "1236";
DisplayStrings = (
"oh/oe æ/Placeholder n"
);
classes = (
{
automatic = 1;

glyphs = (
{
glyphname = A;
lastChange = "2019-05-08 20:29:10 +0000";
layers = (
{
anchors = (
{
name = bottom;
position = "{338, 0}";
},
{
name = ogonek;
position = "{661, 0}";
},
{
name = top;
position = "{338, 710}";
}
);
background = {
anchors = (
{
name = bottom;
position = "{338, 0}";
},
{
name = ogonek;
position = "{661, 0}";
},
{
name = top;
position = "{338, 710}";
}
);
paths = (
{
closed = 1;
nodes = (
"94 0 LINE",
"355 644 LINE",
"327 644 LINE",
"577 0 LINE",
"661 0 LINE",
"377 710 LINE",
"306 710 LINE",
"10 0 LINE"
);
},
{
closed = 1;
nodes = (
"539 188 LINE",
"511 257 LINE",
"166 257 LINE",
"140 188 LINE"
);
}
);
};
layerId = "A3B50665-EA37-4AC6-885C-1233CA61B6BD";
paths = (
{
closed = 1;
nodes = (
"94 0 LINE",
"355 644 LINE",
"327 644 LINE",
"577 0 LINE",
"661 0 LINE",
"377 710 LINE",
"306 710 LINE",
"10 0 LINE"
);
},
{
closed = 1;
nodes = (
"539 187 LINE",
"511 257 LINE",
"166 257 LINE",
"140 187 LINE"
);
}
);
width = 675;
},
{
anchors = (
{
name = bottom;
position = "{348, 0}";
},
{
name = ogonek;
position = "{712, 0}";
},
{
name = top;
position = "{348, 710}";
}
);
background = {
anchors = (
{
name = bottom;
position = "{348, 0}";
},
{
name = ogonek;
position = "{712, 0}";
},
{
name = top;
position = "{348, 710}";
}
);
paths = (
{
closed = 1;
nodes = (
"138 0 LINE",
"378 589 LINE",
"322 591 LINE",
"555 0 LINE",
"712 0 LINE",
"417 710 LINE",
"286 710 LINE",
"-21 0 LINE"
);
},
{
closed = 1;
nodes = (
"564 149 LINE",
"503 279 LINE",
"202 279 LINE",
"139 149 LINE"
);
}
);
};
layerId = "014D4A40-7C7F-4023-B30E-1F55CE5EA091";
paths = (
{
closed = 1;
nodes = (
"137 0 LINE",
"378 589 LINE",
"321 591 LINE",
"554 0 LINE",
"712 0 LINE",
"417 710 LINE",
"286 710 LINE",
"-21 0 LINE"
);
},
{
closed = 1;
nodes = (
"564 149 LINE",
"503 279 LINE",
"202 279 LINE",
"139 149 LINE"
);
}
);
width = 695;
},
{
anchors = (
{
name = bottom;
position = "{331, 0}";
},
{
name = ogonek;
position = "{625, 0}";
},
{
name = top;
position = "{331, 710}";
}
);
background = {
anchors = (
{
name = bottom;
position = "{331, 0}";
},
{
name = ogonek;
position = "{625, 0}";
},
{
name = top;
position = "{331, 710}";
}
);
paths = (
{
closed = 1;
nodes = (
"63 0 LINE",
"339 683 LINE",
"331 682 LINE",
"593 0 LINE",
"625 0 LINE",
"349 710 LINE",
"320 710 LINE",
"32 0 LINE"
);
},
{
closed = 1;
nodes = (
"521 214 LINE",
"517 241 LINE",
"140 241 LINE",
"141 214 LINE"
);
}
);
};
layerId = "7F092816-09A2-4631-A7F8-AD4571964C60";
paths = (
{
closed = 1;
nodes = (
"64 0 LINE",
"339 683 LINE",
"331 682 LINE",
"593 0 LINE",
"625 0 LINE",
"349 710 LINE",
"320 710 LINE",
"32 0 LINE"
);
},
{
closed = 1;
nodes = (
"521 214 LINE",
"517 241 LINE",
"140 241 LINE",
"141 214 LINE"
);
}
);
width = 660.75758;
},
{
anchors = (
{
name = bottom;
position = "{354, 0}";
},
{
name = ogonek;
position = "{742, 0}";
},
{
name = top;
position = "{354, 710}";
}
);
background = {
anchors = (
{
name = bottom;
position = "{354, 0}";
},
{
name = ogonek;
position = "{742, 0}";
},
{
name = top;
position = "{354, 710}";
}
);
paths = (
{
closed = 1;
nodes = (
"162 0 LINE",
"392 556 LINE",
"318 560 LINE",
"540 0 LINE",
"742 0 LINE",
"440 710 LINE",
"274 710 LINE",
"-39 0 LINE"
);
},
{
closed = 1;
nodes = (
"579 127 LINE",
"499 292 LINE",
"223 292 LINE",
"138 127 LINE"
);
}
);
};
layerId = "A0850C2E-74F0-4B2E-AE90-CE9FC07F2CBD";
paths = (
{
closed = 1;
nodes = (
"163 0 LINE",
"392 556 LINE",
"318 560 LINE",
"540 0 LINE",
"742 0 LINE",
"440 710 LINE",
"274 710 LINE",
"-39 0 LINE"
);
},
{
closed = 1;
nodes = (
"579 127 LINE",
"499 292 LINE",
"223 292 LINE",
"138 127 LINE"
);
}
);
width = 706.81818;
}
);
leftKerningGroup = A;
rightKerningGroup = A;
unicode = 0041;
},
{
glyphname = AE;
lastChange = "2019-05-08 20:29:10 +0000";
layers = (
{
anchors = (
{
name = bottom;
position = "{487, 0}";
},
{
name = top;
position = "{487, 710}";
}
);
background = {
anchors = (
{
name = bottom;
position = "{487, 0}";
},
{
name = top;
position = "{487, 710}";
}
);
paths = (
{
closed = 1;
nodes = (
"94 0 LINE",
"365 669 LINE",
"334 640 LINE",
"476 640 LINE",
"476 710 LINE",
"306 710 LINE",
"10 0 LINE"
);
},
{
closed = 1;
nodes = (
"476 188 LINE",
"476 257 LINE",
"156 257 LINE",
"140 188 LINE"
);
},
{
closed = 1;
nodes = (
"852 710 LINE",
"446 710 LINE",
"446 0 LINE",
"859 0 LINE",
"869 71 LINE",
"527 71 LINE",
"527 325 LINE",
"842 325 LINE",
"842 395 LINE",
"527 395 LINE",
"527 640 LINE",
"852 640 LINE"
);
}
);
};
layerId = "A3B50665-EA37-4AC6-885C-1233CA61B6BD";
paths = (
{
closed = 1;
nodes = (
"94 0 LINE",
"365 669 LINE",
"334 639 LINE",
"476 639 LINE",
"476 710 LINE",
"306 710 LINE",
"10 0 LINE"
);
},
{
closed = 1;
nodes = (
"476 187 LINE",
"476 257 LINE",
"166 257 LINE",
"140 187 LINE"
);
},
{
closed = 1;
nodes = (
"852 710 LINE",
"446 710 LINE",
"446 0 LINE",
"859 0 LINE",
"866 71 LINE",
"527 71 LINE",
"527 325 LINE",
"842 325 LINE",
"842 396 LINE",
"527 396 LINE",
"527 639 LINE",
"852 639 LINE"
);
}
);
width = 899;
},
{
anchors = (
{
name = bottom;
position = "{522, 0}";
},
{
name = top;
position = "{522, 710}";
}
);
background = {
anchors = (
{
name = bottom;
position = "{522, 0}";
},
{
name = top;
position = "{522, 710}";
}
);
paths = (
{
closed = 1;
nodes = (
"138 0 LINE",
"386 609 LINE",
"340 576 LINE",
"487 576 LINE",
"487 710 LINE",
"286 710 LINE",
"-21 0 LINE"
);
},
{
closed = 1;
nodes = (
"487 147 LINE",
"487 281 LINE",
"202 281 LINE",
"139 147 LINE"
);
},
{
closed = 1;
nodes = (
"915 710 LINE",
"445 710 LINE",
"445 0 LINE",
"915 0 LINE",
"925 135 LINE",
"599 135 LINE",
"599 291 LINE",
"895 291 LINE",
"895 425 LINE",
"599 425 LINE",
"599 576 LINE",
"915 576 LINE"
);
}
);
};
layerId = "014D4A40-7C7F-4023-B30E-1F55CE5EA091";
paths = (
{
closed = 1;
nodes = (
"138 0 LINE",
"386 609 LINE",
"340 576 LINE",
"487 576 LINE",
"487 710 LINE",
"286 710 LINE",
"-21 0 LINE"
);
},
{
closed = 1;
nodes = (
"487 147 LINE",
"487 281 LINE",
"202 281 LINE",
"139 147 LINE"
);
},
{
closed = 1;
nodes = (
"915 710 LINE",
"445 710 LINE",
"445 0 LINE",
"915 0 LINE",
"925 134 LINE",
"599 134 LINE",
"599 291 LINE",
"895 291 LINE",
"895 425 LINE",
"599 425 LINE",
"599 576 LINE",
"915 576 LINE"
);
}
);
width = 943;
},
{
anchors = (
{
name = bottom;
position = "{462, 0}";
},
{
name = top;
position = "{462, 710}";
}
);
background = {
anchors = (
{
name = bottom;
position = "{462, 0}";
},
{
name = top;
position = "{462, 710}";
}
);
paths = (
{
closed = 1;
nodes = (
"63 0 LINE",
"350 712 LINE",
"330 684 LINE",
"468 684 LINE",
"468 710 LINE",
"320 710 LINE",
"32 0 LINE"
);
},
{
closed = 1;
nodes = (
"468 215 LINE",
"468 240 LINE",
"140 240 LINE",
"141 215 LINE"
);
},
{
closed = 1;
nodes = (
"807 710 LINE",
"447 710 LINE",
"447 0 LINE",
"819 0 LINE",
"824 26 LINE",
"476 26 LINE",
"476 349 LINE",
"804 349 LINE",
"804 375 LINE",
"476 375 LINE",
"476 684 LINE",
"807 684 LINE"
);
}
);
};
layerId = "7F092816-09A2-4631-A7F8-AD4571964C60";
paths = (
{
closed = 1;
nodes = (
"64 0 LINE",
"350 712 LINE",
"330 684 LINE",
"459 684 LINE",
"459 710 LINE",
"320 710 LINE",
"32 0 LINE"
);
},
{
closed = 1;
nodes = (
"464 215 LINE",
"464 240 LINE",
"140 240 LINE",
"141 215 LINE"
);
},
{
closed = 1;
nodes = (
"807 710 LINE",
"447 710 LINE",
"447 0 LINE",
"819 0 LINE",
"824 26 LINE",
"477 26 LINE",
"477 349 LINE",
"804 349 LINE",
"804 375 LINE",
"477 375 LINE",
"477 684 LINE",
"807 684 LINE"
);
}
);
width = 867;
},
{
anchors = (
{
name = bottom;
position = "{543, 0}";
},
{
name = top;
position = "{543, 710}";
}
);
background = {
anchors = (
{
name = bottom;
position = "{543, 0}";
},
{
name = top;
position = "{543, 710}";
}
);
paths = (
{
closed = 1;
nodes = (
"163 0 LINE",
"392 556 LINE",
"318 560 LINE",
"540 0 LINE",
"742 0 LINE",
"440 710 LINE",
"274 710 LINE",
"-39 0 LINE"
);
},
{
closed = 1;
nodes = (
"579 127 LINE",
"499 292 LINE",
"223 292 LINE",
"138 127 LINE"
);
}
);
};
layerId = "A0850C2E-74F0-4B2E-AE90-CE9FC07F2CBD";
paths = (
{
closed = 1;
nodes = (
"163 0 LINE",
"399 573 LINE",
"343 539 LINE",
"493 539 LINE",
"493 710 LINE",
"274 710 LINE",
"-39 0 LINE"
);
},
{
closed = 1;
nodes = (
"493 124 LINE",
"493 295 LINE",
"223 295 LINE",
"138 124 LINE"
);
},
{
closed = 1;
nodes = (
"952 710 LINE",
"444 710 LINE",
"444 0 LINE",
"948 0 LINE",
"960 171 LINE",
"642 171 LINE",
"642 271 LINE",
"926 271 LINE",
"926 442 LINE",
"642 442 LINE",
"642 539 LINE",
"952 539 LINE"
);
}
);
width = 969;
}
);
leftKerningGroup = A;
leftMetricsKey = A;
rightKerningGroup = E;
rightMetricsKey = E;
unicode = 00C6;
},
{
glyphname = B;
lastChange = "2019-05-08 20:29:10 +0000";
layers = (
{
anchors = (
{
name = bottom;
position = "{334, 0}";
},
{
name = top;
position = "{333, 712}";
}
);
background = {
anchors = (
{
name = bottom;
position = "{334, 0}";
},
{
name = top;
position = "{333, 712}";
}
);
paths = (
{
closed = 1;
nodes = (
"326 0 LINE SMOOTH",
"473 0 OFFCURVE",
"564 69 OFFCURVE",
"564 196 CURVE SMOOTH",
"564 281 OFFCURVE",
"505 349 OFFCURVE",
"414 367 CURVE",
"414 353 LINE",
"506 374 OFFCURVE",
"556 439 OFFCURVE",
"556 521 CURVE SMOOTH",
"556 643 OFFCURVE",
"460 710 OFFCURVE",
"263 710 CURVE SMOOTH",
"81 710 LINE",
"81 0 LINE"
);
},
{
closed = 1;
nodes = (
"162 642 LINE",
"259 642 LINE SMOOTH",
"413 642 OFFCURVE",
"475 606 OFFCURVE",
"475 520 CURVE SMOOTH",
"475 432 OFFCURVE",
"412 392 OFFCURVE",
"289 392 CURVE SMOOTH",
"148 392 LINE",
"148 323 LINE",
"316 323 LINE SMOOTH",
"426 323 OFFCURVE",
"483 280 OFFCURVE",
"483 194 CURVE SMOOTH",
"483 106 OFFCURVE",
"421 69 OFFCURVE",
"324 69 CURVE SMOOTH",
"162 69 LINE"
);
}
);
};
layerId = "A3B50665-EA37-4AC6-885C-1233CA61B6BD";
paths = (
{
closed = 1;
nodes = (
"327 0 LINE SMOOTH",
"474 0 OFFCURVE",
"565 69 OFFCURVE",
"565 196 CURVE SMOOTH",
"565 281 OFFCURVE",
"506 349 OFFCURVE",
"412 367 CURVE",
"412 353 LINE",
"506 374 OFFCURVE",
"557 439 OFFCURVE",
"557 521 CURVE SMOOTH",
"557 643 OFFCURVE",
"468 710 OFFCURVE",
"271 710 CURVE SMOOTH",
"81 710 LINE",
"81 0 LINE"
);
},
{
closed = 1;
nodes = (
"162 642 LINE",
"272 642 LINE SMOOTH",
"413 642 OFFCURVE",
"475 605 OFFCURVE",
"475 520 CURVE SMOOTH",
"475 432 OFFCURVE",
"412 392 OFFCURVE",
"289 392 CURVE SMOOTH",
"148 392 LINE",
"148 323 LINE",
"316 323 LINE SMOOTH",
"426 323 OFFCURVE",
"483 280 OFFCURVE",
"483 194 CURVE SMOOTH",
"483 106 OFFCURVE",
"421 68 OFFCURVE",
"324 68 CURVE SMOOTH",
"162 68 LINE"
);
}
);
width = 613;
},
{
anchors = (
{
name = bottom;
position = "{350, 0}";
},
{
name = top;
position = "{350, 712}";
}
);
background = {
anchors = (
{
name = bottom;
position = "{350, 0}";
},
{
name = top;
position = "{350, 712}";
}
);
paths = (
{
closed = 1;
nodes = (
"360 0 LINE SMOOTH",
"518 0 OFFCURVE",
"619 84 OFFCURVE",
"619 207 CURVE SMOOTH",
"619 290 OFFCURVE",
"566 355 OFFCURVE",
"487 375 CURVE",
"487 351 LINE",
"559 377 OFFCURVE",
"606 437 OFFCURVE",
"606 513 CURVE SMOOTH",
"606 643 OFFCURVE",
"499 710 OFFCURVE",
"323 710 CURVE SMOOTH",
"68 710 LINE",
"68 0 LINE"
);
},
{
closed = 1;
nodes = (
"221 583 LINE",
"322 583 LINE SMOOTH",
"414 583 OFFCURVE",
"451 557 OFFCURVE",
"451 505 CURVE SMOOTH",
"451 446 OFFCURVE",
"409 421 OFFCURVE",
"320 421 CURVE SMOOTH",
"205 421 LINE",
"205 294 LINE",
"347 294 LINE SMOOTH",
"429 294 OFFCURVE",
"464 268 OFFCURVE",
"464 213 CURVE SMOOTH",
"464 153 OFFCURVE",
"420 128 OFFCURVE",
"347 128 CURVE SMOOTH",
"221 128 LINE"
);
}
);
};
layerId = "014D4A40-7C7F-4023-B30E-1F55CE5EA091";
paths = (
{
closed = 1;
nodes = (
"350 0 LINE SMOOTH",
"518 0 OFFCURVE",
"619 84 OFFCURVE",
"619 207 CURVE SMOOTH",
"619 290 OFFCURVE",
"566 351 OFFCURVE",
"491 371 CURVE",
"491 347 LINE",
"563 373 OFFCURVE",
"606 437 OFFCURVE",
"606 513 CURVE SMOOTH",
"606 643 OFFCURVE",
"500 710 OFFCURVE",
"330 710 CURVE SMOOTH",
"68 710 LINE",
"68 0 LINE"
);
},
{
closed = 1;
nodes = (
"221 583 LINE",
"332 583 LINE SMOOTH",
"414 583 OFFCURVE",
"451 557 OFFCURVE",
"451 505 CURVE SMOOTH",
"451 446 OFFCURVE",
"409 421 OFFCURVE",
"320 421 CURVE SMOOTH",
"205 421 LINE",
"205 293 LINE",
"347 293 LINE SMOOTH",
"429 293 OFFCURVE",
"464 268 OFFCURVE",
"464 213 CURVE SMOOTH",
"464 153 OFFCURVE",
"420 127 OFFCURVE",
"347 127 CURVE SMOOTH",
"221 127 LINE"
);
}
);
width = 644;
},
{
anchors = (
{
name = bottom;
position = "{323, 0}";
},
{
name = top;
position = "{321, 712}";
}
);
background = {
anchors = (
{
name = bottom;
position = "{323, 0}";
},
{
name = top;
position = "{321, 712}";
}
);
paths = (
{
closed = 1;
nodes = (
"311 0 LINE SMOOTH",
"443 0 OFFCURVE",
"527 58 OFFCURVE",
"527 188 CURVE SMOOTH",
"527 275 OFFCURVE",
"463 348 OFFCURVE",
"356 364 CURVE",
"356 357 LINE",
"465 375 OFFCURVE",
"522 440 OFFCURVE",
"522 527 CURVE SMOOTH",
"522 643 OFFCURVE",
"445 710 OFFCURVE",
"229 710 CURVE SMOOTH",
"90 710 LINE",
"90 0 LINE"
);
},
{
closed = 1;
nodes = (
"120 684 LINE",
"229 684 LINE SMOOTH",
"412 684 OFFCURVE",
"492 639 OFFCURVE",
"492 531 CURVE SMOOTH",
"492 422 OFFCURVE",
"414 371 OFFCURVE",
"267 371 CURVE SMOOTH",
"107 371 LINE",
"107 344 LINE",
"294 344 LINE SMOOTH",
"424 344 OFFCURVE",
"497 289 OFFCURVE",
"497 180 CURVE SMOOTH",
"497 73 OFFCURVE",
"422 26 OFFCURVE",
"308 26 CURVE SMOOTH",
"120 26 LINE"
);
}
);
};
layerId = "7F092816-09A2-4631-A7F8-AD4571964C60";
paths = (
{
closed = 1;
nodes = (
"311 0 LINE SMOOTH",
"443 0 OFFCURVE",
"527 58 OFFCURVE",
"527 184 CURVE SMOOTH",
"527 275 OFFCURVE",
"464 347 OFFCURVE",
"360 363 CURVE",
"364 357 LINE",
"465 375 OFFCURVE",
"520 440 OFFCURVE",
"520 529 CURVE SMOOTH",
"520 643 OFFCURVE",
"445 710 OFFCURVE",
"229 710 CURVE SMOOTH",
"90 710 LINE",
"90 0 LINE"
);
},
{
closed = 1;
nodes = (
"120 683 LINE",
"228 683 LINE SMOOTH",
"412 683 OFFCURVE",
"489 639 OFFCURVE",
"489 529 CURVE SMOOTH",
"489 422 OFFCURVE",
"412 372 OFFCURVE",
"265 372 CURVE SMOOTH",
"107 372 LINE",
"107 344 LINE",
"292 344 LINE SMOOTH",
"422 344 OFFCURVE",
"496 289 OFFCURVE",
"496 184 CURVE SMOOTH",
"496 74 OFFCURVE",
"424 27 OFFCURVE",
"308 27 CURVE SMOOTH",
"120 27 LINE"
);
}
);
width = 590.92424;
},
{
anchors = (
{
name = bottom;
position = "{359, 0}";
},
{
name = top;
position = "{360, 712}";
}
);
background = {
anchors = (
{
name = bottom;
position = "{359, 0}";
},
{
name = top;
position = "{360, 712}";
}
);
paths = (
{
closed = 1;
nodes = (
"364 0 LINE SMOOTH",
"544 0 OFFCURVE",
"651 93 OFFCURVE",
"651 213 CURVE SMOOTH",
"651 295 OFFCURVE",
"602 352 OFFCURVE",
"538 373 CURVE",
"538 344 LINE",
"597 372 OFFCURVE",
"635 436 OFFCURVE",
"635 509 CURVE SMOOTH",
"635 643 OFFCURVE",
"519 710 OFFCURVE",
"365 710 CURVE SMOOTH",
"60 710 LINE",
"60 0 LINE"
);
},
{
closed = 1;
nodes = (
"256 548 LINE",
"368 548 LINE SMOOTH",
"415 548 OFFCURVE",
"437 529 OFFCURVE",
"437 496 CURVE SMOOTH",
"437 454 OFFCURVE",
"407 438 OFFCURVE",
"338 438 CURVE SMOOTH",
"239 438 LINE",
"239 277 LINE",
"365 277 LINE SMOOTH",
"431 277 OFFCURVE",
"453 261 OFFCURVE",
"453 224 CURVE SMOOTH",
"453 181 OFFCURVE",
"419 162 OFFCURVE",
"361 162 CURVE SMOOTH",
"256 162 LINE"
);
}
);
};
layerId = "A0850C2E-74F0-4B2E-AE90-CE9FC07F2CBD";
paths = (
{
closed = 1;
nodes = (
"364 0 LINE SMOOTH",
"535 0 OFFCURVE",
"651 86 OFFCURVE",
"651 213 CURVE SMOOTH",
"651 295 OFFCURVE",
"601 352 OFFCURVE",
"535 373 CURVE",
"535 344 LINE",
"596 372 OFFCURVE",
"635 436 OFFCURVE",
"635 509 CURVE SMOOTH",
"635 638 OFFCURVE",
"532 710 OFFCURVE",
"345 710 CURVE SMOOTH",
"60 710 LINE",
"60 0 LINE"
);
},
{
closed = 1;
nodes = (
"256 549 LINE",
"354 549 LINE SMOOTH",
"411 549 OFFCURVE",
"437 532 OFFCURVE",
"437 494 CURVE SMOOTH",
"437 458 OFFCURVE",
"412 438 OFFCURVE",
"353 438 CURVE SMOOTH",
"239 438 LINE",
"239 276 LINE",
"371 276 LINE SMOOTH",
"429 276 OFFCURVE",
"453 260 OFFCURVE",
"453 221 CURVE SMOOTH",
"453 181 OFFCURVE",
"422 161 OFFCURVE",
"371 161 CURVE SMOOTH",
"256 161 LINE"
);
}
);
width = 662.31818;
}
);
leftKerningGroup = H;
leftMetricsKey = H;
rightKerningGroup = B;
unicode = 0042;
},
{
glyphname = C;
lastChange = "2019-05-08 20:29:10 +0000";
layers = (
{
anchors = (
{
name = bottom;
position = "{386, 0}";
},
{
name = top;
position = "{386, 710}";
}
);
background = {
anchors = (
{
name = bottom;
position = "{374, 0}";
},
{
name = top;
position = "{374, 710}";
}
);
paths = (
{
closed = 1;
nodes = (
"586 184 LINE",
"545 108 OFFCURVE",
"475 70 OFFCURVE",
"383 70 CURVE SMOOTH",
"231 70 OFFCURVE",
"141 169 OFFCURVE",
"141 342 CURVE SMOOTH",
"141 521 OFFCURVE",
"247 643 OFFCURVE",
"398 643 CURVE SMOOTH",
"483 643 OFFCURVE",
"546 609 OFFCURVE",
"586 537 CURVE",
"650 585 LINE",
"598 674 OFFCURVE",
"513 720 OFFCURVE",
"402 720 CURVE SMOOTH",
"197 720 OFFCURVE",
"56 566 OFFCURVE",
"56 342 CURVE SMOOTH",
"56 124 OFFCURVE",
"180 -8 OFFCURVE",
"383 -8 CURVE SMOOTH",
"501 -8 OFFCURVE",
"597 43 OFFCURVE",
"649 136 CURVE"
);
}
);
};
guideLines = (
{
angle = 90;
position = "{743, 356}";
},
{
angle = 90;
position = "{806, 356}";
}
);
layerId = "A3B50665-EA37-4AC6-885C-1233CA61B6BD";
paths = (
{
closed = 1;
nodes = (
"586 184 LINE",
"545 108 OFFCURVE",
"475 68 OFFCURVE",
"383 68 CURVE SMOOTH",
"231 68 OFFCURVE",
"141 169 OFFCURVE",
"141 342 CURVE SMOOTH",
"141 521 OFFCURVE",
"247 644 OFFCURVE",
"398 644 CURVE SMOOTH",
"483 644 OFFCURVE",
"546 609 OFFCURVE",
"586 537 CURVE",
"650 585 LINE",
"598 674 OFFCURVE",
"512 720 OFFCURVE",
"400 720 CURVE SMOOTH",
"196 720 OFFCURVE",
"57 566 OFFCURVE",
"57 342 CURVE SMOOTH",
"57 124 OFFCURVE",
"180 -8 OFFCURVE",
"383 -8 CURVE SMOOTH",
"501 -8 OFFCURVE",
"597 43 OFFCURVE",
"649 136 CURVE"
);
}
);
width = 650;
},
{
anchors = (
{
name = bottom;
position = "{392, 0}";
},
{
name = top;
position = "{392, 710}";
}
);
background = {
paths = (
{
closed = 1;
nodes = (
"595 -8 OFFCURVE",
"742 139 OFFCURVE",
"742 369 CURVE SMOOTH",
"742 580 OFFCURVE",
"607 720 OFFCURVE",
"406 720 CURVE SMOOTH",
"179 720 OFFCURVE",
"38 564 OFFCURVE",
"38 342 CURVE SMOOTH",
"38 120 OFFCURVE",
"171 -12 OFFCURVE",
"393 -10 CURVE SMOOTH"
);
},
{
closed = 1;
nodes = (
"268 129 OFFCURVE",
"196 207 OFFCURVE",
"196 345 CURVE SMOOTH",
"196 486 OFFCURVE",
"282 582 OFFCURVE",
"402 582 CURVE SMOOTH",
"513 582 OFFCURVE",
"584 497 OFFCURVE",
"584 368 CURVE SMOOTH",
"584 217 OFFCURVE",
"503 129 OFFCURVE",
"387 129 CURVE SMOOTH"
);
}
);
};
layerId = "014D4A40-7C7F-4023-B30E-1F55CE5EA091";
paths = (
{
closed = 1;
nodes = (
"573 229 LINE",
"535 161 OFFCURVE",
"468 129 OFFCURVE",
"401 129 CURVE SMOOTH",
"272 129 OFFCURVE",
"197 208 OFFCURVE",
"197 344 CURVE SMOOTH",
"197 484 OFFCURVE",
"285 581 OFFCURVE",
"413 581 CURVE SMOOTH",
"476 581 OFFCURVE",
"537 554 OFFCURVE",
"571 491 CURVE",
"690 576 LINE",
"628 673 OFFCURVE",
"542 720 OFFCURVE",
"414 720 CURVE SMOOTH",
"191 720 OFFCURVE",
"38 566 OFFCURVE",
"38 341 CURVE SMOOTH",
"38 122 OFFCURVE",
"172 -10 OFFCURVE",
"399 -10 CURVE SMOOTH",
"524 -10 OFFCURVE",
"631 43 OFFCURVE",
"689 139 CURVE"
);
}
);
width = 677;
},
{
anchors = (
{
name = bottom;
position = "{382, 0}";
},
{
name = top;
position = "{382, 710}";
}
);
background = {
anchors = (
{
name = bottom;
position = "{382, 0}";
},
{
name = top;
position = "{382, 710}";
}
);
paths = (
{
closed = 1;
nodes = (
"595 152 LINE",
"552 70 OFFCURVE",
"480 25 OFFCURVE",
"370 25 CURVE SMOOTH",
"202 25 OFFCURVE",
"101 141 OFFCURVE",
"101 341 CURVE SMOOTH",
"101 547 OFFCURVE",
"220 689 OFFCURVE",
"387 689 CURVE SMOOTH",
"488 689 OFFCURVE",
"552 648 OFFCURVE",
"597 570 CURVE",
"622 591 LINE",
"577 675 OFFCURVE",
"491 720 OFFCURVE",
"390 720 CURVE SMOOTH",
"200 720 OFFCURVE",
"71 566 OFFCURVE",
"71 343 CURVE SMOOTH",
"71 125 OFFCURVE",
"186 -7 OFFCURVE",
"372 -7 CURVE SMOOTH",
"485 -7 OFFCURVE",
"573 43 OFFCURVE",
"621 134 CURVE"
);
}
);
};
layerId = "7F092816-09A2-4631-A7F8-AD4571964C60";
paths = (
{
closed = 1;
nodes = (
"595 152 LINE",
"552 70 OFFCURVE",
"480 24 OFFCURVE",
"370 24 CURVE SMOOTH",
"202 24 OFFCURVE",
"103 141 OFFCURVE",
"103 341 CURVE SMOOTH",
"103 547 OFFCURVE",
"220 689 OFFCURVE",
"387 689 CURVE SMOOTH",
"488 689 OFFCURVE",
"552 648 OFFCURVE",
"597 570 CURVE",
"622 591 LINE",
"577 675 OFFCURVE",
"491 720 OFFCURVE",
"390 720 CURVE SMOOTH",
"200 720 OFFCURVE",
"71 566 OFFCURVE",
"71 343 CURVE SMOOTH",
"71 125 OFFCURVE",
"186 -7 OFFCURVE",
"372 -7 CURVE SMOOTH",
"485 -7 OFFCURVE",
"573 43 OFFCURVE",
"621 134 CURVE"
);
}
);
width = 630.77273;
},
{
anchors = (
{
name = bottom;
position = "{395, 0}";
},
{
name = top;
position = "{395, 710}";
}
);
background = {
anchors = (
{
name = bottom;
position = "{395, 0}";
},
{
name = top;
position = "{395, 710}";
}
);
paths = (
{
closed = 1;
nodes = (
"1465 255 LINE",
"1429 192 OFFCURVE",
"1364 165 OFFCURVE",
"1312 165 CURVE SMOOTH",
"1196 165 OFFCURVE",
"1130 231 OFFCURVE",
"1130 345 CURVE SMOOTH",
"1130 462 OFFCURVE",
"1207 544 OFFCURVE",
"1322 544 CURVE SMOOTH",
"1372 544 OFFCURVE",
"1432 521 OFFCURVE",
"1462 464 CURVE",
"1613 571 LINE",
"1546 672 OFFCURVE",
"1460 720 OFFCURVE",
"1322 720 CURVE SMOOTH",
"1088 720 OFFCURVE",
"927 566 OFFCURVE",
"927 340 CURVE SMOOTH",
"927 121 OFFCURVE",
"1068 -11 OFFCURVE",
"1308 -11 CURVE SMOOTH",
"1438 -11 OFFCURVE",
"1551 43 OFFCURVE",
"1612 141 CURVE"
);
},
{
closed = 1;
nodes = (
"612 -8 OFFCURVE",
"759 145 OFFCURVE",
"759 369 CURVE SMOOTH",
"759 580 OFFCURVE",
"619 720 OFFCURVE",
"410 720 CURVE SMOOTH",
"180 720 OFFCURVE",
"27 569 OFFCURVE",
"27 342 CURVE SMOOTH",
"27 120 OFFCURVE",
"165 -12 OFFCURVE",
"396 -10 CURVE SMOOTH"
);
},
{
closed = 1;
nodes = (
"289 165 OFFCURVE",
"229 232 OFFCURVE",
"229 347 CURVE SMOOTH",
"229 463 OFFCURVE",
"297 545 OFFCURVE",
"402 545 CURVE SMOOTH",
"497 545 OFFCURVE",
"558 474 OFFCURVE",
"558 365 CURVE SMOOTH",
"558 243 OFFCURVE",
"493 165 OFFCURVE",
"391 165 CURVE SMOOTH"
);
}
);
};
layerId = "A0850C2E-74F0-4B2E-AE90-CE9FC07F2CBD";
paths = (
{
closed = 1;
nodes = (
"565 255 LINE",
"531 196 OFFCURVE",
"478 165 OFFCURVE",
"409 165 CURVE SMOOTH",
"289 165 OFFCURVE",
"230 232 OFFCURVE",
"230 345 CURVE SMOOTH",
"230 463 OFFCURVE",
"297 545 OFFCURVE",
"415 544 CURVE SMOOTH",
"479 544 OFFCURVE",
"536 513 OFFCURVE",
"562 464 CURVE",
"713 571 LINE",
"653 672 OFFCURVE",
"560 720 OFFCURVE",
"422 720 CURVE SMOOTH",
"186 720 OFFCURVE",
"27 569 OFFCURVE",
"27 340 CURVE SMOOTH",
"27 121 OFFCURVE",
"168 -11 OFFCURVE",
"408 -11 CURVE SMOOTH",
"538 -11 OFFCURVE",
"651 43 OFFCURVE",
"712 141 CURVE"
);
}
);
width = 692.95455;
}
);
leftKerningGroup = O;
leftMetricsKey = O;
rightKerningGroup = C;
unicode = 0043;
},
{
glyphname = D;
lastChange = "2019-05-08 20:29:10 +0000";
layers = (
{
anchors = (
{
name = bottom;
position = "{364, 0}";
},
{
name = center;
position = "{364, 359}";
},
{
name = stroke;
position = "{123, 360}";
},
{
name = top;
position = "{364, 710}";
}
);
background = {
anchors = (
{
name = bottom;
position = "{364, 0}";
},
{
name = center;
position = "{364, 359}";
},
{
name = stroke;
position = "{123, 360}";
},
{
name = top;
position = "{364, 710}";
}
);
paths = (
{
closed = 1;
nodes = (
"293 0 LINE SMOOTH",
"534 0 OFFCURVE",
"676 136 OFFCURVE",
"676 359 CURVE SMOOTH",
"676 591 OFFCURVE",
"540 710 OFFCURVE",
"264 710 CURVE SMOOTH",
"81 710 LINE",
"81 0 LINE"
);
},
{
closed = 1;
nodes = (
"164 635 LINE",
"277 635 LINE SMOOTH",
"491 635 OFFCURVE",
"593 544 OFFCURVE",
"593 354 CURVE SMOOTH",
"593 170 OFFCURVE",
"490 76 OFFCURVE",
"289 76 CURVE SMOOTH",
"164 76 LINE"
);
}
);
};
layerId = "A3B50665-EA37-4AC6-885C-1233CA61B6BD";
paths = (
{
closed = 1;
nodes = (
"293 0 LINE SMOOTH",
"533 0 OFFCURVE",
"677 135 OFFCURVE",
"677 359 CURVE SMOOTH",
"677 592 OFFCURVE",
"538 710 OFFCURVE",
"264 710 CURVE SMOOTH",
"81 710 LINE",
"81 0 LINE"
);
},
{
closed = 1;
nodes = (
"164 637 LINE",
"277 637 LINE SMOOTH",
"491 637 OFFCURVE",
"593 544 OFFCURVE",
"593 354 CURVE SMOOTH",
"593 170 OFFCURVE",
"490 73 OFFCURVE",
"289 73 CURVE SMOOTH",
"164 73 LINE"
);
}
);
width = 734;
},
{
anchors = (
{
name = bottom;
position = "{375, 0}";
},
{
name = center;
position = "{375, 359}";
},
{
name = stroke;
position = "{146, 360}";
},
{
name = top;
position = "{375, 710}";
}
);
background = {
anchors = (
{
name = bottom;
position = "{375, 0}";
},
{
name = center;
position = "{375, 359}";
},
{
name = stroke;
position = "{146, 360}";
},
{
name = top;
position = "{375, 710}";
}
);
paths = (
{
closed = 1;
nodes = (
"337 0 LINE SMOOTH",
"568 0 OFFCURVE",
"718 146 OFFCURVE",
"718 357 CURVE SMOOTH",
"718 589 OFFCURVE",
"574 710 OFFCURVE",
"294 710 CURVE SMOOTH",
"68 710 LINE",
"68 0 LINE"
);
},
{
closed = 1;
nodes = (
"224 573 LINE",
"314 573 LINE SMOOTH",
"476 573 OFFCURVE",
"559 503 OFFCURVE",
"559 352 CURVE SMOOTH",
"559 210 OFFCURVE",
"477 139 OFFCURVE",
"330 139 CURVE SMOOTH",
"224 139 LINE"
);
}
);
};
layerId = "014D4A40-7C7F-4023-B30E-1F55CE5EA091";
paths = (
{
closed = 1;
nodes = (
"336 0 LINE SMOOTH",
"563 0 OFFCURVE",
"717 145 OFFCURVE",
"717 357 CURVE SMOOTH",
"717 590 OFFCURVE",
"573 710 OFFCURVE",
"294 710 CURVE SMOOTH",
"68 710 LINE",
"68 0 LINE"
);
},
{
closed = 1;
nodes = (
"224 572 LINE",
"314 572 LINE SMOOTH",
"480 572 OFFCURVE",
"559 501 OFFCURVE",
"559 352 CURVE SMOOTH",
"559 212 OFFCURVE",
"479 138 OFFCURVE",
"330 138 CURVE SMOOTH",
"224 138 LINE"
);
}
);
width = 755;
},
{
anchors = (
{
name = bottom;
position = "{356, 0}";
},
{
name = center;
position = "{356, 359}";
},
{
name = stroke;
position = "{107, 360}";
},
{
name = top;
position = "{356, 710}";
}
);
background = {
anchors = (
{
name = bottom;
position = "{356, 0}";
},
{
name = center;
position = "{356, 359}";
},
{
name = stroke;
position = "{107, 360}";
},
{
name = top;
position = "{356, 710}";
}
);
paths = (
{
closed = 1;
nodes = (
"262 0 LINE SMOOTH",
"512 0 OFFCURVE",
"649 128 OFFCURVE",
"649 360 CURVE SMOOTH",
"649 593 OFFCURVE",
"513 710 OFFCURVE",
"243 710 CURVE SMOOTH",
"90 710 LINE",
"90 0 LINE"
);
},
{
closed = 1;
nodes = (
"121 683 LINE",
"251 683 LINE SMOOTH",
"499 683 OFFCURVE",
"617 575 OFFCURVE",
"617 355 CURVE SMOOTH",
"617 140 OFFCURVE",
"498 27 OFFCURVE",
"260 27 CURVE SMOOTH",
"121 27 LINE"
);
}
);
};
layerId = "7F092816-09A2-4631-A7F8-AD4571964C60";
paths = (
{
closed = 1;
nodes = (
"262 0 LINE SMOOTH",
"515 0 OFFCURVE",
"649 128 OFFCURVE",
"649 358 CURVE SMOOTH",
"649 593 OFFCURVE",
"513 710 OFFCURVE",
"243 710 CURVE SMOOTH",
"90 710 LINE",
"90 0 LINE"
);
},
{
closed = 1;
nodes = (
"121 683 LINE",
"248 683 LINE SMOOTH",
"498 683 OFFCURVE",
"617 576 OFFCURVE",
"617 358 CURVE SMOOTH",
"617 138 OFFCURVE",
"496 27 OFFCURVE",
"259 27 CURVE SMOOTH",
"121 27 LINE"
);
}
);
width = 720;
},
{
anchors = (
{
name = bottom;
position = "{381, 0}";
},
{
name = center;
position = "{381, 359}";
},
{
name = stroke;
position = "{160, 360}";
},
{
name = top;
position = "{381, 710}";
}
);
background = {
anchors = (
{
name = bottom;
position = "{381, 0}";
},
{
name = center;
position = "{381, 359}";
},
{
name = stroke;
position = "{160, 360}";
},
{
name = top;
position = "{381, 710}";
}
);
paths = (
{
closed = 1;
nodes = (
"361 0 LINE SMOOTH",
"581 0 OFFCURVE",
"740 151 OFFCURVE",
"740 356 CURVE SMOOTH",
"740 589 OFFCURVE",
"594 710 OFFCURVE",
"312 710 CURVE SMOOTH",
"60 710 LINE",
"60 0 LINE"
);
},
{
closed = 1;
nodes = (
"260 534 LINE",
"336 534 LINE SMOOTH",
"474 534 OFFCURVE",
"539 476 OFFCURVE",
"539 351 CURVE SMOOTH",
"539 237 OFFCURVE",
"473 176 OFFCURVE",
"354 176 CURVE SMOOTH",
"260 176 LINE"
);
}
);
};
layerId = "A0850C2E-74F0-4B2E-AE90-CE9FC07F2CBD";
paths = (
{
closed = 1;
nodes = (
"361 0 LINE SMOOTH",
"580 0 OFFCURVE",
"740 150 OFFCURVE",
"740 356 CURVE SMOOTH",
"740 589 OFFCURVE",
"594 710 OFFCURVE",
"310 710 CURVE SMOOTH",
"60 710 LINE",
"60 0 LINE"
);
},
{
closed = 1;
nodes = (
"260 534 LINE",
"329 534 LINE SMOOTH",
"473 534 OFFCURVE",
"539 477 OFFCURVE",
"539 351 CURVE SMOOTH",
"539 237 OFFCURVE",
"473 176 OFFCURVE",
"347 176 CURVE SMOOTH",
"260 176 LINE"
);
}
);
width = 767.40909;
}
);
leftKerningGroup = H;
leftMetricsKey = H;
rightKerningGroup = O;
rightMetricsKey = O;
unicode = 0044;
},
{
glyphname = E;
lastChange = "2019-05-08 20:29:10 +0000";
layers = (
{
anchors = (
{
name = bottom;
position = "{289, 0}";
},
{
name = ogonek;
position = "{504, 0}";
},
{
name = top;
position = "{289, 710}";
},
{
name = topleft;
position = "{7, 710}";
}
);
background = {
anchors = (
{
name = bottom;
position = "{270, 0}";
},
{
name = ogonek;
position = "{504, 0}";
},
{
name = top;
position = "{270, 710}";
},
{
name = topleft;
position = "{7, 710}";
}
);
paths = (
{
closed = 1;
nodes = (
"497 710 LINE",
"81 710 LINE",
"81 0 LINE",
"504 0 LINE",
"514 71 LINE",
"162 71 LINE",
"162 325 LINE",
"487 325 LINE",
"487 395 LINE",
"162 395 LINE",
"162 640 LINE",
"497 640 LINE"
);
}
);
};
layerId = "A3B50665-EA37-4AC6-885C-1233CA61B6BD";
paths = (
{
closed = 1;
nodes = (
"497 710 LINE",
"81 710 LINE",
"81 0 LINE",
"504 0 LINE",
"511 71 LINE",
"162 71 LINE",
"162 325 LINE",
"487 325 LINE",
"487 396 LINE",
"162 396 LINE",
"162 639 LINE",
"497 639 LINE"
);
}
);
width = 544;
},
{
anchors = (
{
name = bottom;
position = "{308, 0}";
},
{
name = ogonek;
position = "{548, 0}";
},
{
name = top;
position = "{308, 710}";
},
{
name = topleft;
position = "{12, 710}";
}
);
background = {
anchors = (
{
name = bottom;
position = "{296, 0}";
},
{
name = ogonek;
position = "{548, 0}";
},
{
name = top;
position = "{296, 710}";
},
{
name = topleft;
position = "{12, 710}";
}
);
paths = (
{
closed = 1;
nodes = (
"548 710 LINE",
"68 710 LINE",
"68 0 LINE",
"548 0 LINE",
"558 135 LINE",
"222 135 LINE",
"222 291 LINE",
"528 291 LINE",
"528 425 LINE",
"222 425 LINE",
"222 576 LINE",
"548 576 LINE"
);
}
);
};
layerId = "014D4A40-7C7F-4023-B30E-1F55CE5EA091";
paths = (
{
closed = 1;
nodes = (
"548 710 LINE",
"68 710 LINE",
"68 0 LINE",
"548 0 LINE",
"558 134 LINE",
"221 134 LINE",
"221 291 LINE",
"528 291 LINE",
"528 425 LINE",
"221 425 LINE",
"221 576 LINE",
"548 576 LINE"
);
}
);
width = 576;
},
{
anchors = (
{
name = bottom;
position = "{275, 0}";
},
{
name = ogonek;
position = "{473, 0}";
},
{
name = top;
position = "{275, 710}";
},
{
name = topleft;
position = "{3, 710}";
}
);
background = {
anchors = (
{
name = bottom;
position = "{275, 0}";
},
{
name = ogonek;
position = "{473, 0}";
},
{
name = top;
position = "{275, 710}";
},
{
name = topleft;
position = "{3, 710}";
}
);
paths = (
{
closed = 1;
nodes = (
"461 710 LINE",
"90 710 LINE",
"90 0 LINE",
"473 0 LINE",
"478 26 LINE",
"120 26 LINE",
"120 349 LINE",
"458 349 LINE",
"458 375 LINE",
"120 375 LINE",
"120 684 LINE",
"461 684 LINE"
);
}
);
};
layerId = "7F092816-09A2-4631-A7F8-AD4571964C60";
paths = (
{
closed = 1;
nodes = (
"461 710 LINE",
"90 710 LINE",
"90 0 LINE",
"473 0 LINE",
"478 26 LINE",
"120 26 LINE",
"120 349 LINE",
"458 349 LINE",
"458 375 LINE",
"120 375 LINE",
"120 684 LINE",
"461 684 LINE"
);
}
);
width = 521.21212;
},
{
anchors = (
{
name = bottom;
position = "{319, 0}";
},
{
name = ogonek;
position = "{574, 0}";
},
{
name = top;
position = "{319, 710}";
},
{
name = topleft;
position = "{15, 710}";
}
);
background = {
anchors = (
{
name = bottom;
position = "{319, 0}";
},
{
name = ogonek;
position = "{574, 0}";
},
{
name = top;
position = "{319, 710}";
},
{
name = topleft;
position = "{15, 710}";
}
);
paths = (
{
closed = 1;
nodes = (
"578 710 LINE",
"60 710 LINE",
"60 0 LINE",
"574 0 LINE",
"586 171 LINE",
"256 171 LINE",
"256 271 LINE",
"552 271 LINE",
"552 442 LINE",
"256 442 LINE",
"256 539 LINE",
"578 539 LINE"
);
}
);
};
layerId = "A0850C2E-74F0-4B2E-AE90-CE9FC07F2CBD";
paths = (
{
closed = 1;
nodes = (
"578 710 LINE",
"60 710 LINE",
"60 0 LINE",
"574 0 LINE",
"586 171 LINE",
"257 171 LINE",
"257 271 LINE",
"552 271 LINE",
"552 442 LINE",
"257 442 LINE",
"257 539 LINE",
"578 539 LINE"
);
}
);
width = 594.90909;
}
);
leftKerningGroup = H;
leftMetricsKey = H;
rightKerningGroup = E;
unicode = 0045;
},
{
glyphname = F;
lastChange = "2019-05-08 20:29:10 +0000";
layers = (
{
anchors = (
{
name = bottom;
position = "{279, 0}";
},
{
name = top;
position = "{279, 710}";
}
);
background = {
anchors = (
{
name = bottom;
position = "{249, 0}";
},
{
name = top;
position = "{249, 710}";
}
);
paths = (
{
closed = 1;
nodes = (
"477 710 LINE",
"81 710 LINE",
"81 0 LINE",
"162 0 LINE",
"162 315 LINE",
"467 315 LINE",
"467 385 LINE",
"162 385 LINE",
"162 640 LINE",
"477 640 LINE"
);
}
);
};
layerId = "A3B50665-EA37-4AC6-885C-1233CA61B6BD";
paths = (
{
closed = 1;
nodes = (
"477 710 LINE",
"81 710 LINE",
"81 0 LINE",
"162 0 LINE",
"162 314 LINE",
"467 314 LINE",
"467 385 LINE",
"162 385 LINE",
"162 639 LINE",
"477 639 LINE"
);
}
);
width = 487;
},
{
anchors = (
{
name = bottom;
position = "{297, 0}";
},
{
name = top;
position = "{297, 710}";
}
);
background = {
anchors = (
{
name = bottom;
position = "{279, 0}";
},
{
name = top;
position = "{279, 710}";
}
);
paths = (
{
closed = 1;
nodes = (
"525 710 LINE",
"68 710 LINE",
"68 0 LINE",
"222 0 LINE",
"222 281 LINE",
"505 281 LINE",
"505 415 LINE",
"222 415 LINE",
"222 576 LINE",
"525 576 LINE"
);
}
);
};
layerId = "014D4A40-7C7F-4023-B30E-1F55CE5EA091";
paths = (
{
closed = 1;
nodes = (
"525 710 LINE",
"68 710 LINE",
"68 0 LINE",
"221 0 LINE",
"221 281 LINE",
"505 281 LINE",
"505 415 LINE",
"221 415 LINE",
"221 576 LINE",
"525 576 LINE"
);
}
);
width = 528;
},
{
anchors = (
{
name = bottom;
position = "{266, 0}";
},
{
name = top;
position = "{266, 710}";
}
);
background = {
anchors = (
{
name = bottom;
position = "{266, 0}";
},
{
name = top;
position = "{266, 710}";
}
);
paths = (
{
closed = 1;
nodes = (
"443 710 LINE",
"90 710 LINE",
"90 0 LINE",
"120 0 LINE",
"120 338 LINE",
"440 338 LINE",
"440 364 LINE",
"120 364 LINE",
"120 684 LINE",
"443 684 LINE"
);
}
);
};
layerId = "7F092816-09A2-4631-A7F8-AD4571964C60";
paths = (
{
closed = 1;
nodes = (
"443 710 LINE",
"90 710 LINE",
"90 0 LINE",
"120 0 LINE",
"120 338 LINE",
"440 338 LINE",
"440 364 LINE",
"120 364 LINE",
"120 684 LINE",
"443 684 LINE"
);
}
);
width = 457.80303;
},
{
anchors = (
{
name = bottom;
position = "{308, 0}";
},
{
name = top;
position = "{308, 710}";
}
);
background = {
anchors = (
{
name = bottom;
position = "{308, 0}";
},
{
name = top;
position = "{308, 710}";
}
);
paths = (
{
closed = 1;
nodes = (
"553 710 LINE",
"60 710 LINE",
"60 0 LINE",
"256 0 LINE",
"256 261 LINE",
"527 261 LINE",
"527 433 LINE",
"256 433 LINE",
"256 539 LINE",
"553 539 LINE"
);
}
);
};
layerId = "A0850C2E-74F0-4B2E-AE90-CE9FC07F2CBD";
paths = (
{
closed = 1;
nodes = (
"553 710 LINE",
"60 710 LINE",
"60 0 LINE",
"257 0 LINE",
"257 262 LINE",
"527 262 LINE",
"527 433 LINE",
"257 433 LINE",
"257 539 LINE",
"553 539 LINE"
);
}
);
width = 552.22727;
}
);
leftKerningGroup = H;
leftMetricsKey = H;
rightKerningGroup = F;
unicode = 0046;
},
{
glyphname = G;
lastChange = "2019-05-08 20:29:10 +0000";
layers = (
{
anchors = (
{
name = bottom;
position = "{386, 0}";
},
{
name = top;
position = "{386, 710}";
}
);
background = {
anchors = (
{
name = bottom;
position = "{1184, 0}";
},
{
name = top;
position = "{1184, 710}";
}
);
paths = (
{
closed = 1;
nodes = (
"1218 279 LINE",
"1414 279 LINE",
"1391 324 LINE",
"1390 248 LINE SMOOTH",
"1389 136 OFFCURVE",
"1307 68 OFFCURVE",
"1180 68 CURVE SMOOTH",
"1033 68 OFFCURVE",
"941 166 OFFCURVE",
"941 342 CURVE SMOOTH",
"941 519 OFFCURVE",
"1052 643 OFFCURVE",
"1207 643 CURVE SMOOTH",
"1296 643 OFFCURVE",
"1360 608 OFFCURVE",
"1399 537 CURVE",
"1463 585 LINE",
"1411 674 OFFCURVE",
"1325 720 OFFCURVE",
"1211 720 CURVE SMOOTH",
"1004 720 OFFCURVE",
"857 566 OFFCURVE",
"857 342 CURVE SMOOTH",
"857 123 OFFCURVE",
"976 -8 OFFCURVE",
"1174 -8 CURVE SMOOTH",
"1287 -8 OFFCURVE",
"1364 32 OFFCURVE",
"1410 117 CURVE",
"1391 117 LINE",
"1404 0 LINE",
"1469 0 LINE",
"1469 347 LINE",
"1218 347 LINE"
);
},
{
closed = 1;
nodes = (
"587 184 LINE",
"546 108 OFFCURVE",
"476 69 OFFCURVE",
"384 69 CURVE SMOOTH",
"232 69 OFFCURVE",
"142 169 OFFCURVE",
"142 342 CURVE SMOOTH",
"142 521 OFFCURVE",
"248 643 OFFCURVE",
"399 643 CURVE SMOOTH",
"484 643 OFFCURVE",
"547 609 OFFCURVE",
"587 537 CURVE",
"651 585 LINE",
"599 674 OFFCURVE",
"513 720 OFFCURVE",
"401 720 CURVE SMOOTH",
"197 720 OFFCURVE",
"57 566 OFFCURVE",
"57 342 CURVE SMOOTH",
"57 124 OFFCURVE",
"181 -8 OFFCURVE",
"384 -8 CURVE SMOOTH",
"502 -8 OFFCURVE",
"598 43 OFFCURVE",
"650 136 CURVE"
);
}
);
};
guideLines = (
{
angle = 90;
position = "{744, 356}";
},
{
angle = 90;
position = "{807, 356}";
}
);
layerId = "A3B50665-EA37-4AC6-885C-1233CA61B6BD";
paths = (
{
closed = 1;
nodes = (
"418 279 LINE",
"614 279 LINE",
"590 324 LINE",
"590 248 LINE SMOOTH",
"590 136 OFFCURVE",
"507 68 OFFCURVE",
"380 68 CURVE SMOOTH",
"232 68 OFFCURVE",
"142 166 OFFCURVE",
"142 342 CURVE SMOOTH",
"142 521 OFFCURVE",
"248 643 OFFCURVE",
"407 643 CURVE SMOOTH",
"496 643 OFFCURVE",
"560 608 OFFCURVE",
"599 537 CURVE",
"663 585 LINE",
"611 674 OFFCURVE",
"525 720 OFFCURVE",
"411 720 CURVE SMOOTH",
"197 720 OFFCURVE",
"57 566 OFFCURVE",
"57 342 CURVE SMOOTH",
"57 123 OFFCURVE",
"181 -8 OFFCURVE",
"374 -8 CURVE SMOOTH",
"487 -8 OFFCURVE",
"564 32 OFFCURVE",
"610 117 CURVE",
"592 117 LINE",
"605 0 LINE",
"669 0 LINE",
"669 347 LINE",
"418 347 LINE"
);
}
);
width = 730;
},
{
anchors = (
{
name = bottom;
position = "{392, 0}";
},
{
name = top;
position = "{392, 710}";
}
);
background = {
anchors = (
{
name = bottom;
position = "{1198, 0}";
},
{
name = top;
position = "{1198, 710}";
}
);
paths = (
{
closed = 1;
nodes = (
"1220 256 LINE",
"1398 256 LINE",
"1369 335 LINE",
"1368 264 LINE SMOOTH",
"1367 173 OFFCURVE",
"1275 131 OFFCURVE",
"1199 131 CURVE SMOOTH",
"1068 131 OFFCURVE",
"1000 208 OFFCURVE",
"1000 344 CURVE SMOOTH",
"1000 487 OFFCURVE",
"1091 579 OFFCURVE",
"1230 579 CURVE SMOOTH",
"1296 579 OFFCURVE",
"1360 552 OFFCURVE",
"1394 491 CURVE",
"1511 578 LINE",
"1449 673 OFFCURVE",
"1360 720 OFFCURVE",
"1231 720 CURVE SMOOTH",
"998 720 OFFCURVE",
"838 569 OFFCURVE",
"838 341 CURVE SMOOTH",
"838 122 OFFCURVE",
"963 -10 OFFCURVE",
"1181 -10 CURVE SMOOTH",
"1272 -10 OFFCURVE",
"1361 24 OFFCURVE",
"1402 95 CURVE",
"1380 95 LINE",
"1395 0 LINE",
"1518 0 LINE",
"1518 382 LINE",
"1220 382 LINE"
);
},
{
closed = 1;
nodes = (
"573 231 LINE",
"535 163 OFFCURVE",
"468 131 OFFCURVE",
"401 131 CURVE SMOOTH",
"275 131 OFFCURVE",
"200 208 OFFCURVE",
"200 344 CURVE SMOOTH",
"200 484 OFFCURVE",
"288 579 OFFCURVE",
"413 579 CURVE SMOOTH",
"476 579 OFFCURVE",
"537 552 OFFCURVE",
"571 489 CURVE",
"689 576 LINE",
"627 673 OFFCURVE",
"541 720 OFFCURVE",
"414 720 CURVE SMOOTH",
"191 720 OFFCURVE",
"38 566 OFFCURVE",
"38 341 CURVE SMOOTH",
"38 122 OFFCURVE",
"172 -10 OFFCURVE",
"399 -10 CURVE SMOOTH",
"523 -10 OFFCURVE",
"630 43 OFFCURVE",
"688 139 CURVE"
);
}
);
};
layerId = "014D4A40-7C7F-4023-B30E-1F55CE5EA091";
paths = (
{
closed = 1;
nodes = (
"420 256 LINE",
"598 256 LINE",
"568 335 LINE",
"568 264 LINE SMOOTH",
"568 173 OFFCURVE",
"475 130 OFFCURVE",
"399 130 CURVE SMOOTH",
"275 130 OFFCURVE",
"200 208 OFFCURVE",
"200 344 CURVE SMOOTH",
"200 484 OFFCURVE",
"288 579 OFFCURVE",
"430 579 CURVE SMOOTH",
"496 579 OFFCURVE",
"560 552 OFFCURVE",
"594 491 CURVE",
"713 578 LINE",
"651 673 OFFCURVE",
"562 720 OFFCURVE",
"431 720 CURVE SMOOTH",
"191 720 OFFCURVE",
"38 566 OFFCURVE",
"38 341 CURVE SMOOTH",
"38 122 OFFCURVE",
"172 -10 OFFCURVE",
"381 -10 CURVE SMOOTH",
"472 -10 OFFCURVE",
"557 17 OFFCURVE",
"602 93 CURVE",
"579 95 LINE",
"595 0 LINE",
"718 0 LINE",
"718 382 LINE",
"420 382 LINE"
);
}
);
width = 764;
},
{
anchors = (
{
name = bottom;
position = "{382, 0}";
},
{
name = top;
position = "{382, 710}";
}
);
background = {
anchors = (
{
name = bottom;
position = "{382, 0}";
},
{
name = top;
position = "{382, 710}";
}
);
paths = (
{
closed = 1;
nodes = (
"417 295 LINE",
"625 295 LINE",
"606 316 LINE",
"606 237 LINE SMOOTH",
"606 110 OFFCURVE",
"530 24 OFFCURVE",
"366 24 CURVE SMOOTH",
"201 24 OFFCURVE",
"101 136 OFFCURVE",
"101 341 CURVE SMOOTH",
"101 547 OFFCURVE",
"220 689 OFFCURVE",
"391 689 CURVE SMOOTH",
"496 689 OFFCURVE",
"560 648 OFFCURVE",
"603 570 CURVE",
"627 590 LINE",
"583 675 OFFCURVE",
"499 720 OFFCURVE",
"397 720 CURVE SMOOTH",
"201 720 OFFCURVE",
"71 566 OFFCURVE",
"71 343 CURVE SMOOTH",
"71 124 OFFCURVE",
"187 -7 OFFCURVE",
"369 -7 CURVE SMOOTH",
"498 -7 OFFCURVE",
"569 43 OFFCURVE",
"616 134 CURVE",
"601 133 LINE",
"612 0 LINE",
"634 0 LINE",
"634 322 LINE",
"417 322 LINE"
);
}
);
};
layerId = "7F092816-09A2-4631-A7F8-AD4571964C60";
paths = (
{
closed = 1;
nodes = (
"417 295 LINE",
"620 295 LINE",
"605 309 LINE",
"605 243 LINE SMOOTH",
"605 110 OFFCURVE",
"530 24 OFFCURVE",
"378 24 CURVE SMOOTH",
"201 24 OFFCURVE",
"103 136 OFFCURVE",
"103 341 CURVE SMOOTH",
"103 547 OFFCURVE",
"220 689 OFFCURVE",
"391 689 CURVE SMOOTH",
"496 689 OFFCURVE",
"560 648 OFFCURVE",
"603 570 CURVE",
"627 590 LINE",
"583 675 OFFCURVE",
"499 720 OFFCURVE",
"397 720 CURVE SMOOTH",
"201 720 OFFCURVE",
"71 566 OFFCURVE",
"71 343 CURVE SMOOTH",
"71 122 OFFCURVE",
"187 -7 OFFCURVE",
"376 -7 CURVE SMOOTH",
"498 -7 OFFCURVE",
"573 43 OFFCURVE",
"616 142 CURVE",
"604 137 LINE",
"612 0 LINE",
"634 0 LINE",
"634 322 LINE",
"417 322 LINE"
);
}
);
width = 705.78788;
},
{
anchors = (
{
name = bottom;
position = "{395, 0}";
},
{
name = top;
position = "{395, 710}";
}
);
background = {
anchors = (
{
name = bottom;
position = "{395, 0}";
},
{
name = top;
position = "{395, 710}";
}
);
paths = (
{
closed = 1;
nodes = (
"421 242 LINE",
"589 242 LINE",
"555 341 LINE",
"555 273 LINE SMOOTH",
"555 195 OFFCURVE",
"456 167 OFFCURVE",
"410 167 CURVE SMOOTH",
"300 167 OFFCURVE",
"235 233 OFFCURVE",
"235 345 CURVE SMOOTH",
"235 462 OFFCURVE",
"311 541 OFFCURVE",
"444 541 CURVE SMOOTH",
"496 541 OFFCURVE",
"560 519 OFFCURVE",
"591 464 CURVE",
"743 574 LINE",
"674 672 OFFCURVE",
"584 720 OFFCURVE",
"443 720 CURVE SMOOTH",
"188 720 OFFCURVE",
"27 566 OFFCURVE",
"27 340 CURVE SMOOTH",
"27 121 OFFCURVE",
"167 -11 OFFCURVE",
"385 -11 CURVE SMOOTH",
"463 -11 OFFCURVE",
"553 8 OFFCURVE",
"598 79 CURVE",
"571 82 LINE",
"589 0 LINE",
"747 0 LINE",
"747 403 LINE",
"421 403 LINE"
);
}
);
};
layerId = "A0850C2E-74F0-4B2E-AE90-CE9FC07F2CBD";
paths = (
{
closed = 1;
nodes = (
"421 242 LINE",
"589 242 LINE",
"555 341 LINE",
"555 283 LINE SMOOTH",
"555 210 OFFCURVE",
"488 167 OFFCURVE",
"410 167 CURVE SMOOTH",
"300 167 OFFCURVE",
"235 233 OFFCURVE",
"235 345 CURVE SMOOTH",
"235 462 OFFCURVE",
"311 541 OFFCURVE",
"434 541 CURVE SMOOTH",
"496 541 OFFCURVE",
"560 519 OFFCURVE",
"591 464 CURVE",
"743 574 LINE",
"678 672 OFFCURVE",
"584 720 OFFCURVE",
"433 720 CURVE SMOOTH",
"188 720 OFFCURVE",
"27 566 OFFCURVE",
"27 340 CURVE SMOOTH",
"27 121 OFFCURVE",
"167 -11 OFFCURVE",
"385 -11 CURVE SMOOTH",
"480 -11 OFFCURVE",
"569 26 OFFCURVE",
"598 99 CURVE",
"571 82 LINE",
"589 0 LINE",
"747 0 LINE",
"747 403 LINE",
"421 403 LINE"
);
}
);
width = 784.09091;
}
);
leftKerningGroup = O;
leftMetricsKey = O;
rightKerningGroup = G;
unicode = 0047;
},
{
glyphname = H;
lastChange = "2019-05-08 20:29:10 +0000";
layers = (
{
anchors = (
{
name = bottom;
position = "{360, 0}";
},
{
name = center;
position = "{360, 570}";
},
{
name = top;
position = "{360, 710}";
},
{
name = topleft;
position = "{7, 710}";
}
);
background = {
anchors = (
{
name = bottom;
position = "{360, 0}";
},
{
name = center;
position = "{360, 570}";
},
{
name = top;
position = "{360, 710}";
},
{
name = topleft;
position = "{7, 710}";
}
);
paths = (
{
closed = 1;
nodes = (
"639 0 LINE",
"639 710 LINE",
"556 710 LINE",
"556 0 LINE"
);
},
{
closed = 1;
nodes = (
"164 0 LINE",
"164 710 LINE",
"81 710 LINE",
"81 0 LINE"
);
},
{
closed = 1;
nodes = (
"605 324 LINE",
"605 396 LINE",
"124 396 LINE",
"124 324 LINE"
);
}
);
};
layerId = "A3B50665-EA37-4AC6-885C-1233CA61B6BD";
paths = (
{
closed = 1;
nodes = (
"639 0 LINE",
"639 710 LINE",
"556 710 LINE",
"556 0 LINE"
);
},
{
closed = 1;
nodes = (
"164 0 LINE",
"164 710 LINE",
"81 710 LINE",
"81 0 LINE"
);
},
{
closed = 1;
nodes = (
"605 324 LINE",
"605 397 LINE",
"124 397 LINE",
"124 324 LINE"
);
}
);
width = 720;
},
{
anchors = (
{
name = bottom;
position = "{377, 0}";
},
{
name = center;
position = "{377, 570}";
},
{
name = top;
position = "{377, 710}";
},
{
name = topleft;
position = "{12, 710}";
}
);
background = {
anchors = (
{
name = bottom;
position = "{377, 0}";
},
{
name = center;
position = "{377, 570}";
},
{
name = top;
position = "{377, 710}";
},
{
name = topleft;
position = "{12, 710}";
}
);
paths = (
{
closed = 1;
nodes = (
"686 0 LINE",
"686 710 LINE",
"530 710 LINE",
"530 0 LINE"
);
},
{
closed = 1;
nodes = (
"224 0 LINE",
"224 710 LINE",
"68 710 LINE",
"68 0 LINE"
);
},
{
closed = 1;
nodes = (
"626 290 LINE",
"626 426 LINE",
"136 426 LINE",
"136 290 LINE"
);
}
);
};
layerId = "014D4A40-7C7F-4023-B30E-1F55CE5EA091";
paths = (
{
closed = 1;
nodes = (
"686 0 LINE",
"686 710 LINE",
"530 710 LINE",
"530 0 LINE"
);
},
{
closed = 1;
nodes = (
"224 0 LINE",
"224 710 LINE",
"68 710 LINE",
"68 0 LINE"
);
},
{
closed = 1;
nodes = (
"626 290 LINE",
"626 426 LINE",
"136 426 LINE",
"136 290 LINE"
);
}
);
width = 754;
},
{
anchors = (
{
name = bottom;
position = "{348, 0}";
},
{
name = center;
position = "{348, 570}";
},
{
name = top;
position = "{348, 710}";
},
{
name = topleft;
position = "{3, 710}";
}
);
background = {
anchors = (
{
name = bottom;
position = "{348, 0}";
},
{
name = center;
position = "{348, 570}";
},
{
name = top;
position = "{348, 710}";
},
{
name = topleft;
position = "{3, 710}";
}
);
paths = (
{
closed = 1;
nodes = (
"606 0 LINE",
"606 710 LINE",
"575 710 LINE",
"575 0 LINE"
);
},
{
closed = 1;
nodes = (
"121 0 LINE",
"121 710 LINE",
"90 710 LINE",
"90 0 LINE"
);
},
{
closed = 1;
nodes = (
"590 348 LINE",
"590 376 LINE",
"115 376 LINE",
"115 348 LINE"
);
}
);
};
layerId = "7F092816-09A2-4631-A7F8-AD4571964C60";
paths = (
{
closed = 1;
nodes = (
"606 0 LINE",
"606 710 LINE",
"575 710 LINE",
"575 0 LINE"
);
},
{
closed = 1;
nodes = (
"121 0 LINE",
"121 710 LINE",
"90 710 LINE",
"90 0 LINE"
);
},
{
closed = 1;
nodes = (
"590 348 LINE",
"590 376 LINE",
"115 376 LINE",
"115 348 LINE"
);
}
);
width = 695.78788;
},
{
anchors = (
{
name = bottom;
position = "{387, 0}";
},
{
name = center;
position = "{387, 570}";
},
{
name = top;
position = "{387, 710}";
},
{
name = topleft;
position = "{15, 710}";
}
);
background = {
anchors = (
{
name = bottom;
position = "{387, 0}";
},
{
name = center;
position = "{387, 570}";
},
{
name = top;
position = "{387, 710}";
},
{
name = topleft;
position = "{15, 710}";
}
);
paths = (
{
closed = 1;
nodes = (
"714 0 LINE",
"714 710 LINE",
"514 710 LINE",
"514 0 LINE"
);
},
{
closed = 1;
nodes = (
"260 0 LINE",
"260 710 LINE",
"60 710 LINE",
"60 0 LINE"
);
},
{
closed = 1;
nodes = (
"639 270 LINE",
"639 443 LINE",
"143 443 LINE",
"143 270 LINE"
);
}
);
};
layerId = "A0850C2E-74F0-4B2E-AE90-CE9FC07F2CBD";
paths = (
{
closed = 1;
nodes = (
"714 0 LINE",
"714 710 LINE",
"514 710 LINE",
"514 0 LINE"
);
},
{
closed = 1;
nodes = (
"260 0 LINE",
"260 710 LINE",
"60 710 LINE",
"60 0 LINE"
);
},
{
closed = 1;
nodes = (
"639 270 LINE",
"639 443 LINE",
"143 443 LINE",
"143 270 LINE"
);
}
);
width = 774.09091;
}
);
leftKerningGroup = H;
rightKerningGroup = H;
rightMetricsKey = "=|";
unicode = 0048;
},
{
glyphname = I;
lastChange = "2019-05-08 20:29:10 +0000";
layers = (
{
anchors = (
{
name = bottom;
position = "{123, 0}";
},
{
name = ogonek;
position = "{164, 0}";
},
{
name = top;
position = "{123, 710}";
},
{
name = topleft;
position = "{7, 710}";
}
);
background = {
anchors = (
{
name = bottom;
position = "{123, 0}";
},
{
name = ogonek;
position = "{164, 0}";
},
{
name = top;
position = "{123, 710}";
},
{
name = topleft;
position = "{7, 710}";
}
);
paths = (
{
closed = 1;
nodes = (
"164 0 LINE",
"164 710 LINE",
"81 710 LINE",
"81 0 LINE"
);
}
);
};
layerId = "A3B50665-EA37-4AC6-885C-1233CA61B6BD";
paths = (
{
closed = 1;
nodes = (
"164 0 LINE",
"164 710 LINE",
"81 710 LINE",
"81 0 LINE"
);
}
);
width = 245;
},
{
anchors = (
{
name = bottom;
position = "{146, 0}";
},
{
name = ogonek;
position = "{224, 0}";
},
{
name = top;
position = "{146, 710}";
},
{
name = topleft;
position = "{12, 710}";
}
);
background = {
anchors = (
{
name = bottom;
position = "{146, 0}";
},
{
name = ogonek;
position = "{224, 0}";
},
{
name = top;
position = "{146, 710}";
},
{
name = topleft;
position = "{12, 710}";
}
);
paths = (
{
closed = 1;
nodes = (
"224 0 LINE",
"224 710 LINE",
"68 710 LINE",
"68 0 LINE"
);
}
);
};
layerId = "014D4A40-7C7F-4023-B30E-1F55CE5EA091";
paths = (
{
closed = 1;
nodes = (
"224 0 LINE",
"224 710 LINE",
"68 710 LINE",
"68 0 LINE"
);
}
);
width = 292;
},
{
anchors = (
{
name = bottom;
position = "{106, 0}";
},
{
name = ogonek;
position = "{121, 0}";
},
{
name = top;
position = "{106, 710}";
},
{
name = topleft;
position = "{3, 710}";
}
);
background = {
anchors = (
{
name = bottom;
position = "{107, 0}";
},
{
name = ogonek;
position = "{121, 0}";
},
{
name = top;
position = "{107, 710}";
},
{
name = topleft;
position = "{3, 710}";
}
);
paths = (
{
closed = 1;
nodes = (
"121 0 LINE",
"121 710 LINE",
"90 710 LINE",
"90 0 LINE"
);
}
);
};
layerId = "7F092816-09A2-4631-A7F8-AD4571964C60";
paths = (
{
closed = 1;
nodes = (
"121 0 LINE",
"121 710 LINE",
"90 710 LINE",
"90 0 LINE"
);
}
);
width = 211;
},
{
anchors = (
{
name = bottom;
position = "{160, 0}";
},
{
name = ogonek;
position = "{260, 0}";
},
{
name = top;
position = "{160, 710}";
},
{
name = topleft;
position = "{15, 710}";
}
);
background = {
anchors = (
{
name = bottom;
position = "{160, 0}";
},
{
name = ogonek;
position = "{260, 0}";
},
{
name = top;
position = "{160, 710}";
},
{
name = topleft;
position = "{15, 710}";
}
);
paths = (
{
closed = 1;
nodes = (
"260 0 LINE",
"260 710 LINE",
"60 710 LINE",
"60 0 LINE"
);
}
);
};
layerId = "A0850C2E-74F0-4B2E-AE90-CE9FC07F2CBD";
paths = (
{
closed = 1;
nodes = (
"260 0 LINE",
"260 710 LINE",
"60 710 LINE",
"60 0 LINE"
);
}
);
width = 319.77273;
}
);
leftKerningGroup = H;
leftMetricsKey = H;
rightKerningGroup = H;
rightMetricsKey = H;
unicode = 0049;
},
{
glyphname = I_J.loclNLD;
lastChange = "2019-05-08 20:29:10 +0000";
layers = (
{
anchors = (
{
name = top_1;
position = "{123, 710}";
},
{
name = top_2;
position = "{521, 710}";
}
);
background = {
anchors = (
{
name = top_1;
position = "{123, 710}";
},
{
name = top_2;
position = "{521, 710}";
}
);
paths = (
{
closed = 1;
nodes = (
"483 -8 OFFCURVE",
"562 98 OFFCURVE",
"562 259 CURVE SMOOTH",
"562 710 LINE",
"479 710 LINE",
"479 255 LINE SMOOTH",
"479 139 OFFCURVE",
"431 65 OFFCURVE",
"317 65 CURVE SMOOTH",
"224 65 OFFCURVE",
"166 104 OFFCURVE",
"140 179 CURVE",
"72 149 LINE",
"96 55 OFFCURVE",
"188 -8 OFFCURVE",
"313 -8 CURVE SMOOTH"
);
},
{
closed = 1;
nodes = (
"164 310 LINE",
"164 710 LINE",
"81 710 LINE",
"81 310 LINE"
);
}
);
};
layerId = "A3B50665-EA37-4AC6-885C-1233CA61B6BD";
paths = (
{
closed = 1;
nodes = (
"483 -8 OFFCURVE",
"562 98 OFFCURVE",
"562 259 CURVE SMOOTH",
"562 710 LINE",
"479 710 LINE",
"479 255 LINE SMOOTH",
"479 139 OFFCURVE",
"431 65 OFFCURVE",
"316 65 CURVE SMOOTH",
"224 65 OFFCURVE",
"166 104 OFFCURVE",
"140 179 CURVE",
"72 149 LINE",
"96 55 OFFCURVE",
"188 -8 OFFCURVE",
"314 -8 CURVE SMOOTH"
);
},
{
closed = 1;
nodes = (
"164 310 LINE",
"164 710 LINE",
"81 710 LINE",
"81 310 LINE"
);
}
);
width = 640;
},
{
anchors = (
{
name = top_1;
position = "{146, 710}";
},
{
name = top_2;
position = "{536, 710}";
}
);
background = {
anchors = (
{
name = top_1;
position = "{146, 710}";
},
{
name = top_2;
position = "{536, 710}";
}
);
paths = (
{
closed = 1;
nodes = (
"511 -10 OFFCURVE",
"614 97 OFFCURVE",
"614 278 CURVE SMOOTH",
"614 710 LINE",
"458 710 LINE",
"458 261 LINE SMOOTH",
"458 177 OFFCURVE",
"412 127 OFFCURVE",
"336 127 CURVE SMOOTH",
"269 127 OFFCURVE",
"226 150 OFFCURVE",
"194 212 CURVE",
"67 155 LINE",
"104 46 OFFCURVE",
"201 -10 OFFCURVE",
"336 -10 CURVE SMOOTH"
);
},
{
closed = 1;
nodes = (
"224 310 LINE",
"224 710 LINE",
"68 710 LINE",
"68 310 LINE"
);
}
);
};
layerId = "014D4A40-7C7F-4023-B30E-1F55CE5EA091";
paths = (
{
closed = 1;
nodes = (
"511 -10 OFFCURVE",
"614 97 OFFCURVE",
"614 278 CURVE SMOOTH",
"614 710 LINE",
"458 710 LINE",
"458 261 LINE SMOOTH",
"458 177 OFFCURVE",
"412 127 OFFCURVE",
"335 127 CURVE SMOOTH",
"268 127 OFFCURVE",
"225 150 OFFCURVE",
"193 212 CURVE",
"65 155 LINE",
"103 46 OFFCURVE",
"199 -10 OFFCURVE",
"335 -10 CURVE SMOOTH"
);
},
{
closed = 1;
nodes = (
"224 310 LINE",
"224 710 LINE",
"68 710 LINE",
"68 310 LINE"
);
}
);
width = 679;
},
{
anchors = (
{
name = top_1;
position = "{107, 710}";
},
{
name = top_2;
position = "{510, 710}";
}
);
background = {
anchors = (
{
name = top_1;
position = "{107, 710}";
},
{
name = top_2;
position = "{510, 710}";
}
);
paths = (
{
closed = 1;
nodes = (
"463 -7 OFFCURVE",
"525 99 OFFCURVE",
"525 245 CURVE SMOOTH",
"525 710 LINE",
"494 710 LINE",
"494 251 LINE SMOOTH",
"494 112 OFFCURVE",
"445 21 OFFCURVE",
"302 21 CURVE SMOOTH",
"191 21 OFFCURVE",
"123 71 OFFCURVE",
"101 156 CURVE",
"76 145 LINE",
"90 61 OFFCURVE",
"179 -7 OFFCURVE",
"298 -7 CURVE SMOOTH"
);
},
{
closed = 1;
nodes = (
"121 310 LINE",
"121 710 LINE",
"90 710 LINE",
"90 310 LINE"
);
}
);
};
layerId = "7F092816-09A2-4631-A7F8-AD4571964C60";
paths = (
{
closed = 1;
nodes = (
"447 -7 OFFCURVE",
"525 80 OFFCURVE",
"525 251 CURVE SMOOTH",
"525 710 LINE",
"494 710 LINE",
"494 251 LINE SMOOTH",
"494 96 OFFCURVE",
"432 23 OFFCURVE",
"303 23 CURVE SMOOTH",
"191 23 OFFCURVE",
"126 71 OFFCURVE",
"102 156 CURVE",
"76 145 LINE",
"95 55 OFFCURVE",
"175 -7 OFFCURVE",
"303 -7 CURVE SMOOTH"
);
},
{
closed = 1;
nodes = (
"121 310 LINE",
"121 710 LINE",
"90 710 LINE",
"90 310 LINE"
);
}
);
width = 612.22727;
},
{
anchors = (
{
name = top_1;
position = "{160, 710}";
},
{
name = top_2;
position = "{545, 710}";
}
);
background = {
anchors = (
{
name = top_1;
position = "{160, 710}";
},
{
name = top_2;
position = "{545, 710}";
}
);
paths = (
{
closed = 1;
nodes = (
"528 -11 OFFCURVE",
"645 96 OFFCURVE",
"645 289 CURVE SMOOTH",
"645 710 LINE",
"445 710 LINE",
"445 264 LINE SMOOTH",
"445 199 OFFCURVE",
"401 164 OFFCURVE",
"348 164 CURVE SMOOTH",
"297 164 OFFCURVE",
"263 177 OFFCURVE",
"228 231 CURVE",
"64 158 LINE",
"108 41 OFFCURVE",
"209 -11 OFFCURVE",
"349 -11 CURVE SMOOTH"
);
},
{
closed = 1;
nodes = (
"260 310 LINE",
"260 710 LINE",
"60 710 LINE",
"60 310 LINE"
);
}
);
};
layerId = "A0850C2E-74F0-4B2E-AE90-CE9FC07F2CBD";
paths = (
{
closed = 1;
nodes = (
"534 -11 OFFCURVE",
"645 102 OFFCURVE",
"645 289 CURVE SMOOTH",
"645 710 LINE",
"445 710 LINE",
"445 264 LINE SMOOTH",
"445 204 OFFCURVE",
"406 164 OFFCURVE",
"347 164 CURVE SMOOTH",
"290 164 OFFCURVE",
"258 182 OFFCURVE",
"230 231 CURVE",
"58 158 LINE",
"101 46 OFFCURVE",
"200 -11 OFFCURVE",
"348 -11 CURVE SMOOTH"
);
},
{
closed = 1;
nodes = (
"260 310 LINE",
"260 710 LINE",
"60 710 LINE",
"60 310 LINE"
);
}
);
width = 702;
}
);
leftKerningGroup = U;
rightKerningGroup = U;
rightMetricsKey = U;
},
{
glyphname = J;
lastChange = "2019-05-08 20:29:10 +0000";
layers = (
{
anchors = (
{
name = bottom;
position = "{224, 0}";
},
{
name = top;
position = "{331, 710}";
}
);
background = {
anchors = (
{
name = bottom;
position = "{224, 0}";
},
{
name = top;
position = "{331, 710}";
}
);
paths = (
{
closed = 1;
nodes = (
"309 -8 OFFCURVE",
"372 68 OFFCURVE",
"372 209 CURVE SMOOTH",
"372 710 LINE",
"289 710 LINE",
"289 205 LINE SMOOTH",
"289 109 OFFCURVE",
"255 65 OFFCURVE",
"180 65 CURVE SMOOTH",
"112 65 OFFCURVE",
"71 94 OFFCURVE",
"50 159 CURVE",
"-18 129 LINE",
"2 45 OFFCURVE",
"77 -8 OFFCURVE",
"177 -8 CURVE SMOOTH"
);
}
);
};
layerId = "A3B50665-EA37-4AC6-885C-1233CA61B6BD";
paths = (
{
closed = 1;
nodes = (
"309 -8 OFFCURVE",
"372 68 OFFCURVE",
"372 209 CURVE SMOOTH",
"372 710 LINE",
"289 710 LINE",
"289 205 LINE SMOOTH",
"289 109 OFFCURVE",
"255 65 OFFCURVE",
"180 65 CURVE SMOOTH",
"112 65 OFFCURVE",
"71 94 OFFCURVE",
"50 159 CURVE",
"-18 129 LINE",
"2 45 OFFCURVE",
"77 -8 OFFCURVE",
"177 -8 CURVE SMOOTH"
);
}
);
width = 451;
},
{
anchors = (
{
name = bottom;
position = "{247, 0}";
},
{
name = top;
position = "{352, 710}";
}
);
background = {
anchors = (
{
name = bottom;
position = "{247, 0}";
},
{
name = top;
position = "{352, 710}";
}
);
paths = (
{
closed = 1;
nodes = (
"347 -10 OFFCURVE",
"430 81 OFFCURVE",
"430 238 CURVE SMOOTH",
"430 710 LINE",
"274 710 LINE",
"274 221 LINE SMOOTH",
"274 157 OFFCURVE",
"245 127 OFFCURVE",
"196 127 CURVE SMOOTH",
"148 127 OFFCURVE",
"120 152 OFFCURVE",
"100 202 CURVE",
"-27 145 LINE",
"2 44 OFFCURVE",
"85 -10 OFFCURVE",
"198 -10 CURVE SMOOTH"
);
}
);
};
layerId = "014D4A40-7C7F-4023-B30E-1F55CE5EA091";
paths = (
{
closed = 1;
nodes = (
"347 -10 OFFCURVE",
"430 81 OFFCURVE",
"430 238 CURVE SMOOTH",
"430 710 LINE",
"274 710 LINE",
"274 221 LINE SMOOTH",
"274 157 OFFCURVE",
"245 127 OFFCURVE",
"196 127 CURVE SMOOTH",
"148 127 OFFCURVE",
"120 152 OFFCURVE",
"100 202 CURVE",
"-27 145 LINE",
"2 44 OFFCURVE",
"87 -10 OFFCURVE",
"198 -10 CURVE SMOOTH"
);
}
);
width = 496;
},
{
anchors = (
{
name = bottom;
position = "{208, 0}";
},
{
name = top;
position = "{316, 710}";
}
);
background = {
anchors = (
{
name = bottom;
position = "{208, 0}";
},
{
name = top;
position = "{316, 710}";
}
);
paths = (
{
closed = 1;
nodes = (
"282 -7 OFFCURVE",
"331 59 OFFCURVE",
"331 188 CURVE SMOOTH",
"331 710 LINE",
"300 710 LINE",
"300 194 LINE SMOOTH",
"300 75 OFFCURVE",
"262 21 OFFCURVE",
"169 21 CURVE SMOOTH",
"86 21 OFFCURVE",
"36 53 OFFCURVE",
"14 128 CURVE",
"-12 118 LINE",
"2 46 OFFCURVE",
"70 -7 OFFCURVE",
"162 -7 CURVE SMOOTH"
);
}
);
};
layerId = "7F092816-09A2-4631-A7F8-AD4571964C60";
paths = (
{
closed = 1;
nodes = (
"277 -7 OFFCURVE",
"331 56 OFFCURVE",
"331 203 CURVE SMOOTH",
"331 710 LINE",
"300 710 LINE",
"300 201 LINE SMOOTH",
"300 73 OFFCURVE",
"261 23 OFFCURVE",
"167 23 CURVE SMOOTH",
"86 23 OFFCURVE",
"37 53 OFFCURVE",
"16 128 CURVE",
"-12 118 LINE",
"6 43 OFFCURVE",
"65 -7 OFFCURVE",
"166 -7 CURVE SMOOTH"
);
}
);
width = 418.95455;
},
{
anchors = (
{
name = bottom;
position = "{261, 0}";
},
{
name = top;
position = "{365, 710}";
}
);
background = {
anchors = (
{
name = bottom;
position = "{261, 0}";
},
{
name = top;
position = "{365, 710}";
}
);
paths = (
{
closed = 1;
nodes = (
"369 -11 OFFCURVE",
"465 89 OFFCURVE",
"465 255 CURVE SMOOTH",
"465 710 LINE",
"265 710 LINE",
"265 230 LINE SMOOTH",
"265 185 OFFCURVE",
"239 164 OFFCURVE",
"205 164 CURVE SMOOTH",
"169 164 OFFCURVE",
"149 187 OFFCURVE",
"130 227 CURVE",
"-32 154 LINE",
"2 43 OFFCURVE",
"93 -11 OFFCURVE",
"211 -11 CURVE SMOOTH"
);
}
);
};
layerId = "A0850C2E-74F0-4B2E-AE90-CE9FC07F2CBD";
paths = (
{
closed = 1;
nodes = (
"369 -11 OFFCURVE",
"465 89 OFFCURVE",
"465 255 CURVE SMOOTH",
"465 710 LINE",
"265 710 LINE",
"265 230 LINE SMOOTH",
"265 189 OFFCURVE",
"242 164 OFFCURVE",
"205 164 CURVE SMOOTH",
"173 164 OFFCURVE",
"146 182 OFFCURVE",
"130 227 CURVE",
"-32 154 LINE",
"0 48 OFFCURVE",
"87 -11 OFFCURVE",
"211 -11 CURVE SMOOTH"
);
}
);
width = 522.59091;
}
);
leftKerningGroup = J;
rightKerningGroup = J;
unicode = 004A;
},
{
glyphname = K;
lastChange = "2019-05-08 20:29:10 +0000";
layers = (
{
anchors = (
{
name = bottom;
position = "{298, 0}";
},
{
name = top;
position = "{298, 710}";
}
);
background = {
anchors = (
{
name = bottom;
position = "{288, 0}";
},
{
name = top;
position = "{288, 710}";
}
);
paths = (
{
closed = 1;
nodes = (
"164 0 LINE",
"164 710 LINE",
"81 710 LINE",
"81 0 LINE"
);
},
{
closed = 1;
nodes = (
"570 82 LINE",
"554 72 OFFCURVE",
"536 66 OFFCURVE",
"516 66 CURVE SMOOTH",
"471 66 OFFCURVE",
"452 79 OFFCURVE",
"415 134 CURVE SMOOTH",
"309 293 LINE SMOOTH",
"275 344 OFFCURVE",
"230 370 OFFCURVE",
"185 370 CURVE",
"221 338 LINE",
"590 710 LINE",
"488 710 LINE",
"137 353 LINE",
"137 319 LINE",
"182 319 OFFCURVE",
"207 301 OFFCURVE",
"225 275 CURVE SMOOTH",
"355 83 LINE SMOOTH",
"399 18 OFFCURVE",
"445 -6 OFFCURVE",
"503 -6 CURVE SMOOTH",
"538 -6 OFFCURVE",
"567 2 OFFCURVE",
"588 18 CURVE"
);
}
);
};
guideLines = (
{
angle = 225.5093;
position = "{254, 483}";
}
);
layerId = "A3B50665-EA37-4AC6-885C-1233CA61B6BD";
paths = (
{
closed = 1;
nodes = (
"164 0 LINE",
"164 710 LINE",
"81 710 LINE",
"81 0 LINE"
);
},
{
closed = 1;
nodes = (
"570 82 LINE",
"554 72 OFFCURVE",
"536 66 OFFCURVE",
"516 66 CURVE SMOOTH",
"471 66 OFFCURVE",
"452 79 OFFCURVE",
"415 134 CURVE SMOOTH",
"309 293 LINE SMOOTH",
"275 344 OFFCURVE",
"230 370 OFFCURVE",
"185 370 CURVE",
"221 338 LINE",
"590 710 LINE",
"488 710 LINE",
"137 353 LINE",
"137 319 LINE",
"182 319 OFFCURVE",
"207 301 OFFCURVE",
"225 275 CURVE SMOOTH",
"355 83 LINE SMOOTH",
"399 18 OFFCURVE",
"445 -6 OFFCURVE",
"503 -6 CURVE SMOOTH",
"538 -6 OFFCURVE",
"567 2 OFFCURVE",
"588 18 CURVE"
);
}
);
width = 569;
},
{
anchors = (
{
name = bottom;
position = "{335, 0}";
},
{
name = top;
position = "{335, 710}";
}
);
background = {
anchors = (
{
name = bottom;
position = "{335, 0}";
},
{
name = top;
position = "{335, 710}";
}
);
paths = (
{
closed = 1;
nodes = (
"224 0 LINE",
"224 710 LINE",
"68 710 LINE",
"68 0 LINE"
);
},
{
closed = 1;
nodes = (
"659 146 LINE",
"638 132 OFFCURVE",
"616 127 OFFCURVE",
"591 127 CURVE SMOOTH",
"554 127 OFFCURVE",
"529 140 OFFCURVE",
"506 177 CURVE SMOOTH",
"440 283 LINE SMOOTH",
"407 336 OFFCURVE",
"359 372 OFFCURVE",
"297 372 CURVE",
"342 329 LINE",
"691 710 LINE",
"504 710 LINE",
"179 351 LINE",
"179 290 LINE",
"241 290 OFFCURVE",
"266 278 OFFCURVE",
"294 234 CURVE SMOOTH",
"383 93 LINE SMOOTH",
"425 26 OFFCURVE",
"489 -10 OFFCURVE",
"572 -10 CURVE SMOOTH",
"619 -10 OFFCURVE",
"667 4 OFFCURVE",
"695 26 CURVE"
);
}
);
};
guideLines = (
{
angle = 46.6112;
position = "{214, 445}";
}
);
layerId = "014D4A40-7C7F-4023-B30E-1F55CE5EA091";
paths = (
{
closed = 1;
nodes = (
"224 0 LINE",
"224 710 LINE",
"68 710 LINE",
"68 0 LINE"
);
},
{
closed = 1;
nodes = (
"659 146 LINE",
"638 132 OFFCURVE",
"616 127 OFFCURVE",
"591 127 CURVE SMOOTH",
"554 127 OFFCURVE",
"529 140 OFFCURVE",
"506 177 CURVE SMOOTH",
"440 283 LINE SMOOTH",
"407 336 OFFCURVE",
"357 373 OFFCURVE",
"295 373 CURVE",
"342 329 LINE",
"691 710 LINE",
"504 710 LINE",
"179 351 LINE",
"179 290 LINE",
"241 290 OFFCURVE",
"264 278 OFFCURVE",
"292 234 CURVE SMOOTH",
"381 93 LINE SMOOTH",
"423 26 OFFCURVE",
"489 -10 OFFCURVE",
"572 -10 CURVE SMOOTH",
"619 -10 OFFCURVE",
"667 4 OFFCURVE",
"695 26 CURVE"
);
}
);
width = 663;
},
{
anchors = (
{
name = bottom;
position = "{272, 0}";
},
{
name = top;
position = "{272, 710}";
}
);
background = {
anchors = (
{
name = bottom;
position = "{272, 0}";
},
{
name = top;
position = "{272, 710}";
}
);
paths = (
{
closed = 1;
nodes = (
"121 0 LINE",
"121 710 LINE",
"90 710 LINE",
"90 0 LINE"
);
},
{
closed = 1;
nodes = (
"507 36 LINE",
"494 29 OFFCURVE",
"479 23 OFFCURVE",
"463 23 CURVE SMOOTH",
"412 23 OFFCURVE",
"397 36 OFFCURVE",
"350 103 CURVE SMOOTH",
"216 300 LINE SMOOTH",
"181 350 OFFCURVE",
"140 368 OFFCURVE",
"107 368 CURVE",
"135 344 LINE",
"518 710 LINE",
"477 710 LINE",
"107 354 LINE",
"107 340 LINE",
"140 340 OFFCURVE",
"166 317 OFFCURVE",
"177 304 CURVE SMOOTH",
"336 76 LINE SMOOTH",
"382 12 OFFCURVE",
"414 -3 OFFCURVE",
"454 -3 CURVE SMOOTH",
"480 -3 OFFCURVE",
"496 1 OFFCURVE",
"512 12 CURVE"
);
}
);
};
layerId = "7F092816-09A2-4631-A7F8-AD4571964C60";
paths = (
{
closed = 1;
nodes = (
"121 0 LINE",
"121 710 LINE",
"90 710 LINE",
"90 0 LINE"
);
},
{
closed = 1;
nodes = (
"507 36 LINE",
"492 27 OFFCURVE",
"477 22 OFFCURVE",
"459 22 CURVE SMOOTH",
"422 22 OFFCURVE",
"397 35 OFFCURVE",
"354 98 CURVE SMOOTH",
"215 300 LINE SMOOTH",
"181 350 OFFCURVE",
"152 368 OFFCURVE",
"113 368 CURVE",
"135 344 LINE",
"518 710 LINE",
"477 710 LINE",
"107 355 LINE",
"107 340 LINE",
"138 340 OFFCURVE",
"161 329 OFFCURVE",
"183 297 CURVE SMOOTH",
"335 76 LINE SMOOTH",
"376 17 OFFCURVE",
"409 -3 OFFCURVE",
"457 -3 CURVE SMOOTH",
"480 -3 OFFCURVE",
"499 2 OFFCURVE",
"515 13 CURVE"
);
}
);
width = 502.06061;
},
{
anchors = (
{
name = bottom;
position = "{356.999, 0}";
},
{
name = top;
position = "{356.999, 710}";
}
);
background = {
anchors = (
{
name = bottom;
position = "{356.999, 0}";
},
{
name = top;
position = "{356.999, 710}";
}
);
paths = (
{
closed = 1;
nodes = (
"260 0 LINE",
"260 710 LINE",
"60 710 LINE",
"60 0 LINE"
);
},
{
closed = 1;
nodes = (
"712 184 LINE",
"688 168 OFFCURVE",
"663 163 OFFCURVE",
"635 163 CURVE SMOOTH",
"603 163 OFFCURVE",
"574 176 OFFCURVE",
"560 202 CURVE SMOOTH",
"517 277 LINE SMOOTH",
"485 332 OFFCURVE",
"432 375 OFFCURVE",
"360 375 CURVE",
"414 324 LINE",
"751 710 LINE",
"513 710 LINE",
"204 350 LINE",
"204 273 LINE",
"276 273 OFFCURVE",
"298 264 OFFCURVE",
"332 210 CURVE SMOOTH",
"397 99 LINE SMOOTH",
"437 30 OFFCURVE",
"515 -12 OFFCURVE",
"613 -12 CURVE SMOOTH",
"667 -12 OFFCURVE",
"726 5 OFFCURVE",
"758 30 CURVE"
);
}
);
};
layerId = "A0850C2E-74F0-4B2E-AE90-CE9FC07F2CBD";
paths = (
{
closed = 1;
nodes = (
"260 0 LINE",
"260 710 LINE",
"60 710 LINE",
"60 0 LINE"
);
},
{
closed = 1;
nodes = (
"712 184 LINE",
"689 170 OFFCURVE",
"665 163 OFFCURVE",
"635 163 CURVE SMOOTH",
"599 163 OFFCURVE",
"574 178 OFFCURVE",
"556 210 CURVE SMOOTH",
"517 277 LINE SMOOTH",
"485 332 OFFCURVE",
"432 375 OFFCURVE",
"360 375 CURVE",
"414 324 LINE",
"751 710 LINE",
"513 710 LINE",
"204 350 LINE",
"204 273 LINE",
"280 273 OFFCURVE",
"302 262 OFFCURVE",
"332 210 CURVE SMOOTH",
"397 99 LINE SMOOTH",
"440 25 OFFCURVE",
"512 -12 OFFCURVE",
"613 -12 CURVE SMOOTH",
"667 -12 OFFCURVE",
"726 5 OFFCURVE",
"758 30 CURVE"
);
}
);
width = 718.54545;
}
);
leftKerningGroup = H;
leftMetricsKey = H;
rightKerningGroup = K;
unicode = 004B;
},
{
glyphname = L;
lastChange = "2019-05-08 20:29:10 +0000";
layers = (
{
anchors = (
{
name = bottom;
position = "{284, 0}";
},
{
name = center;
position = "{123, 355}";
},
{
name = dotacc;
position = "{383, 401}";
},
{
name = top;
position = "{123, 710}";
},
{
name = topright;
position = "{264, 710}";
}
);
background = {
anchors = (
{
name = bottom;
position = "{284, 0}";
},
{
name = center;
position = "{123, 355}";
},
{
name = dotacc;
position = "{383, 401}";
},
{
name = top;
position = "{123, 710}";
},
{
name = topright;
position = "{264, 710}";
}
);
paths = (
{
closed = 1;
nodes = (
"487 0 LINE",
"497 72 LINE",
"164 72 LINE",
"164 710 LINE",
"81 710 LINE",
"81 0 LINE"
);
}
);
};
layerId = "A3B50665-EA37-4AC6-885C-1233CA61B6BD";
paths = (
{
closed = 1;
nodes = (
"487 0 LINE",
"494 72 LINE",
"164 72 LINE",
"164 710 LINE",
"81 710 LINE",
"81 0 LINE"
);
}
);
width = 487;
},
{
anchors = (
{
name = bottom;
position = "{296, 0}";
},
{
name = center;
position = "{146, 375}";
},
{
name = dotacc;
position = "{429, 433}";
},
{
name = top;
position = "{146, 710}";
},
{
name = topright;
position = "{324, 710}";
}
);
background = {
anchors = (
{
name = bottom;
position = "{296, 0}";
},
{
name = center;
position = "{146, 375}";
},
{
name = dotacc;
position = "{429, 433}";
},
{
name = top;
position = "{146, 710}";
},
{
name = topright;
position = "{324, 710}";
}
);
paths = (
{
closed = 1;
nodes = (
"523 0 LINE",
"533 136 LINE",
"224 136 LINE",
"224 710 LINE",
"68 710 LINE",
"68 0 LINE"
);
}
);
};
layerId = "014D4A40-7C7F-4023-B30E-1F55CE5EA091";
paths = (
{
closed = 1;
nodes = (
"523 0 LINE",
"533 136 LINE",
"224 136 LINE",
"224 710 LINE",
"68 710 LINE",
"68 0 LINE"
);
}
);
width = 528;
},
{
anchors = (
{
name = bottom;
position = "{275, 0}";
},
{
name = center;
position = "{107, 341}";
},
{
name = dotacc;
position = "{350, 378}";
},
{
name = top;
position = "{107, 710}";
},
{
name = topright;
position = "{221, 710}";
}
);
background = {
anchors = (
{
name = bottom;
position = "{275, 0}";
},
{
name = center;
position = "{107, 341}";
},
{
name = dotacc;
position = "{350, 378}";
},
{
name = top;
position = "{107, 710}";
},
{
name = topright;
position = "{221, 710}";
}
);
paths = (
{
closed = 1;
nodes = (
"461 0 LINE",
"466 26 LINE",
"121 26 LINE",
"121 710 LINE",
"90 710 LINE",
"90 0 LINE"
);
}
);
};
layerId = "7F092816-09A2-4631-A7F8-AD4571964C60";
paths = (
{
closed = 1;
nodes = (
"461 0 LINE",
"466 27 LINE",
"121 27 LINE",
"121 710 LINE",
"90 710 LINE",
"90 0 LINE"
);
}
);
width = 457.80303;
},
{
anchors = (
{
name = bottom;
position = "{303, 0}";
},
{
name = center;
position = "{160, 387}";
},
{
name = dotacc;
position = "{456, 452}";
},
{
name = top;
position = "{160, 710}";
},
{
name = topright;
position = "{360, 710}";
}
);
background = {
anchors = (
{
name = bottom;
position = "{303, 0}";
},
{
name = center;
position = "{160, 387}";
},
{
name = dotacc;
position = "{456, 452}";
},
{
name = top;
position = "{160, 710}";
},
{
name = topright;
position = "{360, 710}";
}
);
paths = (
{
closed = 1;
nodes = (
"544 0 LINE",
"556 174 LINE",
"260 174 LINE",
"260 710 LINE",
"60 710 LINE",
"60 0 LINE"
);
}
);
};
layerId = "A0850C2E-74F0-4B2E-AE90-CE9FC07F2CBD";
paths = (
{
closed = 1;
nodes = (
"544 0 LINE",
"556 174 LINE",
"260 174 LINE",
"260 710 LINE",
"60 710 LINE",
"60 0 LINE"
);
}
);
width = 552.22727;
}
);
leftKerningGroup = H;
leftMetricsKey = H;
rightKerningGroup = L;
unicode = 004C;
},
{
glyphname = M;
lastChange = "2019-05-08 20:29:10 +0000";
layers = (
{
anchors = (
{
name = bottom;
position = "{457, 0}";
},
{
name = top;
position = "{457, 710}";
}
);
background = {
anchors = (
{
name = bottom;
position = "{457, 0}";
},
{
name = top;
position = "{457, 710}";
}
);
paths = (
{
closed = 1;
nodes = (
"151 0 LINE",
"180 650 LINE",
"134 646 LINE",
"421 0 LINE",
"491 0 LINE",
"785 645 LINE",
"737 650 LINE",
"762 0 LINE",
"841 0 LINE",
"816 710 LINE",
"736 710 LINE",
"433 44 LINE",
"485 44 LINE",
"188 710 LINE",
"106 710 LINE",
"75 0 LINE"
);
}
);
};
layerId = "A3B50665-EA37-4AC6-885C-1233CA61B6BD";
paths = (
{
closed = 1;
nodes = (
"151 0 LINE",
"180 650 LINE",
"146 613 LINE",
"422 0 LINE",
"491 0 LINE",
"774 623 LINE",
"737 650 LINE",
"762 0 LINE",
"840 0 LINE",
"814 710 LINE",
"735 710 LINE",
"434 44 LINE",
"485 44 LINE",
"184 710 LINE",
"105 710 LINE",
"74 0 LINE"
);
}
);
width = 916;
},
{
anchors = (
{
name = bottom;
position = "{468, 0}";
},
{
name = top;
position = "{468, 710}";
}
);
background = {
anchors = (
{
name = bottom;
position = "{471, 0}";
},
{
name = top;
position = "{471, 710}";
}
);
paths = (
{
closed = 1;
nodes = (
"210 0 LINE",
"232 611 LINE",
"148 540 LINE",
"413 0 LINE",
"527 0 LINE",
"796 553 LINE",
"709 611 LINE",
"725 0 LINE",
"875 0 LINE",
"855 710 LINE",
"723 710 LINE",
"431 102 LINE",
"521 102 LINE",
"224 710 LINE",
"91 710 LINE",
"66 0 LINE"
);
}
);
};
guideLines = (
{
angle = -88.391;
position = "{733, 356}";
},
{
angle = 88.391;
position = "{232, 356}";
}
);
layerId = "014D4A40-7C7F-4023-B30E-1F55CE5EA091";
paths = (
{
closed = 1;
nodes = (
"210 0 LINE",
"232 611 LINE",
"147 540 LINE",
"411 0 LINE",
"525 0 LINE",
"797 553 LINE",
"709 611 LINE",
"725 0 LINE",
"875 0 LINE",
"856 710 LINE",
"724 710 LINE",
"429 102 LINE",
"520 102 LINE",
"223 710 LINE",
"91 710 LINE",
"66 0 LINE"
);
}
);
width = 943;
},
{
anchors = (
{
name = bottom;
position = "{449, 0}";
},
{
name = top;
position = "{449, 710}";
}
);
background = {
anchors = (
{
name = bottom;
position = "{449, 0}";
},
{
name = top;
position = "{449, 710}";
}
);
paths = (
{
closed = 1;
nodes = (
"109 0 LINE",
"143 678 LINE",
"145 665 LINE",
"430 0 LINE",
"467 0 LINE",
"758 673 LINE",
"757 678 LINE",
"788 0 LINE",
"815 0 LINE",
"784 710 LINE",
"743 710 LINE",
"438 3 LINE",
"460 3 LINE",
"156 710 LINE",
"115 710 LINE",
"80 0 LINE"
);
}
);
};
layerId = "7F092816-09A2-4631-A7F8-AD4571964C60";
paths = (
{
closed = 1;
nodes = (
"109 0 LINE",
"143 678 LINE",
"136 681 LINE",
"432 0 LINE",
"465 0 LINE",
"762 678 LINE",
"757 678 LINE",
"788 0 LINE",
"815 0 LINE",
"784 710 LINE",
"745 710 LINE",
"444 17 LINE",
"454 17 LINE",
"154 710 LINE",
"115 710 LINE",
"80 0 LINE"
);
}
);
width = 896.77273;
},
{
anchors = (
{
name = bottom;
position = "{474, 0}";
},
{
name = top;
position = "{474, 710}";
}
);
background = {
anchors = (
{
name = bottom;
position = "{474, 0}";
},
{
name = top;
position = "{474, 710}";
}
);
paths = (
{
closed = 1;
nodes = (
"245 0 LINE",
"263 588 LINE",
"148 497 LINE",
"405 0 LINE",
"545 0 LINE",
"811 512 LINE",
"692 588 LINE",
"703 0 LINE",
"896 0 LINE",
"881 710 LINE",
"718 710 LINE",
"426 137 LINE",
"541 137 LINE",
"246 710 LINE",
"83 710 LINE",
"62 0 LINE"
);
}
);
};
layerId = "A0850C2E-74F0-4B2E-AE90-CE9FC07F2CBD";
paths = (
{
closed = 1;
nodes = (
"245 0 LINE",
"263 588 LINE",
"148 497 LINE",
"405 0 LINE",
"545 0 LINE",
"808 512 LINE",
"692 588 LINE",
"703 0 LINE",
"896 0 LINE",
"881 710 LINE",
"718 710 LINE",
"429 137 LINE",
"541 137 LINE",
"246 710 LINE",
"83 710 LINE",
"62 0 LINE"
);
}
);
width = 958.95455;
}
);
leftKerningGroup = H;
rightKerningGroup = H;
unicode = 004D;
},
{
glyphname = N;
lastChange = "2019-05-08 20:29:10 +0000";
layers = (
{
anchors = (
{
name = bottom;
position = "{360, 0}";
},
{
name = top;
position = "{360, 710}";
}
);
background = {
anchors = (
{
name = bottom;
position = "{359, 0}";
},
{
name = top;
position = "{359, 712}";
}
);
paths = (
{
closed = 1;
nodes = (
"560 81 LINE",
"595 89 LINE",
"149 710 LINE",
"82 710 LINE",
"82 0 LINE",
"159 0 LINE",
"159 630 LINE",
"124 621 LINE",
"570 0 LINE",
"637 0 LINE",
"637 710 LINE",
"560 710 LINE"
);
}
);
};
layerId = "A3B50665-EA37-4AC6-885C-1233CA61B6BD";
paths = (
{
closed = 1;
nodes = (
"559 81 LINE",
"594 90 LINE",
"152 710 LINE",
"81 710 LINE",
"81 0 LINE",
"160 0 LINE",
"160 630 LINE",
"125 620 LINE",
"567 0 LINE",
"638 0 LINE",
"638 710 LINE",
"559 710 LINE"
);
}
);
width = 719;
},
{
anchors = (
{
name = bottom;
position = "{374, 0}";
},
{
name = top;
position = "{374, 712}";
}
);
background = {
anchors = (
{
name = bottom;
position = "{379, 0}";
},
{
name = top;
position = "{378, 712}";
}
);
paths = (
{
closed = 1;
nodes = (
"530 141 LINE",
"584 175 LINE",
"206 710 LINE",
"70 710 LINE",
"70 0 LINE",
"218 0 LINE",
"218 569 LINE",
"164 535 LINE",
"542 0 LINE",
"678 0 LINE",
"678 710 LINE",
"530 710 LINE"
);
}
);
};
layerId = "014D4A40-7C7F-4023-B30E-1F55CE5EA091";
paths = (
{
closed = 1;
nodes = (
"530 141 LINE",
"588 175 LINE",
"206 710 LINE",
"68 710 LINE",
"68 0 LINE",
"218 0 LINE",
"218 569 LINE",
"160 535 LINE",
"542 0 LINE",
"680 0 LINE",
"680 710 LINE",
"530 710 LINE"
);
}
);
width = 748;
},
{
anchors = (
{
name = bottom;
position = "{350, 0}";
},
{
name = top;
position = "{350, 709}";
}
);
background = {
anchors = (
{
name = bottom;
position = "{350, 0}";
},
{
name = top;
position = "{350, 709}";
}
);
paths = (
{
closed = 1;
nodes = (
"580 38 LINE",
"598 29 LINE",
"114 710 LINE",
"90 710 LINE",
"90 0 LINE",
"119 0 LINE",
"119 673 LINE",
"100 681 LINE",
"585 0 LINE",
"608 0 LINE",
"608 710 LINE",
"580 710 LINE"
);
}
);
};
layerId = "7F092816-09A2-4631-A7F8-AD4571964C60";
paths = (
{
closed = 1;
nodes = (
"579 38 LINE",
"598 31 LINE",
"114 710 LINE",
"90 710 LINE",
"90 0 LINE",
"119 0 LINE",
"119 673 LINE",
"100 679 LINE",
"585 0 LINE",
"608 0 LINE",
"608 710 LINE",
"579 710 LINE"
);
}
);
width = 698.34848;
},
{
anchors = (
{
name = bottom;
position = "{382, 0}";
},
{
name = top;
position = "{382, 713}";
}
);
background = {
anchors = (
{
name = bottom;
position = "{382, 0}";
},
{
name = top;
position = "{382, 713}";
}
);
paths = (
{
closed = 1;
nodes = (
"513 177 LINE",
"585 225 LINE",
"238 710 LINE",
"60 710 LINE",
"60 0 LINE",
"253 0 LINE",
"253 533 LINE",
"181 485 LINE",
"527 0 LINE",
"705 0 LINE",
"705 710 LINE",
"513 710 LINE"
);
}
);
};
layerId = "A0850C2E-74F0-4B2E-AE90-CE9FC07F2CBD";
paths = (
{
closed = 1;
nodes = (
"513 177 LINE",
"585 229 LINE",
"238 710 LINE",
"60 710 LINE",
"60 0 LINE",
"252 0 LINE",
"252 533 LINE",
"180 482 LINE",
"527 0 LINE",
"705 0 LINE",
"705 710 LINE",
"513 710 LINE"
);
}
);
width = 765.13636;
}
);
leftKerningGroup = H;
leftMetricsKey = H;
rightKerningGroup = H;
rightMetricsKey = H;
unicode = 004E;
},
{
glyphname = Eng;
lastChange = "2019-05-08 20:29:10 +0000";
layers = (
{
background = {
paths = (
{
closed = 1;
nodes = (
"559 81 LINE",
"594 91 LINE",
"152 710 LINE",
"81 710 LINE",
"81 0 LINE",
"160 0 LINE",
"160 630 LINE",
"125 619 LINE",
"567 0 LINE",
"638 0 LINE",
"638 710 LINE",
"559 710 LINE"
);
}
);
};
layerId = "A3B50665-EA37-4AC6-885C-1233CA61B6BD";
paths = (
{
closed = 1;
nodes = (
"576 -208 OFFCURVE",
"638 -132 OFFCURVE",
"638 -1 CURVE SMOOTH",
"638 710 LINE",
"559 710 LINE",
"559 81 LINE",
"594 90 LINE",
"152 710 LINE",
"81 710 LINE",
"81 0 LINE",
"160 0 LINE",
"160 630 LINE",
"125 620 LINE",
"567 0 LINE",
"561 37 LINE",
"561 -25 LINE SMOOTH",
"561 -91 OFFCURVE",
"527 -136 OFFCURVE",
"462 -136 CURVE SMOOTH",
"404 -136 OFFCURVE",
"363 -106 OFFCURVE",
"352 -41 CURVE",
"284 -71 LINE",
"296 -155 OFFCURVE",
"370 -208 OFFCURVE",
"456 -208 CURVE SMOOTH"
);
}
);
width = 719;
},
{
background = {
paths = (
{
closed = 1;
nodes = (
"530 141 LINE",
"588 175 LINE",
"206 710 LINE",
"68 710 LINE",
"68 0 LINE",
"218 0 LINE",
"218 569 LINE",
"160 535 LINE",
"542 0 LINE",
"680 0 LINE",
"680 710 LINE",
"530 710 LINE"
);
}
);
};
layerId = "014D4A40-7C7F-4023-B30E-1F55CE5EA091";
paths = (
{
closed = 1;
nodes = (
"586 -210 OFFCURVE",
"680 -119 OFFCURVE",
"680 38 CURVE SMOOTH",
"680 710 LINE",
"530 710 LINE",
"530 141 LINE",
"588 175 LINE",
"206 710 LINE",
"68 710 LINE",
"68 0 LINE",
"218 0 LINE",
"218 569 LINE",
"160 535 LINE",
"542 0 LINE",
"532 63 LINE",
"532 1 LINE SMOOTH",
"532 -43 OFFCURVE",
"503 -73 OFFCURVE",
"464 -73 CURVE SMOOTH",
"426 -73 OFFCURVE",
"398 -48 OFFCURVE",
"388 2 CURVE",
"261 -55 LINE",
"281 -156 OFFCURVE",
"363 -210 OFFCURVE",
"462 -210 CURVE SMOOTH"
);
}
);
width = 748;
},
{
background = {
paths = (
{
closed = 1;
nodes = (
"1369 -207 OFFCURVE",
"1408 -141 OFFCURVE",
"1408 -29 CURVE SMOOTH",
"1408 710 LINE",
"1380 710 LINE",
"1380 38 LINE",
"1398 29 LINE",
"914 710 LINE",
"890 710 LINE",
"890 0 LINE",
"919 0 LINE",
"919 673 LINE",
"900 681 LINE",
"1385 0 LINE",
"1382 18 LINE",
"1382 -44 LINE SMOOTH",
"1382 -125 OFFCURVE",
"1344 -181 OFFCURVE",
"1261 -181 CURVE SMOOTH",
"1188 -181 OFFCURVE",
"1138 -147 OFFCURVE",
"1126 -72 CURVE",
"1100 -82 LINE",
"1107 -154 OFFCURVE",
"1175 -207 OFFCURVE",
"1252 -207 CURVE SMOOTH"
);
},
{
closed = 1;
nodes = (
"579 38 LINE",
"598 31 LINE",
"114 710 LINE",
"90 710 LINE",
"90 0 LINE",
"119 0 LINE",
"119 673 LINE",
"100 679 LINE",
"585 0 LINE",
"608 0 LINE",
"608 710 LINE",
"579 710 LINE"
);
}
);
};
layerId = "7F092816-09A2-4631-A7F8-AD4571964C60";
paths = (
{
closed = 1;
nodes = (
"553 -207 OFFCURVE",
"608 -152 OFFCURVE",
"608 -31 CURVE SMOOTH",
"608 710 LINE",
"579 710 LINE",
"579 38 LINE",
"598 31 LINE",
"114 710 LINE",
"90 710 LINE",
"90 0 LINE",
"119 0 LINE",
"119 673 LINE",
"100 679 LINE",
"585 0 LINE",
"580 18 LINE",
"580 -38 LINE SMOOTH",
"580 -132 OFFCURVE",
"538 -180 OFFCURVE",
"461 -180 CURVE SMOOTH",
"388 -180 OFFCURVE",
"338 -147 OFFCURVE",
"326 -72 CURVE",
"300 -82 LINE",
"307 -154 OFFCURVE",
"364 -207 OFFCURVE",
"457 -207 CURVE SMOOTH"
);
}
);
width = 698.34848;
},
{
background = {
paths = (
{
closed = 1;
nodes = (
"1392 -211 OFFCURVE",
"1505 -111 OFFCURVE",
"1505 61 CURVE SMOOTH",
"1505 710 LINE",
"1313 710 LINE",
"1313 177 LINE",
"1385 225 LINE",
"1038 710 LINE",
"860 710 LINE",
"860 0 LINE",
"1053 0 LINE",
"1053 533 LINE",
"981 485 LINE",
"1327 0 LINE",
"1315 79 LINE",
"1315 17 LINE SMOOTH",
"1315 -15 OFFCURVE",
"1289 -36 OFFCURVE",
"1265 -36 CURVE SMOOTH",
"1239 -36 OFFCURVE",
"1219 -13 OFFCURVE",
"1209 27 CURVE",
"1047 -46 LINE",
"1072 -157 OFFCURVE",
"1159 -211 OFFCURVE",
"1265 -211 CURVE SMOOTH"
);
},
{
closed = 1;
nodes = (
"513 177 LINE",
"585 229 LINE",
"238 710 LINE",
"60 710 LINE",
"60 0 LINE",
"252 0 LINE",
"252 533 LINE",
"180 482 LINE",
"527 0 LINE",
"705 0 LINE",
"705 710 LINE",
"513 710 LINE"
);
}
);
};
layerId = "A0850C2E-74F0-4B2E-AE90-CE9FC07F2CBD";
paths = (
{
closed = 1;
nodes = (
"592 -211 OFFCURVE",
"705 -121 OFFCURVE",
"705 61 CURVE SMOOTH",
"705 710 LINE",
"513 710 LINE",
"513 177 LINE",
"585 229 LINE",
"238 710 LINE",
"60 710 LINE",
"60 0 LINE",
"252 0 LINE",
"252 533 LINE",
"180 482 LINE",
"527 0 LINE",
"514 76 LINE",
"514 9 LINE SMOOTH",
"514 -23 OFFCURVE",
"493 -39 OFFCURVE",
"469 -39 CURVE SMOOTH",
"438 -39 OFFCURVE",
"419 -16 OFFCURVE",
"409 20 CURVE",
"247 -46 LINE",
"272 -157 OFFCURVE",
"359 -211 OFFCURVE",
"467 -211 CURVE SMOOTH"
);
}
);
width = 765.13636;
}
);
leftKerningGroup = H;
leftMetricsKey = N;
widthMetricsKey = N;
rightKerningGroup = H;
unicode = 014A;
},
{
glyphname = O;
lastChange = "2019-05-08 20:29:10 +0000";
layers = (
{
anchors = (
{
name = bottom;
position = "{385, 0}";
},
{
name = center;
position = "{385, 355}";
},
{
name = ogonek;
position = "{462, 0}";
},
{
name = top;
position = "{385, 710}";
},
{
name = topleft;
position = "{14, 710}";
},
{
name = topright;
position = "{584, 710}";
}
);
background = {
anchors = (
{
name = bottom;
position = "{385, 0}";
},
{
name = center;
position = "{385, 355}";
},
{
name = ogonek;
position = "{462, 0}";
},
{
name = top;
position = "{385, 710}";
},
{
name = topleft;
position = "{14, 710}";
},
{
name = topright;
position = "{584, 710}";
}
);
paths = (
{
closed = 1;
nodes = (
"572 -8 OFFCURVE",
"711 139 OFFCURVE",
"711 369 CURVE SMOOTH",
"711 580 OFFCURVE",
"586 720 OFFCURVE",
"399 720 CURVE SMOOTH",
"198 720 OFFCURVE",
"58 564 OFFCURVE",
"58 342 CURVE SMOOTH",
"58 120 OFFCURVE",
"181 -8 OFFCURVE",
"381 -8 CURVE SMOOTH"
);
},
{
closed = 1;
nodes = (
"232 68 OFFCURVE",
"141 166 OFFCURVE",
"141 342 CURVE SMOOTH",
"141 524 OFFCURVE",
"249 645 OFFCURVE",
"400 645 CURVE SMOOTH",
"540 645 OFFCURVE",
"629 538 OFFCURVE",
"629 371 CURVE SMOOTH",
"629 179 OFFCURVE",
"527 68 OFFCURVE",
"381 68 CURVE SMOOTH"
);
}
);
};
guideLines = (
{
angle = 90;
position = "{711, 369}";
}
);
layerId = "A3B50665-EA37-4AC6-885C-1233CA61B6BD";
paths = (
{
closed = 1;
nodes = (
"573 -8 OFFCURVE",
"713 139 OFFCURVE",
"713 369 CURVE SMOOTH",
"713 580 OFFCURVE",
"587 720 OFFCURVE",
"399 720 CURVE SMOOTH",
"197 720 OFFCURVE",
"57 564 OFFCURVE",
"57 342 CURVE SMOOTH",
"57 120 OFFCURVE",
"180 -8 OFFCURVE",
"381 -8 CURVE SMOOTH"
);
},
{
closed = 1;
nodes = (
"232 68 OFFCURVE",
"141 166 OFFCURVE",
"141 342 CURVE SMOOTH",
"141 524 OFFCURVE",
"249 644 OFFCURVE",
"400 644 CURVE SMOOTH",
"540 644 OFFCURVE",
"629 538 OFFCURVE",
"629 371 CURVE SMOOTH",
"629 179 OFFCURVE",
"527 68 OFFCURVE",
"381 68 CURVE SMOOTH"
);
}
);
width = 770;
},
{
anchors = (
{
name = bottom;
position = "{390, 0}";
},
{
name = center;
position = "{390, 355}";
},
{
name = ogonek;
position = "{487, 0}";
},
{
name = top;
position = "{390, 710}";
},
{
name = topleft;
position = "{18, 710}";
},
{
name = topright;
position = "{559, 710}";
}
);
background = {
anchors = (
{
name = bottom;
position = "{390, 0}";
},
{
name = center;
position = "{390, 355}";
},
{
name = ogonek;
position = "{487, 0}";
},
{
name = top;
position = "{390, 710}";
},
{
name = topleft;
position = "{18, 710}";
},
{
name = topright;
position = "{559, 710}";
}
);
paths = (
{
closed = 1;
nodes = (
"596 -8 OFFCURVE",
"742 139 OFFCURVE",
"742 369 CURVE SMOOTH",
"742 580 OFFCURVE",
"608 720 OFFCURVE",
"406 720 CURVE SMOOTH",
"178 720 OFFCURVE",
"37 564 OFFCURVE",
"37 342 CURVE SMOOTH",
"37 120 OFFCURVE",
"170 -12 OFFCURVE",
"393 -10 CURVE SMOOTH"
);
},
{
closed = 1;
nodes = (
"268 129 OFFCURVE",
"196 207 OFFCURVE",
"196 345 CURVE SMOOTH",
"196 486 OFFCURVE",
"282 582 OFFCURVE",
"402 582 CURVE SMOOTH",
"513 582 OFFCURVE",
"584 497 OFFCURVE",
"584 368 CURVE SMOOTH",
"584 217 OFFCURVE",
"503 129 OFFCURVE",
"387 129 CURVE SMOOTH"
);
}
);
};
guideLines = (
{
angle = 90;
position = "{742, 369}";
}
);
layerId = "014D4A40-7C7F-4023-B30E-1F55CE5EA091";
paths = (
{
closed = 1;
nodes = (
"595 -8 OFFCURVE",
"742 139 OFFCURVE",
"742 369 CURVE SMOOTH",
"742 580 OFFCURVE",
"607 720 OFFCURVE",
"406 720 CURVE SMOOTH",
"179 720 OFFCURVE",
"38 564 OFFCURVE",
"38 342 CURVE SMOOTH",
"38 120 OFFCURVE",
"171 -12 OFFCURVE",
"393 -10 CURVE SMOOTH"
);
},
{
closed = 1;
nodes = (
"268 129 OFFCURVE",
"196 207 OFFCURVE",
"196 345 CURVE SMOOTH",
"196 486 OFFCURVE",
"282 582 OFFCURVE",
"402 582 CURVE SMOOTH",
"513 582 OFFCURVE",
"584 497 OFFCURVE",
"584 368 CURVE SMOOTH",
"584 217 OFFCURVE",
"503 129 OFFCURVE",
"387 129 CURVE SMOOTH"
);
}
);
width = 780;
},
{
anchors = (
{
name = bottom;
position = "{381, 0}";
},
{
name = center;
position = "{382, 355}";
},
{
name = ogonek;
position = "{444, 0}";
},
{
name = top;
position = "{381, 710}";
},
{
name = topleft;
position = "{11, 710}";
},
{
name = topright;
position = "{602, 710}";
}
);
background = {
anchors = (
{
name = bottom;
position = "{381, 0}";
},
{
name = center;
position = "{381, 355}";
},
{
name = ogonek;
position = "{444, 0}";
},
{
name = top;
position = "{381, 710}";
},
{
name = topleft;
position = "{11, 710}";
},
{
name = topright;
position = "{602, 710}";
}
);
paths = (
{
closed = 1;
nodes = (
"557 -8 OFFCURVE",
"692 139 OFFCURVE",
"692 369 CURVE SMOOTH",
"692 580 OFFCURVE",
"573 720 OFFCURVE",
"394 720 CURVE SMOOTH",
"210 720 OFFCURVE",
"71 564 OFFCURVE",
"71 342 CURVE SMOOTH",
"71 120 OFFCURVE",
"186 -5 OFFCURVE",
"372 -7 CURVE SMOOTH"
);
},
{
closed = 1;
nodes = (
"206 25 OFFCURVE",
"102 137 OFFCURVE",
"102 340 CURVE SMOOTH",
"102 551 OFFCURVE",
"225 688 OFFCURVE",
"399 688 CURVE SMOOTH",
"559 688 OFFCURVE",
"661 567 OFFCURVE",
"661 373 CURVE SMOOTH",
"661 152 OFFCURVE",
"544 25 OFFCURVE",
"377 25 CURVE SMOOTH"
);
}
);
};
layerId = "7F092816-09A2-4631-A7F8-AD4571964C60";
paths = (
{
closed = 1;
nodes = (
"559 -7 OFFCURVE",
"692 139 OFFCURVE",
"692 369 CURVE SMOOTH",
"692 580 OFFCURVE",
"574 720 OFFCURVE",
"396 720 CURVE SMOOTH",
"209 720 OFFCURVE",
"71 564 OFFCURVE",
"71 342 CURVE SMOOTH",
"71 120 OFFCURVE",
"189 -7 OFFCURVE",
"376 -7 CURVE SMOOTH"
);
},
{
closed = 1;
nodes = (
"207 24 OFFCURVE",
"103 136 OFFCURVE",
"103 340 CURVE SMOOTH",
"103 552 OFFCURVE",
"225 689 OFFCURVE",
"397 689 CURVE SMOOTH",
"557 689 OFFCURVE",
"660 568 OFFCURVE",
"660 373 CURVE SMOOTH",
"660 151 OFFCURVE",
"543 24 OFFCURVE",
"376 24 CURVE SMOOTH"
);
}
);
width = 762.87879;
},
{
anchors = (
{
name = bottom;
position = "{393, 0}";
},
{
name = center;
position = "{393, 355}";
},
{
name = ogonek;
position = "{502, 0}";
},
{
name = top;
position = "{393, 710}";
},
{
name = topleft;
position = "{20, 710}";
},
{
name = topright;
position = "{544, 710}";
}
);
background = {
paths = (
{
closed = 1;
nodes = (
"608 -8 OFFCURVE",
"759 139 OFFCURVE",
"759 369 CURVE SMOOTH",
"759 580 OFFCURVE",
"619 720 OFFCURVE",
"410 720 CURVE SMOOTH",
"168 720 OFFCURVE",
"27 564 OFFCURVE",
"27 342 CURVE SMOOTH",
"27 120 OFFCURVE",
"166 -14 OFFCURVE",
"400 -11 CURVE SMOOTH"
);
},
{
closed = 1;
nodes = (
"289 165 OFFCURVE",
"229 231 OFFCURVE",
"229 347 CURVE SMOOTH",
"229 464 OFFCURVE",
"301 545 OFFCURVE",
"403 545 CURVE SMOOTH",
"497 545 OFFCURVE",
"558 473 OFFCURVE",
"558 366 CURVE SMOOTH",
"558 239 OFFCURVE",
"489 165 OFFCURVE",
"390 165 CURVE SMOOTH"
);
}
);
};
layerId = "A0850C2E-74F0-4B2E-AE90-CE9FC07F2CBD";
paths = (
{
closed = 1;
nodes = (
"612 -8 OFFCURVE",
"759 145 OFFCURVE",
"759 369 CURVE SMOOTH",
"759 580 OFFCURVE",
"619 720 OFFCURVE",
"410 720 CURVE SMOOTH",
"180 720 OFFCURVE",
"27 569 OFFCURVE",
"27 342 CURVE SMOOTH",
"27 120 OFFCURVE",
"165 -12 OFFCURVE",
"396 -10 CURVE SMOOTH"
);
},
{
closed = 1;
nodes = (
"289 165 OFFCURVE",
"229 232 OFFCURVE",
"229 347 CURVE SMOOTH",
"229 463 OFFCURVE",
"297 545 OFFCURVE",
"402 545 CURVE SMOOTH",
"497 545 OFFCURVE",
"558 474 OFFCURVE",
"558 365 CURVE SMOOTH",
"558 243 OFFCURVE",
"493 165 OFFCURVE",
"391 165 CURVE SMOOTH"
);
}
);
width = 785.90909;
}
);
leftKerningGroup = O;
rightKerningGroup = O;
rightMetricsKey = "=|";
unicode = 004F;
},
{
glyphname = Oogonek;
lastChange = "2019-05-08 20:29:10 +0000";
layers = (
{
anchors = (
{
name = top;
position = "{385, 710}";
}
);
background = {
paths = (
{
closed = 1;
nodes = (
"573 -8 OFFCURVE",
"713 139 OFFCURVE",
"713 369 CURVE SMOOTH",
"713 580 OFFCURVE",
"587 720 OFFCURVE",
"399 720 CURVE SMOOTH",
"197 720 OFFCURVE",
"57 564 OFFCURVE",
"57 342 CURVE SMOOTH",
"57 120 OFFCURVE",
"180 -8 OFFCURVE",
"381 -8 CURVE SMOOTH"
);
},
{
closed = 1;
nodes = (
"232 68 OFFCURVE",
"141 166 OFFCURVE",
"141 342 CURVE SMOOTH",
"141 524 OFFCURVE",
"249 644 OFFCURVE",
"400 644 CURVE SMOOTH",
"540 644 OFFCURVE",
"629 538 OFFCURVE",
"629 371 CURVE SMOOTH",
"629 179 OFFCURVE",
"527 68 OFFCURVE",
"381 68 CURVE SMOOTH"
);
}
);
};
layerId = "A3B50665-EA37-4AC6-885C-1233CA61B6BD";
paths = (
{
closed = 1;
nodes = (
"444 -223 OFFCURVE",
"483 -203 OFFCURVE",
"503 -173 CURVE",
"473 -132 LINE",
"452 -158 OFFCURVE",
"432 -170 OFFCURVE",
"410 -170 CURVE SMOOTH",
"376 -170 OFFCURVE",
"357 -150 OFFCURVE",
"357 -118 CURVE SMOOTH",
"357 -75 OFFCURVE",
"397 -24 OFFCURVE",
"494 11 CURVE SMOOTH",
"623 57 OFFCURVE",
"713 184 OFFCURVE",
"713 369 CURVE SMOOTH",
"713 580 OFFCURVE",
"587 720 OFFCURVE",
"399 720 CURVE SMOOTH",
"197 720 OFFCURVE",
"57 564 OFFCURVE",
"57 342 CURVE SMOOTH",
"57 120 OFFCURVE",
"180 -8 OFFCURVE",
"381 -8 CURVE SMOOTH",
"405 -8 LINE",
"397 10 LINE",
"329 -21 OFFCURVE",
"290 -73 OFFCURVE",
"290 -126 CURVE SMOOTH",
"290 -184 OFFCURVE",
"333 -223 OFFCURVE",
"405 -223 CURVE SMOOTH"
);
},
{
closed = 1;
nodes = (
"232 68 OFFCURVE",
"141 166 OFFCURVE",
"141 342 CURVE SMOOTH",
"141 524 OFFCURVE",
"249 644 OFFCURVE",
"400 644 CURVE SMOOTH",
"540 644 OFFCURVE",
"629 538 OFFCURVE",
"629 371 CURVE SMOOTH",
"629 179 OFFCURVE",
"527 68 OFFCURVE",
"381 68 CURVE SMOOTH"
);
}
);
width = 770;
},
{
anchors = (
{
name = top;
position = "{391, 710}";
}
);
background = {
paths = (
{
closed = 1;
nodes = (
"595 -8 OFFCURVE",
"742 139 OFFCURVE",
"742 369 CURVE SMOOTH",
"742 580 OFFCURVE",
"607 720 OFFCURVE",
"406 720 CURVE SMOOTH",
"179 720 OFFCURVE",
"38 564 OFFCURVE",
"38 342 CURVE SMOOTH",
"38 120 OFFCURVE",
"171 -12 OFFCURVE",
"393 -10 CURVE SMOOTH"
);
},
{
closed = 1;
nodes = (
"268 129 OFFCURVE",
"196 207 OFFCURVE",
"196 345 CURVE SMOOTH",
"196 486 OFFCURVE",
"282 582 OFFCURVE",
"402 582 CURVE SMOOTH",
"513 582 OFFCURVE",
"584 497 OFFCURVE",
"584 368 CURVE SMOOTH",
"584 217 OFFCURVE",
"503 129 OFFCURVE",
"387 129 CURVE SMOOTH"
);
}
);
};
layerId = "014D4A40-7C7F-4023-B30E-1F55CE5EA091";
paths = (
{
closed = 1;
nodes = (
"475 -223 OFFCURVE",
"521 -204 OFFCURVE",
"544 -173 CURVE",
"495 -103 LINE",
"480 -122 OFFCURVE",
"458 -134 OFFCURVE",
"440 -134 CURVE SMOOTH",
"412 -134 OFFCURVE",
"396 -120 OFFCURVE",
"396 -96 CURVE SMOOTH",
"396 -62 OFFCURVE",
"417 -30 OFFCURVE",
"529 16 CURVE SMOOTH",
"658 69 OFFCURVE",
"742 195 OFFCURVE",
"742 369 CURVE SMOOTH",
"742 580 OFFCURVE",
"607 720 OFFCURVE",
"406 720 CURVE SMOOTH",
"179 720 OFFCURVE",
"38 564 OFFCURVE",
"38 342 CURVE SMOOTH",
"38 120 OFFCURVE",
"171 -12 OFFCURVE",
"394 -10 CURVE SMOOTH",
"424 -10 LINE",
"375 12 LINE",
"306 -18 OFFCURVE",
"274 -61 OFFCURVE",
"274 -112 CURVE SMOOTH",
"274 -178 OFFCURVE",
"336 -223 OFFCURVE",
"424 -223 CURVE SMOOTH"
);
},
{
closed = 1;
nodes = (
"268 129 OFFCURVE",
"196 207 OFFCURVE",
"196 345 CURVE SMOOTH",
"196 486 OFFCURVE",
"282 582 OFFCURVE",
"402 582 CURVE SMOOTH",
"513 582 OFFCURVE",
"584 497 OFFCURVE",
"584 368 CURVE SMOOTH",
"584 217 OFFCURVE",
"503 129 OFFCURVE",
"387 129 CURVE SMOOTH"
);
}
);
width = 780;
},
{
anchors = (
{
name = top;
position = "{381, 710}";
}
);
background = {
anchors = (
{
name = top;
position = "{1281, 710}";
}
);
paths = (
{
closed = 1;
nodes = (
"1322 -223 OFFCURVE",
"1356 -202 OFFCURVE",
"1374 -173 CURVE",
"1357 -153 LINE",
"1332 -184 OFFCURVE",
"1313 -196 OFFCURVE",
"1289 -196 CURVE SMOOTH",
"1250 -196 OFFCURVE",
"1229 -171 OFFCURVE",
"1229 -134 CURVE SMOOTH",
"1229 -84 OFFCURVE",
"1283 -20 OFFCURVE",
"1369 7 CURVE SMOOTH",
"1498 48 OFFCURVE",
"1592 176 OFFCURVE",
"1592 369 CURVE SMOOTH",
"1592 580 OFFCURVE",
"1473 720 OFFCURVE",
"1294 720 CURVE SMOOTH",
"1110 720 OFFCURVE",
"971 564 OFFCURVE",
"971 342 CURVE SMOOTH",
"971 120 OFFCURVE",
"1086 -7 OFFCURVE",
"1272 -7 CURVE SMOOTH",
"1291 -7 LINE",
"1313 9 LINE",
"1245 -23 OFFCURVE",
"1201 -82 OFFCURVE",
"1201 -136 CURVE SMOOTH",
"1201 -188 OFFCURVE",
"1231 -223 OFFCURVE",
"1291 -223 CURVE SMOOTH"
);
},
{
closed = 1;
nodes = (
"1106 25 OFFCURVE",
"1002 137 OFFCURVE",
"1002 340 CURVE SMOOTH",
"1002 551 OFFCURVE",
"1125 688 OFFCURVE",
"1299 688 CURVE SMOOTH",
"1459 688 OFFCURVE",
"1561 567 OFFCURVE",
"1561 373 CURVE SMOOTH",
"1561 152 OFFCURVE",
"1444 25 OFFCURVE",
"1277 25 CURVE SMOOTH"
);
},
{
closed = 1;
nodes = (
"559 -7 OFFCURVE",
"692 139 OFFCURVE",
"692 369 CURVE SMOOTH",
"692 580 OFFCURVE",
"574 720 OFFCURVE",
"396 720 CURVE SMOOTH",
"209 720 OFFCURVE",
"71 564 OFFCURVE",
"71 342 CURVE SMOOTH",
"71 120 OFFCURVE",
"189 -7 OFFCURVE",
"376 -7 CURVE SMOOTH"
);
},
{
closed = 1;
nodes = (
"207 24 OFFCURVE",
"103 136 OFFCURVE",
"103 340 CURVE SMOOTH",
"103 552 OFFCURVE",
"225 689 OFFCURVE",
"397 689 CURVE SMOOTH",
"557 689 OFFCURVE",
"660 568 OFFCURVE",
"660 373 CURVE SMOOTH",
"660 151 OFFCURVE",
"543 24 OFFCURVE",
"376 24 CURVE SMOOTH"
);
}
);
};
layerId = "7F092816-09A2-4631-A7F8-AD4571964C60";
paths = (
{
closed = 1;
nodes = (
"422 -223 OFFCURVE",
"459 -202 OFFCURVE",
"474 -173 CURVE",
"457 -154 LINE",
"436 -185 OFFCURVE",
"413 -198 OFFCURVE",
"389 -198 CURVE SMOOTH",
"350 -198 OFFCURVE",
"329 -171 OFFCURVE",
"329 -134 CURVE SMOOTH",
"329 -78 OFFCURVE",
"383 -21 OFFCURVE",
"473 8 CURVE SMOOTH",
"598 49 OFFCURVE",
"692 176 OFFCURVE",
"692 369 CURVE SMOOTH",
"692 580 OFFCURVE",
"573 720 OFFCURVE",
"394 720 CURVE SMOOTH",
"210 720 OFFCURVE",
"71 564 OFFCURVE",
"71 342 CURVE SMOOTH",
"71 120 OFFCURVE",
"189 -7 OFFCURVE",
"376 -7 CURVE SMOOTH",
"396 -7 LINE",
"413 7 LINE",
"340 -29 OFFCURVE",
"301 -82 OFFCURVE",
"301 -136 CURVE SMOOTH",
"301 -188 OFFCURVE",
"331 -223 OFFCURVE",
"391 -223 CURVE SMOOTH"
);
},
{
closed = 1;
nodes = (
"207 24 OFFCURVE",
"103 136 OFFCURVE",
"103 340 CURVE SMOOTH",
"103 552 OFFCURVE",
"225 689 OFFCURVE",
"397 689 CURVE SMOOTH",
"557 689 OFFCURVE",
"660 568 OFFCURVE",
"660 373 CURVE SMOOTH",
"660 151 OFFCURVE",
"543 24 OFFCURVE",
"376 24 CURVE SMOOTH"
);
}
);
width = 762.87879;
},
{
anchors = (
{
name = top;
position = "{394, 710}";
}
);
background = {
anchors = (
{
name = top;
position = "{394, 710}";
}
);
paths = (
{
closed = 1;
nodes = (
"612 -8 OFFCURVE",
"759 145 OFFCURVE",
"759 369 CURVE SMOOTH",
"759 580 OFFCURVE",
"619 720 OFFCURVE",
"410 720 CURVE SMOOTH",
"180 720 OFFCURVE",
"27 569 OFFCURVE",
"27 342 CURVE SMOOTH",
"27 120 OFFCURVE",
"165 -12 OFFCURVE",
"396 -10 CURVE SMOOTH"
);
},
{
closed = 1;
nodes = (
"289 165 OFFCURVE",
"229 232 OFFCURVE",
"229 347 CURVE SMOOTH",
"229 463 OFFCURVE",
"297 545 OFFCURVE",
"402 545 CURVE SMOOTH",
"497 545 OFFCURVE",
"558 474 OFFCURVE",
"558 365 CURVE SMOOTH",
"558 243 OFFCURVE",
"493 165 OFFCURVE",
"391 165 CURVE SMOOTH"
);
}
);
};
layerId = "A0850C2E-74F0-4B2E-AE90-CE9FC07F2CBD";
paths = (
{
closed = 1;
nodes = (
"493 -223 OFFCURVE",
"543 -205 OFFCURVE",
"568 -173 CURVE",
"508 -86 LINE",
"497 -103 OFFCURVE",
"474 -113 OFFCURVE",
"458 -113 CURVE SMOOTH",
"433 -113 OFFCURVE",
"419 -99 OFFCURVE",
"419 -81 CURVE SMOOTH",
"419 -54 OFFCURVE",
"429 -31 OFFCURVE",
"550 21 CURVE SMOOTH",
"679 78 OFFCURVE",
"759 201 OFFCURVE",
"759 369 CURVE SMOOTH",
"759 580 OFFCURVE",
"619 720 OFFCURVE",
"410 720 CURVE SMOOTH",
"180 720 OFFCURVE",
"27 569 OFFCURVE",
"27 342 CURVE SMOOTH",
"27 120 OFFCURVE",
"166 -14 OFFCURVE",
"402 -11 CURVE SMOOTH",
"435 -11 LINE",
"362 13 LINE",
"292 -16 OFFCURVE",
"265 -54 OFFCURVE",
"265 -104 CURVE SMOOTH",
"265 -175 OFFCURVE",
"338 -223 OFFCURVE",
"435 -223 CURVE SMOOTH"
);
},
{
closed = 1;
nodes = (
"289 165 OFFCURVE",
"229 232 OFFCURVE",
"229 347 CURVE SMOOTH",
"229 463 OFFCURVE",
"297 545 OFFCURVE",
"402 545 CURVE SMOOTH",
"497 545 OFFCURVE",
"558 474 OFFCURVE",
"558 365 CURVE SMOOTH",
"558 243 OFFCURVE",
"493 165 OFFCURVE",
"391 165 CURVE SMOOTH"
);
}
);
width = 785.90909;
}
);
leftKerningGroup = O;
leftMetricsKey = O;
widthMetricsKey = O;
rightKerningGroup = O;
unicode = 01EA;
},
{
glyphname = OE;
lastChange = "2019-05-08 20:29:10 +0000";
layers = (
{
anchors = (
{
name = bottom;
position = "{581, 0}";
},
{
name = top;
position = "{581, 710}";
}
);
background = {
anchors = (
{
name = bottom;
position = "{581, 0}";
},
{
name = top;
position = "{581, 710}";
}
);
paths = (
{
closed = 1;
nodes = (
"621 325 LINE",
"936 325 LINE",
"936 395 LINE",
"621 395 LINE",
"621 640 LINE",
"946 640 LINE",
"946 710 LINE",
"600 710 LINE SMOOTH",
"564 710 OFFCURVE",
"497 715 OFFCURVE",
"451 715 CURVE SMOOTH",
"194 715 OFFCURVE",
"57 566 OFFCURVE",
"57 340 CURVE SMOOTH",
"57 117 OFFCURVE",
"186 -4 OFFCURVE",
"430 -4 CURVE SMOOTH",
"479 -4 OFFCURVE",
"529 0 OFFCURVE",
"588 0 CURVE SMOOTH",
"953 0 LINE",
"963 71 LINE",
"621 71 LINE"
);
},
{
closed = 1;
nodes = (
"506 68 OFFCURVE",
"471 67 OFFCURVE",
"437 67 CURVE SMOOTH",
"238 67 OFFCURVE",
"141 160 OFFCURVE",
"141 344 CURVE SMOOTH",
"141 541 OFFCURVE",
"259 645 OFFCURVE",
"451 645 CURVE SMOOTH",
"490 645 OFFCURVE",
"515 642 OFFCURVE",
"540 640 CURVE",
"540 71 LINE"
);
}
);
};
layerId = "A3B50665-EA37-4AC6-885C-1233CA61B6BD";
paths = (
{
closed = 1;
nodes = (
"621 325 LINE",
"936 325 LINE",
"936 396 LINE",
"621 396 LINE",
"621 639 LINE",
"946 639 LINE",
"946 710 LINE",
"600 710 LINE SMOOTH",
"564 710 OFFCURVE",
"497 715 OFFCURVE",
"451 715 CURVE SMOOTH",
"194 715 OFFCURVE",
"57 566 OFFCURVE",
"57 340 CURVE SMOOTH",
"57 117 OFFCURVE",
"186 -4 OFFCURVE",
"430 -4 CURVE SMOOTH",
"479 -4 OFFCURVE",
"529 0 OFFCURVE",
"588 0 CURVE SMOOTH",
"953 0 LINE",
"960 71 LINE",
"621 71 LINE"
);
},
{
closed = 1;
nodes = (
"506 68 OFFCURVE",
"471 67 OFFCURVE",
"437 67 CURVE SMOOTH",
"238 67 OFFCURVE",
"141 160 OFFCURVE",
"141 344 CURVE SMOOTH",
"141 541 OFFCURVE",
"259 644 OFFCURVE",
"451 644 CURVE SMOOTH",
"490 644 OFFCURVE",
"515 641 OFFCURVE",
"540 639 CURVE",
"540 71 LINE"
);
}
);
width = 993;
},
{
anchors = (
{
name = bottom;
position = "{588, 0}";
},
{
name = top;
position = "{588, 710}";
}
);
background = {
anchors = (
{
name = bottom;
position = "{588, 0}";
},
{
name = top;
position = "{588, 710}";
}
);
paths = (
{
closed = 1;
nodes = (
"665 290 LINE",
"961 290 LINE",
"961 426 LINE",
"665 426 LINE",
"665 574 LINE",
"981 574 LINE",
"981 710 LINE",
"632 710 LINE SMOOTH",
"587 710 OFFCURVE",
"504 716 OFFCURVE",
"452 716 CURVE SMOOTH",
"194 716 OFFCURVE",
"35 572 OFFCURVE",
"35 336 CURVE SMOOTH",
"35 119 OFFCURVE",
"173 -6 OFFCURVE",
"441 -6 CURVE SMOOTH",
"502 -6 OFFCURVE",
"553 0 OFFCURVE",
"622 0 CURVE SMOOTH",
"981 0 LINE",
"991 138 LINE",
"665 138 LINE"
);
},
{
closed = 1;
nodes = (
"484 132 OFFCURVE",
"458 130 OFFCURVE",
"431 130 CURVE SMOOTH",
"270 130 OFFCURVE",
"196 206 OFFCURVE",
"196 341 CURVE SMOOTH",
"196 495 OFFCURVE",
"285 580 OFFCURVE",
"441 580 CURVE SMOOTH",
"467 580 OFFCURVE",
"489 578 OFFCURVE",
"511 574 CURVE",
"511 136 LINE"
);
}
);
};
layerId = "014D4A40-7C7F-4023-B30E-1F55CE5EA091";
paths = (
{
closed = 1;
nodes = (
"665 291 LINE",
"961 291 LINE",
"961 425 LINE",
"665 425 LINE",
"665 576 LINE",
"981 576 LINE",
"981 710 LINE",
"622 710 LINE SMOOTH",
"557 710 OFFCURVE",
"507 716 OFFCURVE",
"445 716 CURVE SMOOTH",
"197 716 OFFCURVE",
"38 572 OFFCURVE",
"38 336 CURVE SMOOTH",
"38 119 OFFCURVE",
"176 -6 OFFCURVE",
"444 -6 CURVE SMOOTH",
"505 -6 OFFCURVE",
"553 0 OFFCURVE",
"612 0 CURVE SMOOTH",
"981 0 LINE",
"991 134 LINE",
"665 134 LINE"
);
},
{
closed = 1;
nodes = (
"484 130 OFFCURVE",
"458 128 OFFCURVE",
"431 128 CURVE SMOOTH",
"270 128 OFFCURVE",
"196 206 OFFCURVE",
"196 341 CURVE SMOOTH",
"196 495 OFFCURVE",
"285 582 OFFCURVE",
"441 582 CURVE SMOOTH",
"467 582 OFFCURVE",
"489 580 OFFCURVE",
"511 576 CURVE",
"511 134 LINE"
);
}
);
width = 1009;
},
{
anchors = (
{
name = bottom;
position = "{576, 0}";
},
{
name = top;
position = "{576, 710}";
}
);
background = {
anchors = (
{
name = bottom;
position = "{576, 0}";
},
{
name = top;
position = "{576, 710}";
}
);
paths = (
{
closed = 1;
nodes = (
"590 349 LINE",
"918 349 LINE",
"918 376 LINE",
"590 376 LINE",
"590 682 LINE",
"921 682 LINE",
"921 710 LINE",
"584 710 LINE SMOOTH",
"569 710 OFFCURVE",
"490 714 OFFCURVE",
"455 714 CURVE SMOOTH",
"192 714 OFFCURVE",
"71 562 OFFCURVE",
"71 343 CURVE SMOOTH",
"71 116 OFFCURVE",
"193 -3 OFFCURVE",
"420 -3 CURVE SMOOTH",
"460 -3 OFFCURVE",
"512 0 OFFCURVE",
"571 0 CURVE SMOOTH",
"933 0 LINE",
"938 26 LINE",
"590 26 LINE"
);
},
{
closed = 1;
nodes = (
"522 24 OFFCURVE",
"480 24 OFFCURVE",
"441 24 CURVE SMOOTH",
"215 24 OFFCURVE",
"102 127 OFFCURVE",
"102 346 CURVE SMOOTH",
"102 574 OFFCURVE",
"240 688 OFFCURVE",
"458 688 CURVE SMOOTH",
"506 688 OFFCURVE",
"534 684 OFFCURVE",
"561 684 CURVE",
"561 26 LINE"
);
}
);
};
layerId = "7F092816-09A2-4631-A7F8-AD4571964C60";
paths = (
{
closed = 1;
nodes = (
"591 349 LINE",
"918 349 LINE",
"918 375 LINE",
"591 375 LINE",
"591 684 LINE",
"921 684 LINE",
"921 710 LINE",
"584 710 LINE SMOOTH",
"559 710 OFFCURVE",
"500 715 OFFCURVE",
"455 715 CURVE SMOOTH",
"192 715 OFFCURVE",
"71 562 OFFCURVE",
"71 343 CURVE SMOOTH",
"71 116 OFFCURVE",
"200 -3 OFFCURVE",
"430 -3 CURVE SMOOTH",
"477 -3 OFFCURVE",
"522 0 OFFCURVE",
"571 0 CURVE SMOOTH",
"933 0 LINE",
"938 26 LINE",
"591 26 LINE"
);
},
{
closed = 1;
nodes = (
"522 26 OFFCURVE",
"478 24 OFFCURVE",
"439 24 CURVE SMOOTH",
"213 24 OFFCURVE",
"103 127 OFFCURVE",
"103 346 CURVE SMOOTH",
"103 574 OFFCURVE",
"240 688 OFFCURVE",
"458 688 CURVE SMOOTH",
"506 688 OFFCURVE",
"534 685 OFFCURVE",
"561 684 CURVE",
"561 27 LINE"
);
}
);
width = 981;
},
{
anchors = (
{
name = bottom;
position = "{592, 0}";
},
{
name = top;
position = "{592, 710}";
}
);
background = {
anchors = (
{
name = bottom;
position = "{592, 0}";
},
{
name = top;
position = "{592, 710}";
}
);
paths = (
{
closed = 1;
nodes = (
"691 272 LINE",
"976 272 LINE",
"976 441 LINE",
"691 441 LINE",
"691 542 LINE",
"1002 542 LINE",
"1002 710 LINE",
"635 710 LINE SMOOTH",
"553 710 OFFCURVE",
"513 717 OFFCURVE",
"442 717 CURVE SMOOTH",
"199 717 OFFCURVE",
"27 575 OFFCURVE",
"27 334 CURVE SMOOTH",
"27 120 OFFCURVE",
"170 -7 OFFCURVE",
"452 -7 CURVE SMOOTH",
"521 -7 OFFCURVE",
"567 0 OFFCURVE",
"626 0 CURVE SMOOTH",
"998 0 LINE",
"1009 171 LINE",
"691 171 LINE"
);
},
{
closed = 1;
nodes = (
"471 167 OFFCURVE",
"450 164 OFFCURVE",
"428 164 CURVE SMOOTH",
"289 164 OFFCURVE",
"229 233 OFFCURVE",
"229 339 CURVE SMOOTH",
"229 468 OFFCURVE",
"301 545 OFFCURVE",
"435 545 CURVE SMOOTH",
"453 545 OFFCURVE",
"473 544 OFFCURVE",
"494 539 CURVE",
"494 171 LINE"
);
}
);
};
layerId = "A0850C2E-74F0-4B2E-AE90-CE9FC07F2CBD";
paths = (
{
closed = 1;
nodes = (
"691 271 LINE",
"976 271 LINE",
"976 442 LINE",
"691 442 LINE",
"691 539 LINE",
"1002 539 LINE",
"1002 710 LINE",
"635 710 LINE SMOOTH",
"583 710 OFFCURVE",
"513 717 OFFCURVE",
"457 717 CURVE SMOOTH",
"195 717 OFFCURVE",
"27 575 OFFCURVE",
"27 334 CURVE SMOOTH",
"27 120 OFFCURVE",
"170 -7 OFFCURVE",
"452 -7 CURVE SMOOTH",
"521 -7 OFFCURVE",
"567 0 OFFCURVE",
"626 0 CURVE SMOOTH",
"998 0 LINE",
"1009 171 LINE",
"691 171 LINE"
);
},
{
closed = 1;
nodes = (
"471 167 OFFCURVE",
"450 164 OFFCURVE",
"428 164 CURVE SMOOTH",
"289 164 OFFCURVE",
"229 233 OFFCURVE",
"229 339 CURVE SMOOTH",
"229 468 OFFCURVE",
"301 545 OFFCURVE",
"431 545 CURVE SMOOTH",
"453 545 OFFCURVE",
"473 544 OFFCURVE",
"494 539 CURVE",
"494 171 LINE"
);
}
);
width = 1018.45455;
}
);
leftKerningGroup = O;
leftMetricsKey = O;
rightKerningGroup = E;
rightMetricsKey = E;
unicode = 0152;
},
{
glyphname = P;
lastChange = "2019-05-08 20:29:10 +0000";
layers = (
{
anchors = (
{
name = bottom;
position = "{302, 0}";
},
{
name = top;
position = "{303, 710}";
}
);
background = {
anchors = (
{
name = bottom;
position = "{302, 0}";
},
{
name = top;
position = "{303, 710}";
}
);
paths = (
{
closed = 1;
nodes = (
"162 643 LINE",
"305 643 LINE SMOOTH",
"436 643 OFFCURVE",
"495 598 OFFCURVE",
"495 502 CURVE SMOOTH",
"495 405 OFFCURVE",
"438 354 OFFCURVE",
"291 354 CURVE SMOOTH",
"146 354 LINE",
"146 285 LINE",
"286 285 LINE SMOOTH",
"484 285 OFFCURVE",
"576 367 OFFCURVE",
"576 502 CURVE SMOOTH",
"576 638 OFFCURVE",
"479 711 OFFCURVE",
"313 711 CURVE SMOOTH",
"81 711 LINE",
"81 0 LINE",
"162 0 LINE"
);
}
);
};
layerId = "A3B50665-EA37-4AC6-885C-1233CA61B6BD";
paths = (
{
closed = 1;
nodes = (
"162 643 LINE",
"305 643 LINE SMOOTH",
"435 643 OFFCURVE",
"494 598 OFFCURVE",
"494 502 CURVE SMOOTH",
"494 405 OFFCURVE",
"437 354 OFFCURVE",
"291 354 CURVE SMOOTH",
"146 354 LINE",
"146 285 LINE",
"286 285 LINE SMOOTH",
"484 285 OFFCURVE",
"576 367 OFFCURVE",
"576 502 CURVE SMOOTH",
"576 638 OFFCURVE",
"479 711 OFFCURVE",
"313 711 CURVE SMOOTH",
"81 711 LINE",
"81 0 LINE",
"162 0 LINE"
);
}
);
width = 601;
},
{
anchors = (
{
name = bottom;
position = "{316, 0}";
},
{
name = top;
position = "{316, 710}";
}
);
background = {
anchors = (
{
name = bottom;
position = "{316, 0}";
},
{
name = top;
position = "{316, 710}";
}
);
paths = (
{
closed = 1;
nodes = (
"220 583 LINE",
"325 583 LINE SMOOTH",
"423 583 OFFCURVE",
"468 558 OFFCURVE",
"468 483 CURVE SMOOTH",
"468 410 OFFCURVE",
"418 380 OFFCURVE",
"312 380 CURVE SMOOTH",
"188 380 LINE",
"188 252 LINE",
"314 252 LINE SMOOTH",
"508 252 OFFCURVE",
"624 340 OFFCURVE",
"624 486 CURVE SMOOTH",
"624 632 OFFCURVE",
"523 710 OFFCURVE",
"338 710 CURVE SMOOTH",
"68 710 LINE",
"68 0 LINE",
"220 0 LINE"
);
}
);
};
layerId = "014D4A40-7C7F-4023-B30E-1F55CE5EA091";
paths = (
{
closed = 1;
nodes = (
"220 583 LINE",
"325 583 LINE SMOOTH",
"423 583 OFFCURVE",
"468 558 OFFCURVE",
"468 483 CURVE SMOOTH",
"468 410 OFFCURVE",
"418 380 OFFCURVE",
"312 380 CURVE SMOOTH",
"188 380 LINE",
"188 252 LINE",
"304 252 LINE SMOOTH",
"508 252 OFFCURVE",
"623 340 OFFCURVE",
"623 486 CURVE SMOOTH",
"623 632 OFFCURVE",
"523 710 OFFCURVE",
"328 710 CURVE SMOOTH",
"68 710 LINE",
"68 0 LINE",
"220 0 LINE"
);
}
);
width = 636;
},
{
anchors = (
{
name = bottom;
position = "{292, 0}";
},
{
name = top;
position = "{295, 710}";
}
);
background = {
anchors = (
{
name = bottom;
position = "{292, 0}";
},
{
name = top;
position = "{294, 710}";
}
);
paths = (
{
closed = 1;
nodes = (
"121 686 LINE",
"291 686 LINE SMOOTH",
"444 686 OFFCURVE",
"513 626 OFFCURVE",
"513 516 CURVE SMOOTH",
"513 401 OFFCURVE",
"451 335 OFFCURVE",
"276 335 CURVE SMOOTH",
"116 335 LINE",
"116 309 LINE",
"273 309 LINE SMOOTH",
"467 309 OFFCURVE",
"543 386 OFFCURVE",
"543 513 CURVE SMOOTH",
"543 642 OFFCURVE",
"448 712 OFFCURVE",
"302 712 CURVE SMOOTH",
"90 712 LINE",
"90 0 LINE",
"121 0 LINE"
);
}
);
};
layerId = "7F092816-09A2-4631-A7F8-AD4571964C60";
paths = (
{
closed = 1;
nodes = (
"121 685 LINE",
"291 685 LINE SMOOTH",
"439 685 OFFCURVE",
"512 630 OFFCURVE",
"512 514 CURVE SMOOTH",
"512 389 OFFCURVE",
"440 336 OFFCURVE",
"276 336 CURVE SMOOTH",
"116 336 LINE",
"116 308 LINE",
"275 308 LINE SMOOTH",
"455 308 OFFCURVE",
"543 376 OFFCURVE",
"543 515 CURVE SMOOTH",
"543 638 OFFCURVE",
"453 712 OFFCURVE",
"300 712 CURVE SMOOTH",
"90 712 LINE",
"90 0 LINE",
"121 0 LINE"
);
}
);
width = 576.07576;
},
{
anchors = (
{
name = bottom;
position = "{324, 0}";
},
{
name = top;
position = "{324, 710}";
}
);
background = {
anchors = (
{
name = bottom;
position = "{324, 0}";
},
{
name = top;
position = "{324, 710}";
}
);
paths = (
{
closed = 1;
nodes = (
"255 547 LINE",
"337 547 LINE SMOOTH",
"416 547 OFFCURVE",
"452 535 OFFCURVE",
"452 472 CURVE SMOOTH",
"452 413 OFFCURVE",
"407 396 OFFCURVE",
"325 396 CURVE SMOOTH",
"213 396 LINE",
"213 232 LINE",
"315 232 LINE SMOOTH",
"522 232 OFFCURVE",
"651 324 OFFCURVE",
"651 477 CURVE SMOOTH",
"651 629 OFFCURVE",
"549 709 OFFCURVE",
"337 709 CURVE SMOOTH",
"60 709 LINE",
"60 0 LINE",
"255 0 LINE"
);
}
);
};
layerId = "A0850C2E-74F0-4B2E-AE90-CE9FC07F2CBD";
paths = (
{
closed = 1;
nodes = (
"255 548 LINE",
"335 548 LINE SMOOTH",
"416 548 OFFCURVE",
"452 526 OFFCURVE",
"452 475 CURVE SMOOTH",
"452 417 OFFCURVE",
"407 394 OFFCURVE",
"325 394 CURVE SMOOTH",
"213 394 LINE",
"213 232 LINE",
"315 232 LINE SMOOTH",
"522 232 OFFCURVE",
"651 324 OFFCURVE",
"651 477 CURVE SMOOTH",
"651 629 OFFCURVE",
"549 709 OFFCURVE",
"329 709 CURVE SMOOTH",
"60 709 LINE",
"60 0 LINE",
"255 0 LINE"
);
}
);
width = 656.68182;
}
);
leftKerningGroup = H;
leftMetricsKey = H;
rightKerningGroup = P;
unicode = 0050;
},
{
glyphname = Thorn;
lastChange = "2019-05-08 20:29:10 +0000";
layers = (
{
background = {
paths = (
{
closed = 1;
nodes = (
"162 525 LINE",
"305 525 LINE SMOOTH",
"435 525 OFFCURVE",
"494 480 OFFCURVE",
"494 384 CURVE SMOOTH",
"494 287 OFFCURVE",
"437 236 OFFCURVE",
"291 236 CURVE SMOOTH",
"146 236 LINE",
"146 167 LINE",
"286 167 LINE SMOOTH",
"484 167 OFFCURVE",
"576 249 OFFCURVE",
"576 384 CURVE SMOOTH",
"576 520 OFFCURVE",
"479 593 OFFCURVE",
"313 593 CURVE SMOOTH",
"81 593 LINE",
"81 -118 LINE",
"162 -118 LINE"
);
}
);
};
layerId = "A3B50665-EA37-4AC6-885C-1233CA61B6BD";
paths = (
{
closed = 1;
nodes = (
"145 525 LINE",
"305 525 LINE SMOOTH",
"435 525 OFFCURVE",
"494 480 OFFCURVE",
"494 384 CURVE SMOOTH",
"494 287 OFFCURVE",
"437 236 OFFCURVE",
"291 236 CURVE SMOOTH",
"145 236 LINE",
"145 167 LINE",
"286 167 LINE SMOOTH",
"484 167 OFFCURVE",
"576 249 OFFCURVE",
"576 384 CURVE SMOOTH",
"576 520 OFFCURVE",
"479 593 OFFCURVE",
"313 593 CURVE SMOOTH",
"145 593 LINE"
);
},
{
closed = 1;
nodes = (
"81 711 LINE",
"81 0 LINE",
"162 0 LINE",
"162 710 LINE"
);
}
);
width = 607;
},
{
background = {
paths = (
{
closed = 1;
nodes = (
"220 482 LINE",
"325 482 LINE SMOOTH",
"423 482 OFFCURVE",
"468 457 OFFCURVE",
"468 382 CURVE SMOOTH",
"468 309 OFFCURVE",
"418 279 OFFCURVE",
"312 279 CURVE SMOOTH",
"188 279 LINE",
"188 151 LINE",
"304 151 LINE SMOOTH",
"508 151 OFFCURVE",
"623 239 OFFCURVE",
"623 385 CURVE SMOOTH",
"623 531 OFFCURVE",
"523 609 OFFCURVE",
"328 609 CURVE SMOOTH",
"68 609 LINE",
"68 -101 LINE",
"220 -101 LINE"
);
}
);
};
layerId = "014D4A40-7C7F-4023-B30E-1F55CE5EA091";
paths = (
{
closed = 1;
nodes = (
"191 482 LINE",
"325 482 LINE SMOOTH",
"423 482 OFFCURVE",
"468 457 OFFCURVE",
"468 382 CURVE SMOOTH",
"468 309 OFFCURVE",
"418 279 OFFCURVE",
"312 279 CURVE SMOOTH",
"191 279 LINE",
"191 151 LINE",
"304 151 LINE SMOOTH",
"508 151 OFFCURVE",
"623 239 OFFCURVE",
"623 385 CURVE SMOOTH",
"623 531 OFFCURVE",
"523 609 OFFCURVE",
"328 609 CURVE SMOOTH",
"191 609 LINE"
);
},
{
closed = 1;
nodes = (
"68 710 LINE",
"68 0 LINE",
"220 0 LINE",
"220 710 LINE"
);
}
);
width = 638;
},
{
background = {
paths = (
{
closed = 1;
nodes = (
"712 556 LINE",
"891 556 LINE SMOOTH",
"1044 556 OFFCURVE",
"1113 496 OFFCURVE",
"1113 385 CURVE SMOOTH",
"1113 271 OFFCURVE",
"1051 205 OFFCURVE",
"876 205 CURVE SMOOTH",
"712 205 LINE",
"712 178 LINE",
"873 178 LINE SMOOTH",
"1067 178 OFFCURVE",
"1143 256 OFFCURVE",
"1143 383 CURVE SMOOTH",
"1143 512 OFFCURVE",
"1048 582 OFFCURVE",
"902 582 CURVE SMOOTH",
"712 582 LINE"
);
},
{
closed = 1;
nodes = (
"690 712 LINE",
"690 0 LINE",
"721 0 LINE",
"721 710 LINE"
);
},
{
closed = 1;
nodes = (
"121 555 LINE",
"291 555 LINE SMOOTH",
"439 555 OFFCURVE",
"511 500 OFFCURVE",
"511 384 CURVE SMOOTH",
"511 259 OFFCURVE",
"440 206 OFFCURVE",
"276 206 CURVE SMOOTH",
"116 206 LINE",
"116 178 LINE",
"275 178 LINE SMOOTH",
"455 178 OFFCURVE",
"543 246 OFFCURVE",
"543 385 CURVE SMOOTH",
"543 508 OFFCURVE",
"453 582 OFFCURVE",
"300 582 CURVE SMOOTH",
"90 582 LINE",
"90 -130 LINE",
"121 -130 LINE"
);
}
);
};
layerId = "7F092816-09A2-4631-A7F8-AD4571964C60";
paths = (
{
closed = 1;
nodes = (
"112 555 LINE",
"291 555 LINE SMOOTH",
"439 555 OFFCURVE",
"512 500 OFFCURVE",
"512 384 CURVE SMOOTH",
"512 259 OFFCURVE",
"440 206 OFFCURVE",
"276 206 CURVE SMOOTH",
"112 206 LINE",
"112 178 LINE",
"275 178 LINE SMOOTH",
"455 178 OFFCURVE",
"543 246 OFFCURVE",
"543 385 CURVE SMOOTH",
"543 508 OFFCURVE",
"453 582 OFFCURVE",
"300 582 CURVE SMOOTH",
"112 582 LINE"
);
},
{
closed = 1;
nodes = (
"90 712 LINE",
"90 0 LINE",
"121 0 LINE",
"121 710 LINE"
);
}
);
width = 584.92424;
},
{
background = {
paths = (
{
closed = 1;
nodes = (
"1018 457 LINE",
"1137 457 LINE SMOOTH",
"1216 457 OFFCURVE",
"1252 443 OFFCURVE",
"1252 381 CURVE SMOOTH",
"1252 322 OFFCURVE",
"1207 304 OFFCURVE",
"1125 304 CURVE SMOOTH",
"1018 304 LINE",
"1018 142 LINE",
"1115 142 LINE SMOOTH",
"1322 142 OFFCURVE",
"1451 233 OFFCURVE",
"1451 386 CURVE SMOOTH",
"1451 537 OFFCURVE",
"1349 618 OFFCURVE",
"1137 618 CURVE SMOOTH",
"1018 618 LINE"
);
},
{
closed = 1;
nodes = (
"860 709 LINE",
"860 0 LINE",
"1055 0 LINE",
"1055 710 LINE"
);
},
{
closed = 1;
nodes = (
"255 457 LINE",
"335 457 LINE SMOOTH",
"416 457 OFFCURVE",
"452 435 OFFCURVE",
"452 384 CURVE SMOOTH",
"452 326 OFFCURVE",
"407 303 OFFCURVE",
"325 303 CURVE SMOOTH",
"213 303 LINE",
"213 141 LINE",
"315 141 LINE SMOOTH",
"522 141 OFFCURVE",
"651 233 OFFCURVE",
"651 386 CURVE SMOOTH",
"651 538 OFFCURVE",
"549 618 OFFCURVE",
"329 618 CURVE SMOOTH",
"60 618 LINE",
"60 -91 LINE",
"255 -91 LINE"
);
}
);
};
layerId = "A0850C2E-74F0-4B2E-AE90-CE9FC07F2CBD";
paths = (
{
closed = 1;
nodes = (
"218 457 LINE",
"335 457 LINE SMOOTH",
"416 457 OFFCURVE",
"452 435 OFFCURVE",
"452 384 CURVE SMOOTH",
"452 326 OFFCURVE",
"407 303 OFFCURVE",
"325 303 CURVE SMOOTH",
"218 303 LINE",
"218 141 LINE",
"315 141 LINE SMOOTH",
"522 141 OFFCURVE",
"651 233 OFFCURVE",
"651 386 CURVE SMOOTH",
"651 538 OFFCURVE",
"549 618 OFFCURVE",
"329 618 CURVE SMOOTH",
"218 618 LINE"
);
},
{
closed = 1;
nodes = (
"60 709 LINE",
"60 0 LINE",
"255 0 LINE",
"255 710 LINE"
);
}
);
width = 656.31818;
}
);
leftKerningGroup = H;
leftMetricsKey = H;
rightKerningGroup = Thorn;
unicode = 00DE;
},
{
glyphname = Q;
lastChange = "2019-05-08 20:29:10 +0000";
layers = (
{
anchors = (
{
name = top;
position = "{384, 710}";
}
);
background = {
anchors = (
{
name = top;
position = "{384, 710}";
}
);
paths = (
{
closed = 1;
nodes = (
"571 -8 OFFCURVE",
"710 139 OFFCURVE",
"710 369 CURVE SMOOTH",
"710 580 OFFCURVE",
"585 720 OFFCURVE",
"398 720 CURVE SMOOTH",
"197 720 OFFCURVE",
"57 564 OFFCURVE",
"57 342 CURVE SMOOTH",
"57 120 OFFCURVE",
"180 -8 OFFCURVE",
"380 -8 CURVE SMOOTH"
);
},
{
closed = 1;
nodes = (
"231 68 OFFCURVE",
"140 166 OFFCURVE",
"140 342 CURVE SMOOTH",
"140 524 OFFCURVE",
"248 645 OFFCURVE",
"399 645 CURVE SMOOTH",
"539 645 OFFCURVE",
"628 538 OFFCURVE",
"628 371 CURVE SMOOTH",
"628 179 OFFCURVE",
"526 68 OFFCURVE",
"380 68 CURVE SMOOTH"
);
},
{
closed = 1;
nodes = (
"329 -10 LINE SMOOTH",
"329 -141 OFFCURVE",
"396 -208 OFFCURVE",
"514 -208 CURVE SMOOTH",
"602 -208 OFFCURVE",
"660 -160 OFFCURVE",
"672 -76 CURVE",
"606 -68 LINE",
"600 -112 OFFCURVE",
"566 -141 OFFCURVE",
"515 -141 CURVE SMOOTH",
"442 -141 OFFCURVE",
"409 -104 OFFCURVE",
"409 -12 CURVE SMOOTH",
"409 47 LINE",
"329 47 LINE"
);
}
);
};
guideLines = (
{
angle = 90;
position = "{739, 356}";
},
{
angle = 90;
position = "{802, 356}";
}
);
layerId = "A3B50665-EA37-4AC6-885C-1233CA61B6BD";
paths = (
{
closed = 1;
nodes = (
"329 -10 LINE SMOOTH",
"329 -141 OFFCURVE",
"396 -208 OFFCURVE",
"514 -208 CURVE SMOOTH",
"602 -208 OFFCURVE",
"660 -160 OFFCURVE",
"672 -76 CURVE",
"606 -68 LINE",
"600 -112 OFFCURVE",
"566 -141 OFFCURVE",
"515 -141 CURVE SMOOTH",
"442 -141 OFFCURVE",
"409 -104 OFFCURVE",
"409 -12 CURVE SMOOTH",
"409 47 LINE",
"329 47 LINE"
);
},
{
closed = 1;
nodes = (
"573 -8 OFFCURVE",
"713 139 OFFCURVE",
"713 369 CURVE SMOOTH",
"713 580 OFFCURVE",
"587 720 OFFCURVE",
"399 720 CURVE SMOOTH",
"197 720 OFFCURVE",
"57 564 OFFCURVE",
"57 342 CURVE SMOOTH",
"57 120 OFFCURVE",
"180 -8 OFFCURVE",
"381 -8 CURVE SMOOTH"
);
},
{
closed = 1;
nodes = (
"232 68 OFFCURVE",
"141 166 OFFCURVE",
"141 342 CURVE SMOOTH",
"141 524 OFFCURVE",
"249 644 OFFCURVE",
"400 644 CURVE SMOOTH",
"540 644 OFFCURVE",
"629 538 OFFCURVE",
"629 371 CURVE SMOOTH",
"629 179 OFFCURVE",
"527 68 OFFCURVE",
"381 68 CURVE SMOOTH"
);
}
);
width = 770;
},
{
anchors = (
{
name = top;
position = "{391, 710}";
}
);
background = {
anchors = (
{
name = top;
position = "{391, 710}";
}
);
paths = (
{
closed = 1;
nodes = (
"597 -8 OFFCURVE",
"743 139 OFFCURVE",
"743 369 CURVE SMOOTH",
"743 580 OFFCURVE",
"609 720 OFFCURVE",
"407 720 CURVE SMOOTH",
"179 720 OFFCURVE",
"38 564 OFFCURVE",
"38 342 CURVE SMOOTH",
"38 120 OFFCURVE",
"171 -12 OFFCURVE",
"394 -10 CURVE SMOOTH"
);
},
{
closed = 1;
nodes = (
"269 129 OFFCURVE",
"197 207 OFFCURVE",
"197 345 CURVE SMOOTH",
"197 486 OFFCURVE",
"283 582 OFFCURVE",
"403 582 CURVE SMOOTH",
"514 582 OFFCURVE",
"585 497 OFFCURVE",
"585 368 CURVE SMOOTH",
"585 217 OFFCURVE",
"504 129 OFFCURVE",
"388 129 CURVE SMOOTH"
);
},
{
closed = 1;
nodes = (
"311 5 LINE SMOOTH",
"311 -128 OFFCURVE",
"393 -210 OFFCURVE",
"530 -210 CURVE SMOOTH",
"630 -210 OFFCURVE",
"704 -161 OFFCURVE",
"716 -57 CURVE",
"590 -42 LINE",
"586 -71 OFFCURVE",
"563 -87 OFFCURVE",
"531 -87 CURVE SMOOTH",
"485 -87 OFFCURVE",
"463 -61 OFFCURVE",
"463 -4 CURVE SMOOTH",
"463 80 LINE",
"311 80 LINE"
);
}
);
};
layerId = "014D4A40-7C7F-4023-B30E-1F55CE5EA091";
paths = (
{
closed = 1;
nodes = (
"311 5 LINE SMOOTH",
"311 -128 OFFCURVE",
"393 -210 OFFCURVE",
"530 -210 CURVE SMOOTH",
"630 -210 OFFCURVE",
"704 -161 OFFCURVE",
"716 -57 CURVE",
"590 -42 LINE",
"586 -71 OFFCURVE",
"563 -87 OFFCURVE",
"531 -87 CURVE SMOOTH",
"485 -87 OFFCURVE",
"463 -61 OFFCURVE",
"463 -4 CURVE SMOOTH",
"463 80 LINE",
"311 80 LINE"
);
},
{
closed = 1;
nodes = (
"595 -8 OFFCURVE",
"742 139 OFFCURVE",
"742 369 CURVE SMOOTH",
"742 580 OFFCURVE",
"607 720 OFFCURVE",
"406 720 CURVE SMOOTH",
"179 720 OFFCURVE",
"38 564 OFFCURVE",
"38 342 CURVE SMOOTH",
"38 120 OFFCURVE",
"171 -12 OFFCURVE",
"393 -10 CURVE SMOOTH"
);
},
{
closed = 1;
nodes = (
"268 129 OFFCURVE",
"196 207 OFFCURVE",
"196 345 CURVE SMOOTH",
"196 486 OFFCURVE",
"282 582 OFFCURVE",
"402 582 CURVE SMOOTH",
"513 582 OFFCURVE",
"584 497 OFFCURVE",
"584 368 CURVE SMOOTH",
"584 217 OFFCURVE",
"503 129 OFFCURVE",
"387 129 CURVE SMOOTH"
);
}
);
width = 780;
},
{
anchors = (
{
name = top;
position = "{379, 710}";
}
);
background = {
anchors = (
{
name = top;
position = "{379, 710}";
}
);
paths = (
{
closed = 1;
nodes = (
"342 -21 LINE SMOOTH",
"342 -150 OFFCURVE",
"398 -207 OFFCURVE",
"503 -207 CURVE SMOOTH",
"582 -207 OFFCURVE",
"629 -159 OFFCURVE",
"641 -90 CURVE",
"617 -87 LINE",
"610 -141 OFFCURVE",
"568 -179 OFFCURVE",
"504 -179 CURVE SMOOTH",
"411 -179 OFFCURVE",
"371 -135 OFFCURVE",
"371 -18 CURVE SMOOTH",
"371 24 LINE",
"342 24 LINE"
);
},
{
closed = 1;
nodes = (
"557 -8 OFFCURVE",
"692 139 OFFCURVE",
"692 369 CURVE SMOOTH",
"692 580 OFFCURVE",
"573 720 OFFCURVE",
"394 720 CURVE SMOOTH",
"210 720 OFFCURVE",
"71 564 OFFCURVE",
"71 342 CURVE SMOOTH",
"71 120 OFFCURVE",
"186 -5 OFFCURVE",
"372 -7 CURVE SMOOTH"
);
},
{
closed = 1;
nodes = (
"206 25 OFFCURVE",
"102 137 OFFCURVE",
"102 340 CURVE SMOOTH",
"102 551 OFFCURVE",
"225 688 OFFCURVE",
"399 688 CURVE SMOOTH",
"559 688 OFFCURVE",
"661 567 OFFCURVE",
"661 373 CURVE SMOOTH",
"661 152 OFFCURVE",
"544 25 OFFCURVE",
"377 25 CURVE SMOOTH"
);
}
);
};
layerId = "7F092816-09A2-4631-A7F8-AD4571964C60";
paths = (
{
closed = 1;
nodes = (
"344 -21 LINE SMOOTH",
"344 -141 OFFCURVE",
"399 -207 OFFCURVE",
"507 -207 CURVE SMOOTH",
"586 -207 OFFCURVE",
"637 -159 OFFCURVE",
"649 -90 CURVE",
"620 -84 LINE",
"612 -141 OFFCURVE",
"571 -179 OFFCURVE",
"507 -179 CURVE SMOOTH",
"412 -179 OFFCURVE",
"375 -128 OFFCURVE",
"375 -18 CURVE SMOOTH",
"375 14 LINE",
"344 14 LINE"
);
},
{
closed = 1;
nodes = (
"559 -7 OFFCURVE",
"692 139 OFFCURVE",
"692 369 CURVE SMOOTH",
"692 580 OFFCURVE",
"574 720 OFFCURVE",
"396 720 CURVE SMOOTH",
"209 720 OFFCURVE",
"71 564 OFFCURVE",
"71 342 CURVE SMOOTH",
"71 120 OFFCURVE",
"189 -7 OFFCURVE",
"376 -7 CURVE SMOOTH"
);
},
{
closed = 1;
nodes = (
"207 24 OFFCURVE",
"103 136 OFFCURVE",
"103 340 CURVE SMOOTH",
"103 552 OFFCURVE",
"225 689 OFFCURVE",
"397 689 CURVE SMOOTH",
"557 689 OFFCURVE",
"660 568 OFFCURVE",
"660 373 CURVE SMOOTH",
"660 151 OFFCURVE",
"543 24 OFFCURVE",
"376 24 CURVE SMOOTH"
);
}
);
width = 762.87879;
},
{
anchors = (
{
name = top;
position = "{395, 710}";
}
);
background = {
anchors = (
{
name = top;
position = "{395, 710}";
}
);
paths = (
{
closed = 1;
nodes = (
"300 14 LINE SMOOTH",
"300 -120 OFFCURVE",
"391 -211 OFFCURVE",
"539 -211 CURVE SMOOTH",
"647 -211 OFFCURVE",
"730 -162 OFFCURVE",
"742 -46 CURVE",
"581 -26 LINE",
"578 -47 OFFCURVE",
"561 -55 OFFCURVE",
"540 -55 CURVE SMOOTH",
"510 -55 OFFCURVE",
"495 -36 OFFCURVE",
"495 0 CURVE SMOOTH",
"495 100 LINE",
"300 100 LINE"
);
},
{
closed = 1;
nodes = (
"608 -8 OFFCURVE",
"759 139 OFFCURVE",
"759 369 CURVE SMOOTH",
"759 580 OFFCURVE",
"619 720 OFFCURVE",
"410 720 CURVE SMOOTH",
"168 720 OFFCURVE",
"27 564 OFFCURVE",
"27 342 CURVE SMOOTH",
"27 120 OFFCURVE",
"166 -14 OFFCURVE",
"400 -11 CURVE SMOOTH"
);
},
{
closed = 1;
nodes = (
"289 165 OFFCURVE",
"229 231 OFFCURVE",
"229 347 CURVE SMOOTH",
"229 464 OFFCURVE",
"301 545 OFFCURVE",
"403 545 CURVE SMOOTH",
"497 545 OFFCURVE",
"558 473 OFFCURVE",
"558 366 CURVE SMOOTH",
"558 239 OFFCURVE",
"489 165 OFFCURVE",
"390 165 CURVE SMOOTH"
);
}
);
};
layerId = "A0850C2E-74F0-4B2E-AE90-CE9FC07F2CBD";
paths = (
{
closed = 1;
nodes = (
"300 4 LINE SMOOTH",
"300 -120 OFFCURVE",
"382 -211 OFFCURVE",
"536 -211 CURVE SMOOTH",
"646 -211 OFFCURVE",
"730 -162 OFFCURVE",
"742 -46 CURVE",
"581 -26 LINE",
"578 -47 OFFCURVE",
"563 -55 OFFCURVE",
"543 -55 CURVE SMOOTH",
"512 -55 OFFCURVE",
"495 -36 OFFCURVE",
"495 -10 CURVE SMOOTH",
"495 100 LINE",
"300 100 LINE"
);
},
{
closed = 1;
nodes = (
"612 -8 OFFCURVE",
"759 145 OFFCURVE",
"759 369 CURVE SMOOTH",
"759 580 OFFCURVE",
"619 720 OFFCURVE",
"410 720 CURVE SMOOTH",
"180 720 OFFCURVE",
"27 569 OFFCURVE",
"27 342 CURVE SMOOTH",
"27 120 OFFCURVE",
"165 -12 OFFCURVE",
"396 -10 CURVE SMOOTH"
);
},
{
closed = 1;
nodes = (
"289 165 OFFCURVE",
"229 232 OFFCURVE",
"229 347 CURVE SMOOTH",
"229 463 OFFCURVE",
"297 545 OFFCURVE",
"402 545 CURVE SMOOTH",
"497 545 OFFCURVE",
"558 474 OFFCURVE",
"558 365 CURVE SMOOTH",
"558 243 OFFCURVE",
"493 165 OFFCURVE",
"391 165 CURVE SMOOTH"
);
}
);
width = 785.90909;
}
);
leftKerningGroup = O;
leftMetricsKey = O;
widthMetricsKey = O;
rightKerningGroup = O;
unicode = 0051;
},
{
glyphname = R;
lastChange = "2019-05-08 20:29:10 +0000";
layers = (
{
anchors = (
{
name = bottom;
position = "{313, 0}";
},
{
name = top;
position = "{313, 710}";
}
);
background = {
anchors = (
{
name = bottom;
position = "{334, 0}";
},
{
name = top;
position = "{333, 710}";
}
);
paths = (
{
closed = 1;
nodes = (
"582 72 OFFCURVE",
"564 66 OFFCURVE",
"544 66 CURVE SMOOTH",
"499 66 OFFCURVE",
"481 79 OFFCURVE",
"443 134 CURVE SMOOTH",
"354 265 LINE SMOOTH",
"322 312 OFFCURVE",
"294 331 OFFCURVE",
"255 331 CURVE",
"249 321 LINE",
"298 321 LINE SMOOTH",
"425 321 OFFCURVE",
"531 386 OFFCURVE",
"531 516 CURVE SMOOTH",
"531 636 OFFCURVE",
"435 710 OFFCURVE",
"283 710 CURVE SMOOTH",
"81 710 LINE",
"81 0 LINE",
"162 0 LINE",
"162 642 LINE",
"277 642 LINE SMOOTH",
"387 642 OFFCURVE",
"450 594 OFFCURVE",
"450 514 CURVE SMOOTH",
"450 424 OFFCURVE",
"384 386 OFFCURVE",
"267 386 CURVE SMOOTH",
"146 386 LINE",
"146 319 LINE",
"186 319 LINE SMOOTH",
"210 319 OFFCURVE",
"235 301 OFFCURVE",
"253 275 CURVE SMOOTH",
"383 83 LINE SMOOTH",
"427 18 OFFCURVE",
"473 -6 OFFCURVE",
"531 -6 CURVE SMOOTH",
"566 -6 OFFCURVE",
"595 2 OFFCURVE",
"616 18 CURVE",
"598 82 LINE"
);
}
);
};
guideLines = (
{
angle = 124.1013;
position = "{422, 179}";
}
);
layerId = "A3B50665-EA37-4AC6-885C-1233CA61B6BD";
paths = (
{
closed = 1;
nodes = (
"582 72 OFFCURVE",
"564 66 OFFCURVE",
"544 66 CURVE SMOOTH",
"499 66 OFFCURVE",
"481 79 OFFCURVE",
"443 134 CURVE SMOOTH",
"354 265 LINE SMOOTH",
"322 312 OFFCURVE",
"294 331 OFFCURVE",
"255 331 CURVE",
"249 321 LINE",
"298 321 LINE SMOOTH",
"425 321 OFFCURVE",
"532 386 OFFCURVE",
"532 516 CURVE SMOOTH",
"532 636 OFFCURVE",
"444 710 OFFCURVE",
"283 710 CURVE SMOOTH",
"81 710 LINE",
"81 0 LINE",
"162 0 LINE",
"162 642 LINE",
"277 642 LINE SMOOTH",
"396 642 OFFCURVE",
"450 594 OFFCURVE",
"450 514 CURVE SMOOTH",
"450 424 OFFCURVE",
"384 385 OFFCURVE",
"267 385 CURVE SMOOTH",
"146 385 LINE",
"146 319 LINE",
"186 319 LINE SMOOTH",
"210 319 OFFCURVE",
"235 301 OFFCURVE",
"253 275 CURVE SMOOTH",
"383 83 LINE SMOOTH",
"427 18 OFFCURVE",
"473 -6 OFFCURVE",
"531 -6 CURVE SMOOTH",
"566 -6 OFFCURVE",
"595 2 OFFCURVE",
"616 18 CURVE",
"598 82 LINE"
);
}
);
width = 587;
},
{
anchors = (
{
name = bottom;
position = "{340, 0}";
},
{
name = top;
position = "{340, 710}";
}
);
background = {
anchors = (
{
name = bottom;
position = "{350, 0}";
},
{
name = top;
position = "{350, 710}";
}
);
paths = (
{
closed = 1;
nodes = (
"632 132 OFFCURVE",
"610 127 OFFCURVE",
"585 127 CURVE SMOOTH",
"548 127 OFFCURVE",
"524 141 OFFCURVE",
"500 177 CURVE SMOOTH",
"462 234 LINE SMOOTH",
"431 280 OFFCURVE",
"395 300 OFFCURVE",
"353 300 CURVE",
"309 282 LINE",
"336 282 LINE SMOOTH",
"483 282 OFFCURVE",
"589 357 OFFCURVE",
"589 491 CURVE SMOOTH",
"589 627 OFFCURVE",
"491 710 OFFCURVE",
"298 710 CURVE SMOOTH",
"68 710 LINE",
"68 0 LINE",
"221 0 LINE",
"221 583 LINE",
"290 583 LINE SMOOTH",
"381 583 OFFCURVE",
"433 555 OFFCURVE",
"433 492 CURVE SMOOTH",
"433 428 OFFCURVE",
"390 400 OFFCURVE",
"286 400 CURVE SMOOTH",
"188 400 LINE",
"188 279 LINE",
"215 279 LINE SMOOTH",
"243 279 OFFCURVE",
"265 270 OFFCURVE",
"288 234 CURVE SMOOTH",
"377 93 LINE SMOOTH",
"419 26 OFFCURVE",
"483 -10 OFFCURVE",
"566 -10 CURVE SMOOTH",
"613 -10 OFFCURVE",
"661 4 OFFCURVE",
"689 26 CURVE",
"653 146 LINE"
);
}
);
};
guideLines = (
{
angle = 122.1118;
position = "{513, 170}";
}
);
layerId = "014D4A40-7C7F-4023-B30E-1F55CE5EA091";
paths = (
{
closed = 1;
nodes = (
"632 132 OFFCURVE",
"610 127 OFFCURVE",
"585 127 CURVE SMOOTH",
"548 127 OFFCURVE",
"524 141 OFFCURVE",
"500 177 CURVE SMOOTH",
"462 234 LINE SMOOTH",
"431 280 OFFCURVE",
"395 300 OFFCURVE",
"353 300 CURVE",
"309 282 LINE",
"336 282 LINE SMOOTH",
"477 282 OFFCURVE",
"588 357 OFFCURVE",
"588 491 CURVE SMOOTH",
"588 627 OFFCURVE",
"491 710 OFFCURVE",
"300 710 CURVE SMOOTH",
"68 710 LINE",
"68 0 LINE",
"221 0 LINE",
"221 583 LINE",
"290 583 LINE SMOOTH",
"381 583 OFFCURVE",
"433 555 OFFCURVE",
"433 492 CURVE SMOOTH",
"433 428 OFFCURVE",
"390 400 OFFCURVE",
"286 400 CURVE SMOOTH",
"188 400 LINE",
"188 279 LINE",
"215 279 LINE SMOOTH",
"243 279 OFFCURVE",
"264 270 OFFCURVE",
"287 234 CURVE SMOOTH",
"376 93 LINE SMOOTH",
"418 26 OFFCURVE",
"483 -10 OFFCURVE",
"566 -10 CURVE SMOOTH",
"613 -10 OFFCURVE",
"661 4 OFFCURVE",
"689 26 CURVE",
"653 146 LINE"
);
}
);
width = 649;
},
{
anchors = (
{
name = bottom;
position = "{294, 0}";
},
{
name = top;
position = "{294, 710}";
}
);
background = {
anchors = (
{
name = bottom;
position = "{294, 0}";
},
{
name = top;
position = "{294, 710}";
}
);
paths = (
{
closed = 1;
nodes = (
"546 29 OFFCURVE",
"531 23 OFFCURVE",
"515 23 CURVE SMOOTH",
"464 23 OFFCURVE",
"450 35 OFFCURVE",
"402 103 CURVE SMOOTH",
"277 287 LINE SMOOTH",
"244 335 OFFCURVE",
"222 353 OFFCURVE",
"185 353 CURVE",
"206 349 LINE",
"271 349 LINE SMOOTH",
"388 349 OFFCURVE",
"492 407 OFFCURVE",
"492 534 CURVE SMOOTH",
"492 642 OFFCURVE",
"411 710 OFFCURVE",
"271 710 CURVE SMOOTH",
"90 710 LINE",
"90 0 LINE",
"120 0 LINE",
"120 684 LINE",
"268 684 LINE SMOOTH",
"407 684 OFFCURVE",
"462 622 OFFCURVE",
"462 530 CURVE SMOOTH",
"462 421 OFFCURVE",
"380 374 OFFCURVE",
"253 374 CURVE SMOOTH",
"116 374 LINE",
"116 347 LINE",
"165 347 LINE SMOOTH",
"187 347 OFFCURVE",
"214 323 OFFCURVE",
"229 304 CURVE SMOOTH",
"388 76 LINE SMOOTH",
"433 12 OFFCURVE",
"466 -3 OFFCURVE",
"506 -3 CURVE SMOOTH",
"533 -3 OFFCURVE",
"548 1 OFFCURVE",
"564 12 CURVE",
"559 36 LINE"
);
}
);
};
layerId = "7F092816-09A2-4631-A7F8-AD4571964C60";
paths = (
{
closed = 1;
nodes = (
"546 29 OFFCURVE",
"531 22 OFFCURVE",
"512 22 CURVE SMOOTH",
"464 22 OFFCURVE",
"448 34 OFFCURVE",
"401 103 CURVE SMOOTH",
"276 287 LINE SMOOTH",
"243 335 OFFCURVE",
"222 354 OFFCURVE",
"185 354 CURVE",
"199 349 LINE",
"271 349 LINE SMOOTH",
"409 349 OFFCURVE",
"492 422 OFFCURVE",
"492 534 CURVE SMOOTH",
"492 642 OFFCURVE",
"415 710 OFFCURVE",
"271 710 CURVE SMOOTH",
"90 710 LINE",
"90 0 LINE",
"120 0 LINE",
"120 683 LINE",
"268 683 LINE SMOOTH",
"405 683 OFFCURVE",
"461 622 OFFCURVE",
"461 530 CURVE SMOOTH",
"461 430 OFFCURVE",
"390 375 OFFCURVE",
"263 375 CURVE SMOOTH",
"116 375 LINE",
"116 349 LINE",
"145 349 LINE SMOOTH",
"187 349 OFFCURVE",
"215 324 OFFCURVE",
"229 304 CURVE SMOOTH",
"386 76 LINE SMOOTH",
"430 12 OFFCURVE",
"463 -3 OFFCURVE",
"509 -3 CURVE SMOOTH",
"531 -3 OFFCURVE",
"550 1 OFFCURVE",
"566 13 CURVE",
"559 36 LINE"
);
}
);
width = 542.84848;
},
{
anchors = (
{
name = bottom;
position = "{356, 0}";
},
{
name = top;
position = "{356, 710}";
}
);
background = {
anchors = (
{
name = bottom;
position = "{356, 0}";
},
{
name = top;
position = "{356, 710}";
}
);
paths = (
{
closed = 1;
nodes = (
"662 168 OFFCURVE",
"637 163 OFFCURVE",
"609 163 CURVE SMOOTH",
"577 163 OFFCURVE",
"549 178 OFFCURVE",
"534 202 CURVE SMOOTH",
"526 216 LINE SMOOTH",
"495 261 OFFCURVE",
"455 282 OFFCURVE",
"411 282 CURVE",
"345 259 LINE",
"358 259 LINE SMOOTH",
"508 259 OFFCURVE",
"621 340 OFFCURVE",
"621 476 CURVE SMOOTH",
"621 622 OFFCURVE",
"519 710 OFFCURVE",
"310 710 CURVE SMOOTH",
"60 710 LINE",
"60 0 LINE",
"256 0 LINE",
"256 548 LINE",
"298 548 LINE SMOOTH",
"372 548 OFFCURVE",
"423 532 OFFCURVE",
"423 479 CURVE SMOOTH",
"423 430 OFFCURVE",
"393 409 OFFCURVE",
"297 409 CURVE SMOOTH",
"213 409 LINE",
"213 256 LINE",
"232 256 LINE SMOOTH",
"262 256 OFFCURVE",
"281 252 OFFCURVE",
"307 210 CURVE SMOOTH",
"372 99 LINE SMOOTH",
"413 30 OFFCURVE",
"489 -12 OFFCURVE",
"587 -12 CURVE SMOOTH",
"641 -12 OFFCURVE",
"700 5 OFFCURVE",
"732 30 CURVE",
"686 184 LINE"
);
}
);
};
layerId = "A0850C2E-74F0-4B2E-AE90-CE9FC07F2CBD";
paths = (
{
closed = 1;
nodes = (
"662 168 OFFCURVE",
"637 163 OFFCURVE",
"612 163 CURVE SMOOTH",
"577 163 OFFCURVE",
"551 177 OFFCURVE",
"535 202 CURVE SMOOTH",
"517 229 LINE SMOOTH",
"493 265 OFFCURVE",
"455 282 OFFCURVE",
"401 282 CURVE",
"345 261 LINE",
"358 261 LINE SMOOTH",
"508 261 OFFCURVE",
"621 340 OFFCURVE",
"621 476 CURVE SMOOTH",
"621 622 OFFCURVE",
"519 710 OFFCURVE",
"300 710 CURVE SMOOTH",
"60 710 LINE",
"60 0 LINE",
"256 0 LINE",
"256 549 LINE",
"298 549 LINE SMOOTH",
"372 549 OFFCURVE",
"423 533 OFFCURVE",
"423 480 CURVE SMOOTH",
"423 431 OFFCURVE",
"393 408 OFFCURVE",
"307 408 CURVE SMOOTH",
"213 408 LINE",
"213 255 LINE",
"232 255 LINE SMOOTH",
"270 255 OFFCURVE",
"285 246 OFFCURVE",
"306 210 CURVE SMOOTH",
"372 99 LINE SMOOTH",
"414 28 OFFCURVE",
"482 -12 OFFCURVE",
"587 -12 CURVE SMOOTH",
"641 -12 OFFCURVE",
"700 5 OFFCURVE",
"732 30 CURVE",
"686 184 LINE"
);
}
);
width = 685.63636;
}
);
leftKerningGroup = H;
leftMetricsKey = H;
rightKerningGroup = R;
unicode = 0052;
},
{
glyphname = S;
lastChange = "2019-05-08 20:29:10 +0000";
layers = (
{
anchors = (
{
name = bottom;
position = "{290, 0}";
},
{
name = top;
position = "{290, 710}";
}
);
background = {
paths = (
{
closed = 1;
nodes = (
"433 -8 OFFCURVE",
"532 72 OFFCURVE",
"532 188 CURVE SMOOTH",
"532 455 OFFCURVE",
"155 309 OFFCURVE",
"155 517 CURVE SMOOTH",
"155 596 OFFCURVE",
"213 648 OFFCURVE",
"301 648 CURVE SMOOTH",
"388 648 OFFCURVE",
"435 608 OFFCURVE",
"453 518 CURVE",
"525 530 LINE",
"510 649 OFFCURVE",
"428 720 OFFCURVE",
"303 720 CURVE SMOOTH",
"170 720 OFFCURVE",
"73 633 OFFCURVE",
"73 514 CURVE SMOOTH",
"73 234 OFFCURVE",
"450 377 OFFCURVE",
"450 187 CURVE SMOOTH",
"450 111 OFFCURVE",
"392 64 OFFCURVE",
"296 64 CURVE SMOOTH",
"181 64 OFFCURVE",
"125 111 OFFCURVE",
"106 221 CURVE",
"29 210 LINE",
"45 66 OFFCURVE",
"134 -8 OFFCURVE",
"290 -8 CURVE SMOOTH"
);
}
);
};
layerId = "A3B50665-EA37-4AC6-885C-1233CA61B6BD";
paths = (
{
closed = 1;
nodes = (
"433 -8 OFFCURVE",
"532 72 OFFCURVE",
"532 188 CURVE SMOOTH",
"532 315 OFFCURVE",
"453 351 OFFCURVE",
"325 379 CURVE SMOOTH",
"210 404 OFFCURVE",
"155 434 OFFCURVE",
"155 517 CURVE SMOOTH",
"155 596 OFFCURVE",
"213 648 OFFCURVE",
"301 648 CURVE SMOOTH",
"388 648 OFFCURVE",
"435 608 OFFCURVE",
"453 518 CURVE",
"525 530 LINE",
"510 649 OFFCURVE",
"428 720 OFFCURVE",
"303 720 CURVE SMOOTH",
"170 720 OFFCURVE",
"73 633 OFFCURVE",
"73 514 CURVE SMOOTH",
"73 376 OFFCURVE",
"159 340 OFFCURVE",
"293 309 CURVE SMOOTH",
"399 284 OFFCURVE",
"450 261 OFFCURVE",
"450 187 CURVE SMOOTH",
"450 111 OFFCURVE",
"392 64 OFFCURVE",
"296 64 CURVE SMOOTH",
"181 64 OFFCURVE",
"125 111 OFFCURVE",
"106 221 CURVE",
"29 210 LINE",
"45 66 OFFCURVE",
"134 -8 OFFCURVE",
"290 -8 CURVE SMOOTH"
);
}
);
width = 568;
},
{
anchors = (
{
name = bottom;
position = "{306, 0}";
},
{
name = top;
position = "{306, 710}";
}
);
background = {
paths = (
{
closed = 1;
nodes = (
"462 -9 OFFCURVE",
"574 80 OFFCURVE",
"574 210 CURVE SMOOTH",
"574 464 OFFCURVE",
"215 368 OFFCURVE",
"215 509 CURVE SMOOTH",
"215 558 OFFCURVE",
"256 590 OFFCURVE",
"317 590 CURVE SMOOTH",
"379 590 OFFCURVE",
"420 558 OFFCURVE",
"431 500 CURVE",
"568 523 LINE",
"554 645 OFFCURVE",
"461 720 OFFCURVE",
"324 720 CURVE SMOOTH",
"166 720 OFFCURVE",
"58 628 OFFCURVE",
"58 497 CURVE SMOOTH",
"57 234 OFFCURVE",
"417 325 OFFCURVE",
"417 197 CURVE SMOOTH",
"417 149 OFFCURVE",
"375 121 OFFCURVE",
"302 121 CURVE SMOOTH",
"217 121 OFFCURVE",
"168 160 OFFCURVE",
"159 233 CURVE",
"14 212 LINE",
"26 67 OFFCURVE",
"123 -9 OFFCURVE",
"296 -9 CURVE SMOOTH"
);
}
);
};
layerId = "014D4A40-7C7F-4023-B30E-1F55CE5EA091";
paths = (
{
closed = 1;
nodes = (
"462 -9 OFFCURVE",
"574 80 OFFCURVE",
"574 210 CURVE SMOOTH",
"574 344 OFFCURVE",
"482 381 OFFCURVE",
"341 416 CURVE SMOOTH",
"244 440 OFFCURVE",
"215 463 OFFCURVE",
"215 509 CURVE SMOOTH",
"215 558 OFFCURVE",
"256 590 OFFCURVE",
"317 590 CURVE SMOOTH",
"379 590 OFFCURVE",
"420 558 OFFCURVE",
"431 500 CURVE",
"568 523 LINE",
"554 645 OFFCURVE",
"461 720 OFFCURVE",
"324 720 CURVE SMOOTH",
"166 720 OFFCURVE",
"58 628 OFFCURVE",
"58 497 CURVE SMOOTH",
"57 369 OFFCURVE",
"138 319 OFFCURVE",
"283 284 CURVE SMOOTH",
"378 262 OFFCURVE",
"417 241 OFFCURVE",
"417 197 CURVE SMOOTH",
"417 149 OFFCURVE",
"375 121 OFFCURVE",
"302 121 CURVE SMOOTH",
"217 121 OFFCURVE",
"168 160 OFFCURVE",
"159 233 CURVE",
"14 212 LINE",
"26 67 OFFCURVE",
"123 -9 OFFCURVE",
"296 -9 CURVE SMOOTH"
);
}
);
width = 596;
},
{
anchors = (
{
name = bottom;
position = "{279, 0}";
},
{
name = top;
position = "{279, 710}";
}
);
background = {
anchors = (
{
name = bottom;
position = "{279, 0}";
},
{
name = top;
position = "{279, 710}";
}
);
paths = (
{
closed = 1;
nodes = (
"1112 -7 OFFCURVE",
"1202 66 OFFCURVE",
"1202 172 CURVE SMOOTH",
"1202 449 OFFCURVE",
"812 267 OFFCURVE",
"812 523 CURVE SMOOTH",
"812 623 OFFCURVE",
"882 689 OFFCURVE",
"990 689 CURVE SMOOTH",
"1094 689 OFFCURVE",
"1146 644 OFFCURVE",
"1169 531 CURVE",
"1194 535 LINE",
"1179 652 OFFCURVE",
"1104 720 OFFCURVE",
"988 720 CURVE SMOOTH",
"873 720 OFFCURVE",
"784 637 OFFCURVE",
"784 526 CURVE SMOOTH",
"784 234 OFFCURVE",
"1174 414 OFFCURVE",
"1174 180 CURVE SMOOTH",
"1174 84 OFFCURVE",
"1104 23 OFFCURVE",
"992 23 CURVE SMOOTH",
"855 23 OFFCURVE",
"794 76 OFFCURVE",
"768 212 CURVE",
"740 209 LINE",
"759 65 OFFCURVE",
"842 -7 OFFCURVE",
"986 -7 CURVE SMOOTH"
);
},
{
closed = 1;
nodes = (
"416 -7 OFFCURVE",
"504 68 OFFCURVE",
"504 176 CURVE SMOOTH",
"504 445 OFFCURVE",
"114 268 OFFCURVE",
"114 525 CURVE SMOOTH",
"114 625 OFFCURVE",
"183 690 OFFCURVE",
"289 690 CURVE SMOOTH",
"393 690 OFFCURVE",
"450 641 OFFCURVE",
"468 531 CURVE",
"494 535 LINE",
"478 657 OFFCURVE",
"404 720 OFFCURVE",
"289 720 CURVE SMOOTH",
"169 720 OFFCURVE",
"82 636 OFFCURVE",
"82 525 CURVE SMOOTH",
"82 236 OFFCURVE",
"472 416 OFFCURVE",
"472 176 CURVE SMOOTH",
"472 82 OFFCURVE",
"402 23 OFFCURVE",
"290 23 CURVE SMOOTH",
"155 23 OFFCURVE",
"94 74 OFFCURVE",
"70 212 CURVE",
"40 209 LINE",
"59 62 OFFCURVE",
"143 -7 OFFCURVE",
"288 -7 CURVE SMOOTH"
);
}
);
};
layerId = "7F092816-09A2-4631-A7F8-AD4571964C60";
paths = (
{
closed = 1;
nodes = (
"416 -7 OFFCURVE",
"503 64 OFFCURVE",
"503 176 CURVE SMOOTH",
"503 288 OFFCURVE",
"444 329 OFFCURVE",
"289 360 CURVE SMOOTH",
"179 382 OFFCURVE",
"114 414 OFFCURVE",
"114 525 CURVE SMOOTH",
"114 625 OFFCURVE",
"183 690 OFFCURVE",
"289 690 CURVE SMOOTH",
"393 690 OFFCURVE",
"450 641 OFFCURVE",
"468 531 CURVE",
"496 535 LINE",
"480 657 OFFCURVE",
"404 720 OFFCURVE",
"289 720 CURVE SMOOTH",
"169 720 OFFCURVE",
"83 636 OFFCURVE",
"83 525 CURVE SMOOTH",
"83 388 OFFCURVE",
"170 353 OFFCURVE",
"282 331 CURVE SMOOTH",
"416 305 OFFCURVE",
"472 276 OFFCURVE",
"472 176 CURVE SMOOTH",
"472 82 OFFCURVE",
"402 23 OFFCURVE",
"290 23 CURVE SMOOTH",
"155 23 OFFCURVE",
"94 74 OFFCURVE",
"70 212 CURVE",
"40 209 LINE",
"57 60 OFFCURVE",
"143 -7 OFFCURVE",
"288 -7 CURVE SMOOTH"
);
}
);
width = 548.06061;
},
{
anchors = (
{
name = bottom;
position = "{315, 0}";
},
{
name = top;
position = "{315, 710}";
}
);
background = {
anchors = (
{
name = bottom;
position = "{315, 0}";
},
{
name = top;
position = "{315, 710}";
}
);
paths = (
{
closed = 1;
nodes = (
"479 -10 OFFCURVE",
"599 84 OFFCURVE",
"599 223 CURVE SMOOTH",
"599 469 OFFCURVE",
"251 403 OFFCURVE",
"251 505 CURVE SMOOTH",
"251 536 OFFCURVE",
"281 555 OFFCURVE",
"326 555 CURVE SMOOTH",
"374 555 OFFCURVE",
"411 528 OFFCURVE",
"418 489 CURVE",
"593 519 LINE",
"580 643 OFFCURVE",
"480 720 OFFCURVE",
"337 720 CURVE SMOOTH",
"164 720 OFFCURVE",
"49 625 OFFCURVE",
"49 487 CURVE SMOOTH",
"48 234 OFFCURVE",
"397 294 OFFCURVE",
"397 203 CURVE SMOOTH",
"397 171 OFFCURVE",
"365 155 OFFCURVE",
"305 155 CURVE SMOOTH",
"238 155 OFFCURVE",
"193 189 OFFCURVE",
"190 240 CURVE",
"5 213 LINE",
"15 68 OFFCURVE",
"117 -10 OFFCURVE",
"299 -10 CURVE SMOOTH"
);
}
);
};
layerId = "A0850C2E-74F0-4B2E-AE90-CE9FC07F2CBD";
paths = (
{
closed = 1;
nodes = (
"479 -10 OFFCURVE",
"599 84 OFFCURVE",
"599 223 CURVE SMOOTH",
"599 352 OFFCURVE",
"512 398 OFFCURVE",
"349 439 CURVE SMOOTH",
"273 458 OFFCURVE",
"251 477 OFFCURVE",
"251 505 CURVE SMOOTH",
"251 536 OFFCURVE",
"281 555 OFFCURVE",
"326 555 CURVE SMOOTH",
"374 555 OFFCURVE",
"411 528 OFFCURVE",
"418 489 CURVE",
"593 519 LINE",
"580 643 OFFCURVE",
"480 720 OFFCURVE",
"337 720 CURVE SMOOTH",
"164 720 OFFCURVE",
"50 625 OFFCURVE",
"49 487 CURVE SMOOTH",
"48 365 OFFCURVE",
"123 306 OFFCURVE",
"288 266 CURVE SMOOTH",
"365 247 OFFCURVE",
"397 232 OFFCURVE",
"397 203 CURVE SMOOTH",
"397 171 OFFCURVE",
"365 155 OFFCURVE",
"305 155 CURVE SMOOTH",
"238 155 OFFCURVE",
"193 189 OFFCURVE",
"190 240 CURVE",
"5 213 LINE",
"18 68 OFFCURVE",
"120 -10 OFFCURVE",
"299 -10 CURVE SMOOTH"
);
}
);
width = 612.54545;
}
);
leftKerningGroup = S;
note = s;
rightKerningGroup = S;
unicode = 0053;
},
{
glyphname = Germandbls;
lastChange = "2019-05-08 20:29:10 +0000";
layers = (
{
background = {
paths = (
{
closed = 1;
nodes = (
"188 720 OFFCURVE",
"81 617 OFFCURVE",
"81 432 CURVE SMOOTH",
"81 0 LINE",
"164 0 LINE",
"164 434 LINE SMOOTH",
"164 576 OFFCURVE",
"237 649 OFFCURVE",
"382 649 CURVE SMOOTH",
"485 649 OFFCURVE",
"547 599 OFFCURVE",
"547 517 CURVE SMOOTH",
"547 440 OFFCURVE",
"492 392 OFFCURVE",
"408 392 CURVE SMOOTH",
"354 392 LINE",
"354 323 LINE",
"409 323 LINE SMOOTH",
"512 323 OFFCURVE",
"571 273 OFFCURVE",
"571 183 CURVE SMOOTH",
"571 110 OFFCURVE",
"521 64 OFFCURVE",
"444 64 CURVE SMOOTH",
"358 64 OFFCURVE",
"307 107 OFFCURVE",
"291 194 CURVE",
"220 174 LINE",
"239 58 OFFCURVE",
"319 -8 OFFCURVE",
"444 -8 CURVE SMOOTH",
"569 -8 OFFCURVE",
"652 66 OFFCURVE",
"652 178 CURVE SMOOTH",
"652 280 OFFCURVE",
"589 351 OFFCURVE",
"483 370 CURVE",
"483 351 LINE",
"571 372 OFFCURVE",
"628 430 OFFCURVE",
"628 520 CURVE SMOOTH",
"628 641 OFFCURVE",
"532 720 OFFCURVE",
"382 720 CURVE SMOOTH"
);
}
);
};
layerId = "A3B50665-EA37-4AC6-885C-1233CA61B6BD";
paths = (
{
closed = 1;
nodes = (
"188 720 OFFCURVE",
"81 617 OFFCURVE",
"81 432 CURVE SMOOTH",
"81 0 LINE",
"164 0 LINE",
"164 434 LINE SMOOTH",
"164 576 OFFCURVE",
"237 649 OFFCURVE",
"382 649 CURVE SMOOTH",
"485 649 OFFCURVE",
"547 599 OFFCURVE",
"547 517 CURVE SMOOTH",
"547 440 OFFCURVE",
"492 392 OFFCURVE",
"408 392 CURVE SMOOTH",
"354 392 LINE",
"354 323 LINE",
"409 323 LINE SMOOTH",
"512 323 OFFCURVE",
"571 273 OFFCURVE",
"571 183 CURVE SMOOTH",
"571 110 OFFCURVE",
"521 63 OFFCURVE",
"444 63 CURVE SMOOTH",
"358 63 OFFCURVE",
"307 107 OFFCURVE",
"291 194 CURVE",
"220 174 LINE",
"239 58 OFFCURVE",
"319 -8 OFFCURVE",
"444 -8 CURVE SMOOTH",
"569 -8 OFFCURVE",
"653 66 OFFCURVE",
"653 178 CURVE SMOOTH",
"653 280 OFFCURVE",
"589 351 OFFCURVE",
"483 370 CURVE",
"483 351 LINE",
"571 372 OFFCURVE",
"629 430 OFFCURVE",
"629 520 CURVE SMOOTH",
"629 641 OFFCURVE",
"532 720 OFFCURVE",
"382 720 CURVE SMOOTH"
);
}
);
width = 701;
},
{
background = {
paths = (
{
closed = 1;
nodes = (
"188 720 OFFCURVE",
"68 606 OFFCURVE",
"68 396 CURVE SMOOTH",
"68 0 LINE",
"224 0 LINE",
"224 399 LINE SMOOTH",
"224 528 OFFCURVE",
"285 590 OFFCURVE",
"412 590 CURVE SMOOTH",
"489 590 OFFCURVE",
"540 558 OFFCURVE",
"540 503 CURVE SMOOTH",
"540 448 OFFCURVE",
"502 423 OFFCURVE",
"424 423 CURVE SMOOTH",
"373 423 LINE",
"373 294 LINE",
"443 294 LINE SMOOTH",
"525 294 OFFCURVE",
"566 264 OFFCURVE",
"566 203 CURVE SMOOTH",
"566 153 OFFCURVE",
"536 123 OFFCURVE",
"486 123 CURVE SMOOTH",
"433 123 OFFCURVE",
"397 157 OFFCURVE",
"390 214 CURVE",
"259 179 LINE",
"279 60 OFFCURVE",
"361 -10 OFFCURVE",
"489 -10 CURVE SMOOTH",
"626 -10 OFFCURVE",
"716 68 OFFCURVE",
"716 188 CURVE SMOOTH",
"716 282 OFFCURVE",
"658 350 OFFCURVE",
"556 375 CURVE",
"554 355 LINE",
"642 376 OFFCURVE",
"690 430 OFFCURVE",
"690 515 CURVE SMOOTH",
"690 641 OFFCURVE",
"581 720 OFFCURVE",
"413 720 CURVE SMOOTH"
);
}
);
};
layerId = "014D4A40-7C7F-4023-B30E-1F55CE5EA091";
paths = (
{
closed = 1;
nodes = (
"188 720 OFFCURVE",
"68 606 OFFCURVE",
"68 392 CURVE SMOOTH",
"68 0 LINE",
"224 0 LINE",
"224 399 LINE SMOOTH",
"224 528 OFFCURVE",
"285 589 OFFCURVE",
"412 589 CURVE SMOOTH",
"489 589 OFFCURVE",
"540 558 OFFCURVE",
"540 503 CURVE SMOOTH",
"540 448 OFFCURVE",
"502 423 OFFCURVE",
"424 423 CURVE SMOOTH",
"373 423 LINE",
"373 294 LINE",
"443 294 LINE SMOOTH",
"525 294 OFFCURVE",
"566 264 OFFCURVE",
"566 203 CURVE SMOOTH",
"566 153 OFFCURVE",
"536 123 OFFCURVE",
"486 123 CURVE SMOOTH",
"433 123 OFFCURVE",
"397 157 OFFCURVE",
"390 214 CURVE",
"257 179 LINE",
"277 60 OFFCURVE",
"359 -10 OFFCURVE",
"489 -10 CURVE SMOOTH",
"631 -10 OFFCURVE",
"721 68 OFFCURVE",
"721 188 CURVE SMOOTH",
"721 282 OFFCURVE",
"663 351 OFFCURVE",
"561 376 CURVE",
"559 356 LINE",
"647 377 OFFCURVE",
"695 430 OFFCURVE",
"695 515 CURVE SMOOTH",
"695 641 OFFCURVE",
"586 720 OFFCURVE",
"413 720 CURVE SMOOTH"
);
}
);
width = 746;
},
{
background = {
paths = (
{
closed = 1;
nodes = (
"188 720 OFFCURVE",
"90 625 OFFCURVE",
"90 460 CURVE SMOOTH",
"90 0 LINE",
"121 0 LINE",
"121 459 LINE SMOOTH",
"121 610 OFFCURVE",
"203 692 OFFCURVE",
"361 692 CURVE SMOOTH",
"482 692 OFFCURVE",
"552 628 OFFCURVE",
"552 527 CURVE SMOOTH",
"552 434 OFFCURVE",
"485 370 OFFCURVE",
"397 370 CURVE SMOOTH",
"340 370 LINE",
"340 344 LINE",
"385 344 LINE SMOOTH",
"503 344 OFFCURVE",
"575 279 OFFCURVE",
"575 169 CURVE SMOOTH",
"575 79 OFFCURVE",
"510 20 OFFCURVE",
"414 20 CURVE SMOOTH",
"305 20 OFFCURVE",
"243 71 OFFCURVE",
"221 180 CURVE",
"194 170 LINE",
"212 57 OFFCURVE",
"291 -7 OFFCURVE",
"412 -7 CURVE SMOOTH",
"525 -7 OFFCURVE",
"605 65 OFFCURVE",
"605 171 CURVE SMOOTH",
"605 279 OFFCURVE",
"536 351 OFFCURVE",
"427 366 CURVE",
"429 347 LINE",
"517 368 OFFCURVE",
"582 430 OFFCURVE",
"582 524 CURVE SMOOTH",
"582 641 OFFCURVE",
"494 720 OFFCURVE",
"360 720 CURVE SMOOTH"
);
}
);
};
layerId = "7F092816-09A2-4631-A7F8-AD4571964C60";
paths = (
{
closed = 1;
nodes = (
"184 720 OFFCURVE",
"90 625 OFFCURVE",
"90 457 CURVE SMOOTH",
"90 0 LINE",
"121 0 LINE",
"121 457 LINE SMOOTH",
"121 610 OFFCURVE",
"203 691 OFFCURVE",
"358 691 CURVE SMOOTH",
"479 691 OFFCURVE",
"551 629 OFFCURVE",
"551 526 CURVE SMOOTH",
"551 434 OFFCURVE",
"485 371 OFFCURVE",
"397 371 CURVE SMOOTH",
"340 371 LINE",
"340 344 LINE",
"385 344 LINE SMOOTH",
"503 344 OFFCURVE",
"574 279 OFFCURVE",
"574 172 CURVE SMOOTH",
"574 74 OFFCURVE",
"510 21 OFFCURVE",
"414 21 CURVE SMOOTH",
"305 21 OFFCURVE",
"243 71 OFFCURVE",
"221 180 CURVE",
"194 170 LINE",
"212 57 OFFCURVE",
"288 -7 OFFCURVE",
"414 -7 CURVE SMOOTH",
"525 -7 OFFCURVE",
"605 60 OFFCURVE",
"605 172 CURVE SMOOTH",
"605 279 OFFCURVE",
"536 351 OFFCURVE",
"431 366 CURVE",
"433 347 LINE",
"517 368 OFFCURVE",
"582 430 OFFCURVE",
"582 526 CURVE SMOOTH",
"582 641 OFFCURVE",
"493 720 OFFCURVE",
"358 720 CURVE SMOOTH"
);
}
);
width = 669;
},
{
background = {
paths = (
{
closed = 1;
nodes = (
"188 720 OFFCURVE",
"60 600 OFFCURVE",
"60 369 CURVE SMOOTH",
"60 0 LINE",
"260 0 LINE",
"260 378 LINE SMOOTH",
"260 500 OFFCURVE",
"313 553 OFFCURVE",
"430 553 CURVE SMOOTH",
"491 553 OFFCURVE",
"536 534 OFFCURVE",
"536 495 CURVE SMOOTH",
"536 452 OFFCURVE",
"508 441 OFFCURVE",
"433 441 CURVE SMOOTH",
"384 441 LINE",
"384 277 LINE",
"463 277 LINE SMOOTH",
"533 277 OFFCURVE",
"563 259 OFFCURVE",
"563 215 CURVE SMOOTH",
"563 178 OFFCURVE",
"545 159 OFFCURVE",
"511 159 CURVE SMOOTH",
"477 159 OFFCURVE",
"450 187 OFFCURVE",
"448 226 CURVE",
"279 182 LINE",
"299 61 OFFCURVE",
"382 -11 OFFCURVE",
"515 -11 CURVE SMOOTH",
"668 -11 OFFCURVE",
"761 69 OFFCURVE",
"761 194 CURVE SMOOTH",
"761 283 OFFCURVE",
"706 351 OFFCURVE",
"607 379 CURVE",
"604 359 LINE",
"692 380 OFFCURVE",
"734 430 OFFCURVE",
"734 512 CURVE SMOOTH",
"734 641 OFFCURVE",
"618 720 OFFCURVE",
"431 720 CURVE SMOOTH"
);
}
);
};
layerId = "A0850C2E-74F0-4B2E-AE90-CE9FC07F2CBD";
paths = (
{
closed = 1;
nodes = (
"188 720 OFFCURVE",
"60 600 OFFCURVE",
"60 369 CURVE SMOOTH",
"60 0 LINE",
"260 0 LINE",
"260 378 LINE SMOOTH",
"260 500 OFFCURVE",
"313 553 OFFCURVE",
"425 553 CURVE SMOOTH",
"491 553 OFFCURVE",
"536 534 OFFCURVE",
"536 495 CURVE SMOOTH",
"536 452 OFFCURVE",
"508 441 OFFCURVE",
"433 441 CURVE SMOOTH",
"384 441 LINE",
"384 277 LINE",
"463 277 LINE SMOOTH",
"533 277 OFFCURVE",
"563 259 OFFCURVE",
"563 215 CURVE SMOOTH",
"563 178 OFFCURVE",
"545 159 OFFCURVE",
"511 159 CURVE SMOOTH",
"475 159 OFFCURVE",
"450 187 OFFCURVE",
"448 226 CURVE",
"279 182 LINE",
"299 61 OFFCURVE",
"382 -11 OFFCURVE",
"525 -11 CURVE SMOOTH",
"668 -11 OFFCURVE",
"761 69 OFFCURVE",
"761 194 CURVE SMOOTH",
"761 283 OFFCURVE",
"706 351 OFFCURVE",
"607 379 CURVE",
"604 359 LINE",
"692 380 OFFCURVE",
"734 430 OFFCURVE",
"734 512 CURVE SMOOTH",
"734 641 OFFCURVE",
"618 720 OFFCURVE",
"431 720 CURVE SMOOTH"
);
}
);
width = 772;
}
);
leftKerningGroup = H;
leftMetricsKey = H;
rightKerningGroup = B;
rightMetricsKey = B;
unicode = 1E9E;
},
{
glyphname = Schwa;
lastChange = "2019-05-08 20:29:10 +0000";
layers = (
{
background = {
paths = (
{
closed = 1;
nodes = (
"1357 -8 OFFCURVE",
"1497 139 OFFCURVE",
"1497 369 CURVE SMOOTH",
"1497 580 OFFCURVE",
"1371 720 OFFCURVE",
"1183 720 CURVE SMOOTH",
"981 720 OFFCURVE",
"841 564 OFFCURVE",
"841 342 CURVE SMOOTH",
"841 120 OFFCURVE",
"964 -8 OFFCURVE",
"1165 -8 CURVE SMOOTH"
);
},
{
closed = 1;
nodes = (
"1016 68 OFFCURVE",
"925 166 OFFCURVE",
"925 342 CURVE SMOOTH",
"925 524 OFFCURVE",
"1033 644 OFFCURVE",
"1184 644 CURVE SMOOTH",
"1324 644 OFFCURVE",
"1413 538 OFFCURVE",
"1413 371 CURVE SMOOTH",
"1413 179 OFFCURVE",
"1311 68 OFFCURVE",
"1165 68 CURVE SMOOTH"
);
},
{
closed = 1;
nodes = (
"168 528 LINE",
"209 604 OFFCURVE",
"279 644 OFFCURVE",
"371 644 CURVE SMOOTH",
"523 644 OFFCURVE",
"613 543 OFFCURVE",
"613 370 CURVE SMOOTH",
"613 191 OFFCURVE",
"507 68 OFFCURVE",
"356 68 CURVE SMOOTH",
"271 68 OFFCURVE",
"208 103 OFFCURVE",
"168 175 CURVE",
"104 127 LINE",
"156 38 OFFCURVE",
"242 -8 OFFCURVE",
"354 -8 CURVE SMOOTH",
"558 -8 OFFCURVE",
"697 146 OFFCURVE",
"697 370 CURVE SMOOTH",
"697 588 OFFCURVE",
"574 720 OFFCURVE",
"371 720 CURVE SMOOTH",
"253 720 OFFCURVE",
"157 669 OFFCURVE",
"105 576 CURVE"
);
},
{
closed = 1;
nodes = (
"246 720 OFFCURVE",
"146 671 OFFCURVE",
"85 576 CURVE",
"148 528 LINE",
"199 607 OFFCURVE",
"272 644 OFFCURVE",
"371 644 CURVE SMOOTH",
"520 644 OFFCURVE",
"614 551 OFFCURVE",
"614 372 CURVE SMOOTH",
"614 351 LINE SMOOTH",
"614 154 OFFCURVE",
"509 65 OFFCURVE",
"371 65 CURVE SMOOTH",
"215 65 OFFCURVE",
"132 169 OFFCURVE",
"146 334 CURVE",
"127 317 LINE",
"656 317 LINE",
"656 386 LINE",
"61 386 LINE",
"33 146 OFFCURVE",
"153 -8 OFFCURVE",
"371 -8 CURVE SMOOTH",
"561 -8 OFFCURVE",
"697 126 OFFCURVE",
"697 366 CURVE SMOOTH",
"697 587 OFFCURVE",
"572 720 OFFCURVE",
"371 720 CURVE SMOOTH"
);
}
);
};
layerId = "A3B50665-EA37-4AC6-885C-1233CA61B6BD";
paths = (
{
closed = 1;
nodes = (
"252 720 OFFCURVE",
"152 671 OFFCURVE",
"91 576 CURVE",
"154 528 LINE",
"205 607 OFFCURVE",
"278 644 OFFCURVE",
"374 644 CURVE SMOOTH",
"520 644 OFFCURVE",
"614 551 OFFCURVE",
"614 368 CURVE SMOOTH",
"614 347 LINE SMOOTH",
"614 154 OFFCURVE",
"509 65 OFFCURVE",
"371 65 CURVE SMOOTH",
"215 65 OFFCURVE",
"132 169 OFFCURVE",
"146 330 CURVE",
"127 313 LINE",
"656 313 LINE",
"656 382 LINE",
"61 382 LINE",
"33 146 OFFCURVE",
"152 -8 OFFCURVE",
"369 -8 CURVE SMOOTH",
"560 -8 OFFCURVE",
"697 126 OFFCURVE",
"697 366 CURVE SMOOTH",
"697 587 OFFCURVE",
"572 720 OFFCURVE",
"374 720 CURVE SMOOTH"
);
}
);
width = 754;
},
{
background = {
paths = (
{
closed = 1;
nodes = (
"204 481 LINE",
"242 549 OFFCURVE",
"309 581 OFFCURVE",
"376 581 CURVE SMOOTH",
"505 581 OFFCURVE",
"580 502 OFFCURVE",
"580 366 CURVE SMOOTH",
"580 226 OFFCURVE",
"492 129 OFFCURVE",
"364 129 CURVE SMOOTH",
"301 129 OFFCURVE",
"240 156 OFFCURVE",
"206 219 CURVE",
"87 134 LINE",
"149 37 OFFCURVE",
"235 -10 OFFCURVE",
"363 -10 CURVE SMOOTH",
"586 -10 OFFCURVE",
"739 144 OFFCURVE",
"739 369 CURVE SMOOTH",
"739 588 OFFCURVE",
"605 720 OFFCURVE",
"378 720 CURVE SMOOTH",
"253 720 OFFCURVE",
"146 667 OFFCURVE",
"88 571 CURVE"
);
},
{
closed = 1;
nodes = (
"-508 -8 OFFCURVE",
"-361 139 OFFCURVE",
"-361 369 CURVE SMOOTH",
"-361 580 OFFCURVE",
"-496 720 OFFCURVE",
"-697 720 CURVE SMOOTH",
"-924 720 OFFCURVE",
"-1065 564 OFFCURVE",
"-1065 342 CURVE SMOOTH",
"-1065 120 OFFCURVE",
"-932 -12 OFFCURVE",
"-710 -10 CURVE SMOOTH"
);
},
{
closed = 1;
nodes = (
"-835 129 OFFCURVE",
"-907 207 OFFCURVE",
"-907 345 CURVE SMOOTH",
"-907 486 OFFCURVE",
"-821 582 OFFCURVE",
"-701 582 CURVE SMOOTH",
"-590 582 OFFCURVE",
"-519 497 OFFCURVE",
"-519 368 CURVE SMOOTH",
"-519 217 OFFCURVE",
"-600 129 OFFCURVE",
"-716 129 CURVE SMOOTH"
);
},
{
closed = 1;
nodes = (
"244 720 OFFCURVE",
"133 661 OFFCURVE",
"68 571 CURVE",
"184 481 LINE",
"230 547 OFFCURVE",
"300 581 OFFCURVE",
"381 581 CURVE SMOOTH",
"506 581 OFFCURVE",
"580 505 OFFCURVE",
"580 383 CURVE SMOOTH",
"580 349 LINE SMOOTH",
"580 210 OFFCURVE",
"510 127 OFFCURVE",
"389 127 CURVE SMOOTH",
"265 127 OFFCURVE",
"207 186 OFFCURVE",
"210 304 CURVE",
"178 282 LINE",
"648 282 LINE",
"648 409 LINE",
"43 409 LINE",
"8 158 OFFCURVE",
"144 -10 OFFCURVE",
"383 -10 CURVE SMOOTH",
"591 -10 OFFCURVE",
"739 145 OFFCURVE",
"739 364 CURVE SMOOTH",
"739 584 OFFCURVE",
"604 720 OFFCURVE",
"380 720 CURVE SMOOTH"
);
}
);
};
layerId = "014D4A40-7C7F-4023-B30E-1F55CE5EA091";
paths = (
{
closed = 1;
nodes = (
"244 720 OFFCURVE",
"133 661 OFFCURVE",
"68 571 CURVE",
"184 481 LINE",
"230 547 OFFCURVE",
"300 581 OFFCURVE",
"381 581 CURVE SMOOTH",
"506 581 OFFCURVE",
"580 505 OFFCURVE",
"580 380 CURVE SMOOTH",
"580 346 LINE SMOOTH",
"580 210 OFFCURVE",
"510 127 OFFCURVE",
"389 127 CURVE SMOOTH",
"265 127 OFFCURVE",
"208 186 OFFCURVE",
"208 301 CURVE",
"178 279 LINE",
"648 279 LINE",
"648 406 LINE",
"43 406 LINE",
"8 158 OFFCURVE",
"144 -10 OFFCURVE",
"383 -10 CURVE SMOOTH",
"591 -10 OFFCURVE",
"739 145 OFFCURVE",
"739 364 CURVE SMOOTH",
"739 584 OFFCURVE",
"604 720 OFFCURVE",
"380 720 CURVE SMOOTH"
);
}
);
width = 777;
},
{
background = {
paths = (
{
closed = 1;
nodes = (
"258 720 OFFCURVE",
"166 678 OFFCURVE",
"107 580 CURVE",
"133 561 LINE",
"187 650 OFFCURVE",
"262 689 OFFCURVE",
"369 689 CURVE SMOOTH",
"530 689 OFFCURVE",
"638 584 OFFCURVE",
"638 359 CURVE SMOOTH",
"638 348 LINE SMOOTH",
"638 114 OFFCURVE",
"508 21 OFFCURVE",
"358 21 CURVE SMOOTH",
"179 21 OFFCURVE",
"78 157 OFFCURVE",
"102 351 CURVE",
"91 337 LINE",
"662 337 LINE",
"662 365 LINE",
"74 365 LINE",
"51 137 OFFCURVE",
"158 -7 OFFCURVE",
"359 -7 CURVE SMOOTH",
"538 -7 OFFCURVE",
"667 112 OFFCURVE",
"667 367 CURVE SMOOTH",
"667 589 OFFCURVE",
"549 720 OFFCURVE",
"370 720 CURVE SMOOTH"
);
}
);
};
layerId = "7F092816-09A2-4631-A7F8-AD4571964C60";
paths = (
{
closed = 1;
nodes = (
"258 720 OFFCURVE",
"163 671 OFFCURVE",
"107 580 CURVE",
"133 561 LINE",
"183 643 OFFCURVE",
"262 689 OFFCURVE",
"369 689 CURVE SMOOTH",
"530 689 OFFCURVE",
"637 584 OFFCURVE",
"637 359 CURVE SMOOTH",
"637 348 LINE SMOOTH",
"637 143 OFFCURVE",
"535 21 OFFCURVE",
"364 21 CURVE SMOOTH",
"178 21 OFFCURVE",
"83 157 OFFCURVE",
"103 351 CURVE",
"91 337 LINE",
"662 337 LINE",
"662 365 LINE",
"74 365 LINE",
"51 137 OFFCURVE",
"158 -7 OFFCURVE",
"363 -7 CURVE SMOOTH",
"556 -7 OFFCURVE",
"668 131 OFFCURVE",
"668 367 CURVE SMOOTH",
"668 589 OFFCURVE",
"549 720 OFFCURVE",
"370 720 CURVE SMOOTH"
);
}
);
width = 739;
},
{
background = {
paths = (
{
closed = 1;
nodes = (
"240 720 OFFCURVE",
"122 655 OFFCURVE",
"54 568 CURVE",
"202 453 LINE",
"245 511 OFFCURVE",
"313 544 OFFCURVE",
"385 544 CURVE SMOOTH",
"498 544 OFFCURVE",
"560 478 OFFCURVE",
"560 387 CURVE SMOOTH",
"560 345 LINE SMOOTH",
"560 243 OFFCURVE",
"511 164 OFFCURVE",
"400 164 CURVE SMOOTH",
"295 164 OFFCURVE",
"253 196 OFFCURVE",
"245 284 CURVE",
"208 259 LINE",
"644 259 LINE",
"644 420 LINE",
"32 420 LINE",
"-7 165 OFFCURVE",
"140 -11 OFFCURVE",
"391 -11 CURVE SMOOTH",
"609 -11 OFFCURVE",
"764 156 OFFCURVE",
"764 363 CURVE SMOOTH",
"764 582 OFFCURVE",
"623 720 OFFCURVE",
"383 720 CURVE SMOOTH"
);
}
);
};
layerId = "A0850C2E-74F0-4B2E-AE90-CE9FC07F2CBD";
paths = (
{
closed = 1;
nodes = (
"247 720 OFFCURVE",
"122 655 OFFCURVE",
"54 568 CURVE",
"202 453 LINE",
"245 511 OFFCURVE",
"313 544 OFFCURVE",
"395 544 CURVE SMOOTH",
"498 544 OFFCURVE",
"560 478 OFFCURVE",
"560 387 CURVE SMOOTH",
"560 342 LINE SMOOTH",
"560 240 OFFCURVE",
"511 156 OFFCURVE",
"396 156 CURVE SMOOTH",
"295 156 OFFCURVE",
"252 203 OFFCURVE",
"245 284 CURVE",
"208 262 LINE",
"644 262 LINE",
"644 419 LINE",
"32 419 LINE",
"-2 159 OFFCURVE",
"142 -11 OFFCURVE",
"395 -11 CURVE SMOOTH",
"611 -11 OFFCURVE",
"764 156 OFFCURVE",
"764 363 CURVE SMOOTH",
"764 582 OFFCURVE",
"623 720 OFFCURVE",
"393 720 CURVE SMOOTH"
);
}
);
width = 791;
}
);
leftKerningGroup = O;
leftMetricsKey = O;
rightKerningGroup = O;
rightMetricsKey = O;
unicode = 018F;
},
{
glyphname = T;
lastChange = "2019-05-08 20:29:10 +0000";
layers = (
{
anchors = (
{
name = bottom;
position = "{275, 0}";
},
{
name = stroke;
position = "{275, 360}";
},
{
name = top;
position = "{275, 710}";
}
);
background = {
anchors = (
{
name = bottom;
position = "{275, 0}";
},
{
name = stroke;
position = "{275, 360}";
},
{
name = top;
position = "{275, 710}";
}
);
paths = (
{
closed = 1;
nodes = (
"1 710 LINE",
"1 639 LINE",
"233 639 LINE",
"233 0 LINE",
"316 0 LINE",
"316 639 LINE",
"543 639 LINE",
"553 710 LINE"
);
}
);
};
layerId = "A3B50665-EA37-4AC6-885C-1233CA61B6BD";
paths = (
{
closed = 1;
nodes = (
"1 710 LINE",
"1 638 LINE",
"233 638 LINE",
"233 0 LINE",
"316 0 LINE",
"316 638 LINE",
"543 638 LINE",
"550 710 LINE"
);
}
);
width = 549;
},
{
anchors = (
{
name = bottom;
position = "{294, 0}";
},
{
name = stroke;
position = "{294, 360}";
},
{
name = top;
position = "{294, 710}";
}
);
background = {
anchors = (
{
name = bottom;
position = "{294, 0}";
},
{
name = stroke;
position = "{294, 360}";
},
{
name = top;
position = "{294, 710}";
}
);
paths = (
{
closed = 1;
nodes = (
"-10 710 LINE",
"-10 576 LINE",
"216 576 LINE",
"216 0 LINE",
"372 0 LINE",
"372 576 LINE",
"588 576 LINE",
"608 710 LINE"
);
}
);
};
layerId = "014D4A40-7C7F-4023-B30E-1F55CE5EA091";
paths = (
{
closed = 1;
nodes = (
"-10 710 LINE",
"-10 574 LINE",
"216 574 LINE",
"216 0 LINE",
"372 0 LINE",
"372 574 LINE",
"588 574 LINE",
"608 710 LINE"
);
}
);
width = 588;
},
{
anchors = (
{
name = bottom;
position = "{261, 0}";
},
{
name = stroke;
position = "{261, 360}";
},
{
name = top;
position = "{261, 710}";
}
);
background = {
anchors = (
{
name = bottom;
position = "{261, 0}";
},
{
name = stroke;
position = "{261, 360}";
},
{
name = top;
position = "{261, 710}";
}
);
paths = (
{
closed = 1;
nodes = (
"9 710 LINE",
"9 684 LINE",
"245 684 LINE",
"245 0 LINE",
"276 0 LINE",
"276 684 LINE",
"511 684 LINE",
"509 710 LINE"
);
}
);
};
layerId = "7F092816-09A2-4631-A7F8-AD4571964C60";
paths = (
{
closed = 1;
nodes = (
"9 710 LINE",
"9 684 LINE",
"245 684 LINE",
"245 0 LINE",
"276 0 LINE",
"276 684 LINE",
"507 684 LINE",
"509 710 LINE"
);
}
);
width = 521.22727;
},
{
anchors = (
{
name = bottom;
position = "{306, 0}";
},
{
name = stroke;
position = "{306, 360}";
},
{
name = top;
position = "{306, 710}";
}
);
background = {
anchors = (
{
name = bottom;
position = "{305, 0}";
},
{
name = stroke;
position = "{305, 360}";
},
{
name = top;
position = "{305, 710}";
}
);
paths = (
{
closed = 1;
nodes = (
"-16 710 LINE",
"-16 536 LINE",
"206 536 LINE",
"206 0 LINE",
"405 0 LINE",
"405 536 LINE",
"614 536 LINE",
"643 710 LINE"
);
}
);
};
layerId = "A0850C2E-74F0-4B2E-AE90-CE9FC07F2CBD";
paths = (
{
closed = 1;
nodes = (
"-16 710 LINE",
"-16 536 LINE",
"206 536 LINE",
"206 0 LINE",
"406 0 LINE",
"406 536 LINE",
"614 536 LINE",
"643 710 LINE"
);
}
);
width = 611.04545;
}
);
leftKerningGroup = T;
rightKerningGroup = T;
unicode = 0054;
},
{
glyphname = U;
lastChange = "2019-05-08 20:29:10 +0000";
layers = (
{
anchors = (
{
name = bottom;
position = "{363, 0}";
},
{
name = ogonek;
position = "{451, 0}";
},
{
name = top;
position = "{363, 710}";
},
{
name = topright;
position = "{665, 710}";
}
);
background = {
anchors = (
{
name = bottom;
position = "{362, 0}";
},
{
name = ogonek;
position = "{451, 0}";
},
{
name = top;
position = "{362, 710}";
},
{
name = topright;
position = "{665, 710}";
}
);
paths = (
{
closed = 1;
nodes = (
"564 342 LINE SMOOTH",
"565 155 OFFCURVE",
"503 68 OFFCURVE",
"358 68 CURVE SMOOTH",
"221 68 OFFCURVE",
"162 140 OFFCURVE",
"162 307 CURVE SMOOTH",
"162 710 LINE",
"78 710 LINE",
"78 303 LINE SMOOTH",
"78 88 OFFCURVE",
"170 -8 OFFCURVE",
"358 -8 CURVE SMOOTH",
"549 -8 OFFCURVE",
"647 115 OFFCURVE",
"646 340 CURVE SMOOTH",
"645 710 LINE",
"563 710 LINE"
);
}
);
};
guideLines = (
{
angle = 90;
position = "{740, 356}";
},
{
angle = 90;
position = "{803, 356}";
}
);
layerId = "A3B50665-EA37-4AC6-885C-1233CA61B6BD";
paths = (
{
closed = 1;
nodes = (
"564 342 LINE SMOOTH",
"565 155 OFFCURVE",
"503 68 OFFCURVE",
"358 68 CURVE SMOOTH",
"221 68 OFFCURVE",
"162 140 OFFCURVE",
"162 307 CURVE SMOOTH",
"162 710 LINE",
"78 710 LINE",
"78 303 LINE SMOOTH",
"78 88 OFFCURVE",
"170 -8 OFFCURVE",
"358 -8 CURVE SMOOTH",
"549 -8 OFFCURVE",
"647 115 OFFCURVE",
"646 340 CURVE SMOOTH",
"645 710 LINE",
"563 710 LINE"
);
}
);
width = 724;
},
{
anchors = (
{
name = bottom;
position = "{378, 0}";
},
{
name = ogonek;
position = "{480, 0}";
},
{
name = top;
position = "{378, 710}";
},
{
name = topright;
position = "{661, 710}";
}
);
background = {
anchors = (
{
name = bottom;
position = "{379, 0}";
},
{
name = ogonek;
position = "{480, 0}";
},
{
name = top;
position = "{379, 710}";
},
{
name = topright;
position = "{661, 710}";
}
);
paths = (
{
closed = 1;
nodes = (
"537 336 LINE SMOOTH",
"538 194 OFFCURVE",
"482 129 OFFCURVE",
"381 129 CURVE SMOOTH",
"278 129 OFFCURVE",
"221 183 OFFCURVE",
"221 313 CURVE SMOOTH",
"221 710 LINE",
"65 710 LINE",
"65 300 LINE SMOOTH",
"65 94 OFFCURVE",
"174 -12 OFFCURVE",
"384 -10 CURVE SMOOTH",
"573 -8 OFFCURVE",
"694 123 OFFCURVE",
"693 327 CURVE SMOOTH",
"691 710 LINE",
"535 710 LINE"
);
}
);
};
layerId = "014D4A40-7C7F-4023-B30E-1F55CE5EA091";
paths = (
{
closed = 1;
nodes = (
"537 336 LINE SMOOTH",
"538 194 OFFCURVE",
"482 129 OFFCURVE",
"381 129 CURVE SMOOTH",
"278 129 OFFCURVE",
"221 183 OFFCURVE",
"221 313 CURVE SMOOTH",
"221 710 LINE",
"65 710 LINE",
"65 300 LINE SMOOTH",
"65 94 OFFCURVE",
"174 -10 OFFCURVE",
"384 -10 CURVE SMOOTH",
"573 -10 OFFCURVE",
"692 123 OFFCURVE",
"691 327 CURVE SMOOTH",
"689 710 LINE",
"535 710 LINE"
);
}
);
width = 756;
},
{
anchors = (
{
name = bottom;
position = "{352, 0}";
},
{
name = ogonek;
position = "{430, 0}";
},
{
name = top;
position = "{352, 710}";
},
{
name = topright;
position = "{668, 710}";
}
);
background = {
anchors = (
{
name = bottom;
position = "{352, 0}";
},
{
name = ogonek;
position = "{430, 0}";
},
{
name = top;
position = "{352, 710}";
},
{
name = topright;
position = "{668, 710}";
}
);
paths = (
{
closed = 1;
nodes = (
"583 346 LINE SMOOTH",
"584 127 OFFCURVE",
"518 25 OFFCURVE",
"342 25 CURVE SMOOTH",
"180 25 OFFCURVE",
"120 109 OFFCURVE",
"120 303 CURVE SMOOTH",
"120 710 LINE",
"87 710 LINE",
"87 305 LINE SMOOTH",
"87 84 OFFCURVE",
"167 -5 OFFCURVE",
"339 -7 CURVE SMOOTH",
"533 -8 OFFCURVE",
"615 109 OFFCURVE",
"614 349 CURVE SMOOTH",
"614 710 LINE",
"583 710 LINE"
);
}
);
};
layerId = "7F092816-09A2-4631-A7F8-AD4571964C60";
paths = (
{
closed = 1;
nodes = (
"583 346 LINE SMOOTH",
"584 127 OFFCURVE",
"518 24 OFFCURVE",
"341 24 CURVE SMOOTH",
"185 24 OFFCURVE",
"120 105 OFFCURVE",
"120 306 CURVE SMOOTH",
"120 710 LINE",
"87 710 LINE",
"87 305 LINE SMOOTH",
"87 89 OFFCURVE",
"165 -7 OFFCURVE",
"341 -7 CURVE SMOOTH",
"533 -7 OFFCURVE",
"615 109 OFFCURVE",
"614 347 CURVE SMOOTH",
"613 710 LINE",
"582 710 LINE"
);
}
);
width = 701.21212;
},
{
anchors = (
{
name = bottom;
position = "{387, 0}";
},
{
name = ogonek;
position = "{497.001, 0}";
},
{
name = top;
position = "{387, 710}";
},
{
name = topright;
position = "{659, 710}";
}
);
background = {
anchors = (
{
name = bottom;
position = "{387, 0}";
},
{
name = ogonek;
position = "{497.001, 0}";
},
{
name = top;
position = "{387, 710}";
},
{
name = topright;
position = "{659, 710}";
}
);
paths = (
{
closed = 1;
nodes = (
"521 333 LINE SMOOTH",
"522 217 OFFCURVE",
"469 165 OFFCURVE",
"395 165 CURVE SMOOTH",
"312 165 OFFCURVE",
"256 208 OFFCURVE",
"256 316 CURVE SMOOTH",
"256 710 LINE",
"57 710 LINE",
"57 298 LINE SMOOTH",
"57 97 OFFCURVE",
"176 -14 OFFCURVE",
"400 -11 CURVE SMOOTH",
"586 -8 OFFCURVE",
"718 127 OFFCURVE",
"717 319 CURVE SMOOTH",
"715 710 LINE",
"518 710 LINE"
);
}
);
};
layerId = "A0850C2E-74F0-4B2E-AE90-CE9FC07F2CBD";
paths = (
{
closed = 1;
nodes = (
"521 328 LINE SMOOTH",
"522 212 OFFCURVE",
"474 165 OFFCURVE",
"391 165 CURVE SMOOTH",
"312 165 OFFCURVE",
"257 208 OFFCURVE",
"257 316 CURVE SMOOTH",
"257 710 LINE",
"57 710 LINE",
"57 306 LINE SMOOTH",
"57 97 OFFCURVE",
"176 -11 OFFCURVE",
"390 -11 CURVE SMOOTH",
"586 -11 OFFCURVE",
"718 125 OFFCURVE",
"717 321 CURVE SMOOTH",
"715 710 LINE",
"519 710 LINE"
);
}
);
width = 774;
}
);
leftKerningGroup = U;
rightKerningGroup = U;
rightMetricsKey = "=|";
unicode = 0055;
},
{
glyphname = Uogonek;
lastChange = "2019-05-08 20:29:10 +0000";
layers = (
{
anchors = (
{
name = top;
position = "{362, 710}";
}
);
background = {
paths = (
{
closed = 1;
nodes = (
"564 342 LINE SMOOTH",
"565 155 OFFCURVE",
"503 68 OFFCURVE",
"358 68 CURVE SMOOTH",
"221 68 OFFCURVE",
"162 140 OFFCURVE",
"162 307 CURVE SMOOTH",
"162 710 LINE",
"78 710 LINE",
"78 303 LINE SMOOTH",
"78 88 OFFCURVE",
"170 -8 OFFCURVE",
"358 -8 CURVE SMOOTH",
"549 -8 OFFCURVE",
"647 115 OFFCURVE",
"646 340 CURVE SMOOTH",
"645 710 LINE",
"563 710 LINE"
);
}
);
};
layerId = "A3B50665-EA37-4AC6-885C-1233CA61B6BD";
paths = (
{
closed = 1;
nodes = (
"433 -223 OFFCURVE",
"472 -203 OFFCURVE",
"492 -173 CURVE",
"462 -132 LINE",
"441 -158 OFFCURVE",
"421 -170 OFFCURVE",
"399 -170 CURVE SMOOTH",
"365 -170 OFFCURVE",
"346 -150 OFFCURVE",
"346 -118 CURVE SMOOTH",
"346 -74 OFFCURVE",
"382 -26 OFFCURVE",
"480 13 CURVE SMOOTH",
"589 57 OFFCURVE",
"647 168 OFFCURVE",
"646 340 CURVE SMOOTH",
"645 710 LINE",
"563 710 LINE",
"564 342 LINE SMOOTH",
"565 155 OFFCURVE",
"503 68 OFFCURVE",
"358 68 CURVE SMOOTH",
"221 68 OFFCURVE",
"162 140 OFFCURVE",
"162 307 CURVE SMOOTH",
"162 710 LINE",
"78 710 LINE",
"78 303 LINE SMOOTH",
"78 88 OFFCURVE",
"170 -8 OFFCURVE",
"358 -8 CURVE SMOOTH",
"383 -8 LINE",
"381 10 LINE",
"319 -20 OFFCURVE",
"279 -73 OFFCURVE",
"279 -126 CURVE SMOOTH",
"279 -184 OFFCURVE",
"322 -223 OFFCURVE",
"394 -223 CURVE SMOOTH"
);
}
);
width = 724;
},
{
anchors = (
{
name = top;
position = "{379, 710}";
}
);
background = {
paths = (
{
closed = 1;
nodes = (
"537 336 LINE SMOOTH",
"538 194 OFFCURVE",
"482 129 OFFCURVE",
"381 129 CURVE SMOOTH",
"278 129 OFFCURVE",
"221 183 OFFCURVE",
"221 313 CURVE SMOOTH",
"221 710 LINE",
"65 710 LINE",
"65 300 LINE SMOOTH",
"65 94 OFFCURVE",
"174 -12 OFFCURVE",
"384 -10 CURVE SMOOTH",
"572 -8 OFFCURVE",
"692 123 OFFCURVE",
"691 327 CURVE SMOOTH",
"689 710 LINE",
"535 710 LINE"
);
}
);
};
layerId = "014D4A40-7C7F-4023-B30E-1F55CE5EA091";
paths = (
{
closed = 1;
nodes = (
"467 -223 OFFCURVE",
"513 -204 OFFCURVE",
"536 -173 CURVE",
"487 -103 LINE",
"472 -122 OFFCURVE",
"450 -134 OFFCURVE",
"432 -134 CURVE SMOOTH",
"404 -134 OFFCURVE",
"388 -120 OFFCURVE",
"388 -96 CURVE SMOOTH",
"388 -62 OFFCURVE",
"409 -28 OFFCURVE",
"508 13 CURVE SMOOTH",
"624 61 OFFCURVE",
"692 172 OFFCURVE",
"691 327 CURVE SMOOTH",
"689 710 LINE",
"535 710 LINE",
"537 336 LINE SMOOTH",
"538 194 OFFCURVE",
"482 129 OFFCURVE",
"381 129 CURVE SMOOTH",
"278 129 OFFCURVE",
"221 183 OFFCURVE",
"221 313 CURVE SMOOTH",
"221 710 LINE",
"65 710 LINE",
"65 300 LINE SMOOTH",
"65 94 OFFCURVE",
"174 -12 OFFCURVE",
"384 -10 CURVE SMOOTH",
"404 -10 LINE",
"384 23 LINE",
"298 -10 OFFCURVE",
"266 -61 OFFCURVE",
"266 -112 CURVE SMOOTH",
"266 -178 OFFCURVE",
"328 -223 OFFCURVE",
"416 -223 CURVE SMOOTH"
);
}
);
width = 756;
},
{
anchors = (
{
name = top;
position = "{350, 710}";
}
);
background = {
anchors = (
{
name = top;
position = "{350, 710}";
}
);
paths = (
{
closed = 1;
nodes = (
"1209 -223 OFFCURVE",
"1243 -202 OFFCURVE",
"1261 -173 CURVE",
"1244 -153 LINE",
"1219 -184 OFFCURVE",
"1200 -196 OFFCURVE",
"1176 -196 CURVE SMOOTH",
"1137 -196 OFFCURVE",
"1116 -171 OFFCURVE",
"1116 -134 CURVE SMOOTH",
"1116 -83 OFFCURVE",
"1163 -25 OFFCURVE",
"1260 13 CURVE SMOOTH",
"1364 54 OFFCURVE",
"1414 165 OFFCURVE",
"1414 349 CURVE SMOOTH",
"1414 710 LINE",
"1383 710 LINE",
"1383 346 LINE SMOOTH",
"1383 127 OFFCURVE",
"1318 25 OFFCURVE",
"1142 25 CURVE SMOOTH",
"980 25 OFFCURVE",
"920 109 OFFCURVE",
"920 303 CURVE SMOOTH",
"920 710 LINE",
"887 710 LINE",
"887 305 LINE SMOOTH",
"887 84 OFFCURVE",
"967 -7 OFFCURVE",
"1139 -7 CURVE SMOOTH",
"1168 -7 LINE",
"1179 1 LINE",
"1134 -27 OFFCURVE",
"1088 -82 OFFCURVE",
"1088 -136 CURVE SMOOTH",
"1088 -188 OFFCURVE",
"1118 -223 OFFCURVE",
"1178 -223 CURVE SMOOTH"
);
},
{
closed = 1;
nodes = (
"583 346 LINE SMOOTH",
"584 127 OFFCURVE",
"518 24 OFFCURVE",
"341 24 CURVE SMOOTH",
"185 24 OFFCURVE",
"120 105 OFFCURVE",
"120 306 CURVE SMOOTH",
"120 710 LINE",
"87 710 LINE",
"87 305 LINE SMOOTH",
"87 89 OFFCURVE",
"165 -7 OFFCURVE",
"341 -7 CURVE SMOOTH",
"533 -7 OFFCURVE",
"615 109 OFFCURVE",
"614 347 CURVE SMOOTH",
"613 710 LINE",
"582 710 LINE"
);
}
);
};
layerId = "7F092816-09A2-4631-A7F8-AD4571964C60";
paths = (
{
closed = 1;
nodes = (
"409 -223 OFFCURVE",
"443 -202 OFFCURVE",
"461 -173 CURVE",
"444 -153 LINE",
"420 -184 OFFCURVE",
"400 -197 OFFCURVE",
"376 -197 CURVE SMOOTH",
"337 -197 OFFCURVE",
"316 -171 OFFCURVE",
"316 -137 CURVE SMOOTH",
"316 -83 OFFCURVE",
"363 -25 OFFCURVE",
"460 13 CURVE SMOOTH",
"564 54 OFFCURVE",
"615 164 OFFCURVE",
"614 347 CURVE SMOOTH",
"613 710 LINE",
"582 710 LINE",
"583 346 LINE SMOOTH",
"584 127 OFFCURVE",
"518 24 OFFCURVE",
"341 24 CURVE SMOOTH",
"185 24 OFFCURVE",
"120 105 OFFCURVE",
"120 306 CURVE SMOOTH",
"120 710 LINE",
"87 710 LINE",
"87 305 LINE SMOOTH",
"87 89 OFFCURVE",
"165 -7 OFFCURVE",
"341 -7 CURVE SMOOTH",
"384 -7 LINE",
"384 1 LINE",
"328 -28 OFFCURVE",
"288 -82 OFFCURVE",
"288 -136 CURVE SMOOTH",
"288 -188 OFFCURVE",
"318 -223 OFFCURVE",
"378 -223 CURVE SMOOTH"
);
}
);
width = 701.21212;
},
{
anchors = (
{
name = top;
position = "{389, 710}";
}
);
background = {
anchors = (
{
name = top;
position = "{389, 710}";
}
);
paths = (
{
closed = 1;
nodes = (
"1287 -223 OFFCURVE",
"1337 -205 OFFCURVE",
"1362 -173 CURVE",
"1302 -86 LINE",
"1290 -101 OFFCURVE",
"1267 -113 OFFCURVE",
"1251 -113 CURVE SMOOTH",
"1227 -113 OFFCURVE",
"1213 -102 OFFCURVE",
"1213 -83 CURVE SMOOTH",
"1213 -55 OFFCURVE",
"1225 -29 OFFCURVE",
"1325 13 CURVE SMOOTH",
"1445 63 OFFCURVE",
"1518 174 OFFCURVE",
"1517 319 CURVE SMOOTH",
"1515 710 LINE",
"1318 710 LINE",
"1321 333 LINE SMOOTH",
"1322 217 OFFCURVE",
"1269 165 OFFCURVE",
"1195 165 CURVE SMOOTH",
"1112 165 OFFCURVE",
"1056 208 OFFCURVE",
"1056 316 CURVE SMOOTH",
"1056 710 LINE",
"857 710 LINE",
"857 298 LINE SMOOTH",
"857 97 OFFCURVE",
"976 -11 OFFCURVE",
"1200 -11 CURVE SMOOTH",
"1217 -11 LINE",
"1186 31 LINE",
"1085 -4 OFFCURVE",
"1058 -54 OFFCURVE",
"1058 -104 CURVE SMOOTH",
"1058 -175 OFFCURVE",
"1131 -223 OFFCURVE",
"1229 -223 CURVE SMOOTH"
);
},
{
closed = 1;
nodes = (
"521 328 LINE SMOOTH",
"522 212 OFFCURVE",
"474 165 OFFCURVE",
"391 165 CURVE SMOOTH",
"312 165 OFFCURVE",
"257 208 OFFCURVE",
"257 316 CURVE SMOOTH",
"257 710 LINE",
"57 710 LINE",
"57 306 LINE SMOOTH",
"57 97 OFFCURVE",
"176 -11 OFFCURVE",
"390 -11 CURVE SMOOTH",
"586 -11 OFFCURVE",
"718 125 OFFCURVE",
"717 321 CURVE SMOOTH",
"715 710 LINE",
"519 710 LINE"
);
}
);
};
layerId = "A0850C2E-74F0-4B2E-AE90-CE9FC07F2CBD";
paths = (
{
closed = 1;
nodes = (
"487 -223 OFFCURVE",
"537 -205 OFFCURVE",
"562 -173 CURVE",
"502 -86 LINE",
"490 -101 OFFCURVE",
"467 -113 OFFCURVE",
"451 -113 CURVE SMOOTH",
"427 -113 OFFCURVE",
"413 -101 OFFCURVE",
"413 -81 CURVE SMOOTH",
"413 -51 OFFCURVE",
"425 -29 OFFCURVE",
"525 13 CURVE SMOOTH",
"645 63 OFFCURVE",
"718 177 OFFCURVE",
"717 321 CURVE SMOOTH",
"715 710 LINE",
"519 710 LINE",
"521 328 LINE SMOOTH",
"522 212 OFFCURVE",
"474 165 OFFCURVE",
"391 165 CURVE SMOOTH",
"312 165 OFFCURVE",
"257 208 OFFCURVE",
"257 316 CURVE SMOOTH",
"257 710 LINE",
"57 710 LINE",
"57 306 LINE SMOOTH",
"57 97 OFFCURVE",
"176 -11 OFFCURVE",
"390 -11 CURVE SMOOTH",
"417 -11 LINE",
"386 31 LINE",
"285 -4 OFFCURVE",
"258 -54 OFFCURVE",
"258 -104 CURVE SMOOTH",
"258 -175 OFFCURVE",
"331 -223 OFFCURVE",
"429 -223 CURVE SMOOTH"
);
}
);
width = 774;
}
);
leftKerningGroup = U;
leftMetricsKey = U;
widthMetricsKey = U;
rightKerningGroup = U;
unicode = 0172;
},
{
glyphname = Uhorn;
lastChange = "2019-05-08 20:29:10 +0000";
layers = (
{
anchors = (
{
name = bottom;
position = "{363, 0}";
},
{
name = top;
position = "{363, 710}";
}
);
background = {
paths = (
{
closed = 1;
nodes = (
"549 -8 OFFCURVE",
"647 115 OFFCURVE",
"646 340 CURVE SMOOTH",
"645 710 LINE",
"563 710 LINE",
"564 342 LINE SMOOTH",
"565 155 OFFCURVE",
"503 68 OFFCURVE",
"358 68 CURVE SMOOTH",
"221 68 OFFCURVE",
"162 140 OFFCURVE",
"162 307 CURVE SMOOTH",
"162 710 LINE",
"78 710 LINE",
"78 303 LINE SMOOTH",
"78 88 OFFCURVE",
"170 -8 OFFCURVE",
"358 -8 CURVE SMOOTH"
);
},
{
closed = 1;
nodes = (
"642 647 LINE SMOOTH",
"732 647 OFFCURVE",
"785 714 OFFCURVE",
"780 811 CURVE",
"714 817 LINE",
"712 732 OFFCURVE",
"690 710 OFFCURVE",
"617 710 CURVE",
"600 647 LINE"
);
}
);
};
layerId = "A3B50665-EA37-4AC6-885C-1233CA61B6BD";
paths = (
{
closed = 1;
nodes = (
"714 817 LINE",
"712 732 OFFCURVE",
"690 710 OFFCURVE",
"617 710 CURVE SMOOTH",
"563 710 LINE",
"564 342 LINE SMOOTH",
"565 155 OFFCURVE",
"503 68 OFFCURVE",
"358 68 CURVE SMOOTH",
"221 68 OFFCURVE",
"162 140 OFFCURVE",
"162 307 CURVE SMOOTH",
"162 710 LINE",
"78 710 LINE",
"78 303 LINE SMOOTH",
"78 88 OFFCURVE",
"170 -8 OFFCURVE",
"358 -8 CURVE SMOOTH",
"549 -8 OFFCURVE",
"647 115 OFFCURVE",
"646 340 CURVE SMOOTH",
"645 671 LINE",
"600 647 LINE",
"642 647 LINE SMOOTH",
"732 647 OFFCURVE",
"785 714 OFFCURVE",
"780 811 CURVE"
);
}
);
width = 724;
},
{
anchors = (
{
name = bottom;
position = "{378, 0}";
},
{
name = top;
position = "{378, 710}";
}
);
background = {
paths = (
{
closed = 1;
nodes = (
"724 821 LINE",
"722 731 OFFCURVE",
"707 710 OFFCURVE",
"640 710 CURVE SMOOTH",
"535 710 LINE",
"537 336 LINE SMOOTH",
"538 194 OFFCURVE",
"482 129 OFFCURVE",
"381 129 CURVE SMOOTH",
"278 129 OFFCURVE",
"221 183 OFFCURVE",
"221 313 CURVE SMOOTH",
"221 710 LINE",
"65 710 LINE",
"65 300 LINE SMOOTH",
"65 94 OFFCURVE",
"174 -12 OFFCURVE",
"384 -10 CURVE SMOOTH",
"572 -8 OFFCURVE",
"692 123 OFFCURVE",
"691 327 CURVE SMOOTH",
"690 639 LINE",
"616 596 LINE",
"670 596 LINE SMOOTH",
"786 596 OFFCURVE",
"855 690 OFFCURVE",
"848 811 CURVE"
);
}
);
};
layerId = "014D4A40-7C7F-4023-B30E-1F55CE5EA091";
paths = (
{
closed = 1;
nodes = (
"724 821 LINE",
"722 731 OFFCURVE",
"707 710 OFFCURVE",
"640 710 CURVE SMOOTH",
"535 710 LINE",
"537 336 LINE SMOOTH",
"538 194 OFFCURVE",
"482 129 OFFCURVE",
"381 129 CURVE SMOOTH",
"278 129 OFFCURVE",
"221 183 OFFCURVE",
"221 313 CURVE SMOOTH",
"221 710 LINE",
"65 710 LINE",
"65 300 LINE SMOOTH",
"65 94 OFFCURVE",
"174 -10 OFFCURVE",
"384 -10 CURVE SMOOTH",
"573 -10 OFFCURVE",
"692 123 OFFCURVE",
"691 327 CURVE SMOOTH",
"690 639 LINE",
"616 596 LINE",
"670 596 LINE SMOOTH",
"786 596 OFFCURVE",
"855 690 OFFCURVE",
"848 811 CURVE"
);
}
);
width = 756;
},
{
anchors = (
{
name = bottom;
position = "{352, 0}";
},
{
name = top;
position = "{352, 710}";
}
);
background = {
anchors = (
{
name = bottom;
position = "{352, 0}";
},
{
name = top;
position = "{352, 710}";
}
);
paths = (
{
closed = 1;
nodes = (
"1507 814 LINE",
"1505 733 OFFCURVE",
"1478 710 OFFCURVE",
"1401 710 CURVE SMOOTH",
"1383 710 LINE",
"1383 346 LINE SMOOTH",
"1383 127 OFFCURVE",
"1318 25 OFFCURVE",
"1142 25 CURVE SMOOTH",
"980 25 OFFCURVE",
"920 109 OFFCURVE",
"920 303 CURVE SMOOTH",
"920 710 LINE",
"887 710 LINE",
"887 305 LINE SMOOTH",
"887 84 OFFCURVE",
"967 -5 OFFCURVE",
"1139 -7 CURVE SMOOTH",
"1333 -9 OFFCURVE",
"1415 109 OFFCURVE",
"1414 349 CURVE SMOOTH",
"1413 694 LINE",
"1389 683 LINE",
"1422 683 LINE SMOOTH",
"1494 683 OFFCURVE",
"1535 731 OFFCURVE",
"1532 811 CURVE"
);
},
{
closed = 1;
nodes = (
"583 346 LINE SMOOTH",
"584 127 OFFCURVE",
"518 24 OFFCURVE",
"341 24 CURVE SMOOTH",
"185 24 OFFCURVE",
"120 105 OFFCURVE",
"120 306 CURVE SMOOTH",
"120 710 LINE",
"87 710 LINE",
"87 305 LINE SMOOTH",
"87 89 OFFCURVE",
"165 -7 OFFCURVE",
"341 -7 CURVE SMOOTH",
"533 -7 OFFCURVE",
"615 109 OFFCURVE",
"614 347 CURVE SMOOTH",
"613 710 LINE",
"582 710 LINE"
);
}
);
};
layerId = "7F092816-09A2-4631-A7F8-AD4571964C60";
paths = (
{
closed = 1;
nodes = (
"707 814 LINE",
"705 733 OFFCURVE",
"677 710 OFFCURVE",
"600 710 CURVE SMOOTH",
"582 710 LINE",
"583 346 LINE SMOOTH",
"584 127 OFFCURVE",
"518 24 OFFCURVE",
"341 24 CURVE SMOOTH",
"185 24 OFFCURVE",
"120 105 OFFCURVE",
"120 306 CURVE SMOOTH",
"120 710 LINE",
"87 710 LINE",
"87 305 LINE SMOOTH",
"87 89 OFFCURVE",
"165 -7 OFFCURVE",
"341 -7 CURVE SMOOTH",
"533 -7 OFFCURVE",
"615 109 OFFCURVE",
"614 347 CURVE SMOOTH",
"613 694 LINE",
"589 683 LINE",
"612 683 LINE SMOOTH",
"694 683 OFFCURVE",
"735 731 OFFCURVE",
"732 811 CURVE"
);
}
);
width = 701.21212;
},
{
anchors = (
{
name = bottom;
position = "{387, 0}";
},
{
name = top;
position = "{387, 710}";
}
);
background = {
anchors = (
{
name = bottom;
position = "{387, 0}";
},
{
name = top;
position = "{387, 710}";
}
);
paths = (
{
closed = 1;
nodes = (
"521 328 LINE SMOOTH",
"522 212 OFFCURVE",
"474 165 OFFCURVE",
"391 165 CURVE SMOOTH",
"312 165 OFFCURVE",
"257 208 OFFCURVE",
"257 316 CURVE SMOOTH",
"257 710 LINE",
"57 710 LINE",
"57 306 LINE SMOOTH",
"57 97 OFFCURVE",
"176 -11 OFFCURVE",
"390 -11 CURVE SMOOTH",
"586 -11 OFFCURVE",
"718 125 OFFCURVE",
"717 321 CURVE SMOOTH",
"715 710 LINE",
"519 710 LINE"
);
}
);
};
layerId = "A0850C2E-74F0-4B2E-AE90-CE9FC07F2CBD";
paths = (
{
closed = 1;
nodes = (
"730 823 LINE",
"728 730 OFFCURVE",
"717 710 OFFCURVE",
"654 710 CURVE SMOOTH",
"519 710 LINE",
"521 328 LINE SMOOTH",
"522 212 OFFCURVE",
"474 165 OFFCURVE",
"395 165 CURVE SMOOTH",
"312 165 OFFCURVE",
"257 208 OFFCURVE",
"257 316 CURVE SMOOTH",
"257 710 LINE",
"57 710 LINE",
"57 306 LINE SMOOTH",
"57 97 OFFCURVE",
"176 -11 OFFCURVE",
"390 -11 CURVE SMOOTH",
"586 -11 OFFCURVE",
"718 125 OFFCURVE",
"717 321 CURVE SMOOTH",
"715 620 LINE",
"625 566 LINE",
"687 566 LINE SMOOTH",
"818 566 OFFCURVE",
"896 676 OFFCURVE",
"888 811 CURVE"
);
}
);
width = 774;
}
);
leftKerningGroup = U;
leftMetricsKey = U;
widthMetricsKey = U;
rightKerningGroup = Uhorn;
unicode = 01AF;
},
{
glyphname = V;
lastChange = "2019-05-08 20:29:10 +0000";
layers = (
{
anchors = (
{
name = bottom;
position = "{288, 0}";
},
{
name = top;
position = "{288, 710}";
}
);
background = {
anchors = (
{
name = bottom;
position = "{296, 0}";
},
{
name = top;
position = "{296, 710}";
}
);
paths = (
{
closed = 1;
nodes = (
"274 24 LINE",
"301 23 LINE",
"94 710 LINE",
"9 710 LINE",
"229 0 LINE",
"340 0 LINE",
"606 710 LINE",
"524 710 LINE"
);
}
);
};
layerId = "A3B50665-EA37-4AC6-885C-1233CA61B6BD";
paths = (
{
closed = 1;
nodes = (
"273 24 LINE",
"302 23 LINE",
"95 710 LINE",
"9 710 LINE",
"229 0 LINE",
"340 0 LINE",
"606 710 LINE",
"523 710 LINE"
);
}
);
width = 590;
},
{
anchors = (
{
name = bottom;
position = "{325, 0}";
},
{
name = top;
position = "{325, 710}";
}
);
background = {
anchors = (
{
name = bottom;
position = "{325, 0}";
},
{
name = top;
position = "{325, 710}";
}
);
paths = (
{
closed = 1;
nodes = (
"290 33 LINE",
"354 33 LINE",
"160 710 LINE",
"-6 710 LINE",
"206 0 LINE",
"425 0 LINE",
"679 710 LINE",
"524 710 LINE"
);
}
);
};
guideLines = (
{
angle = 68.7799;
position = "{363, 235}";
}
);
layerId = "014D4A40-7C7F-4023-B30E-1F55CE5EA091";
paths = (
{
closed = 1;
nodes = (
"290 33 LINE",
"353 33 LINE",
"159 710 LINE",
"-6 710 LINE",
"206 0 LINE",
"425 0 LINE",
"679 710 LINE",
"524 710 LINE"
);
}
);
width = 649;
},
{
anchors = (
{
name = bottom;
position = "{262, 0}";
},
{
name = top;
position = "{262, 710}";
}
);
background = {
anchors = (
{
name = bottom;
position = "{262, 0}";
},
{
name = top;
position = "{262, 710}";
}
);
paths = (
{
closed = 1;
nodes = (
"261 18 LINE",
"266 16 LINE",
"49 710 LINE",
"20 710 LINE",
"245 0 LINE",
"279 0 LINE",
"554 710 LINE",
"522 710 LINE"
);
}
);
};
layerId = "7F092816-09A2-4631-A7F8-AD4571964C60";
paths = (
{
closed = 1;
nodes = (
"258 18 LINE",
"268 16 LINE",
"52 710 LINE",
"20 710 LINE",
"245 0 LINE",
"279 0 LINE",
"554 710 LINE",
"523 710 LINE"
);
}
);
width = 547.98485;
},
{
anchors = (
{
name = bottom;
position = "{346.999, 0}";
},
{
name = top;
position = "{346.999, 710}";
}
);
background = {
anchors = (
{
name = bottom;
position = "{346.999, 0}";
},
{
name = top;
position = "{346.999, 710}";
}
);
paths = (
{
closed = 1;
nodes = (
"300 38 LINE",
"383 39 LINE",
"197 710 LINE",
"-15 710 LINE",
"192 0 LINE",
"475 0 LINE",
"722 710 LINE",
"525 710 LINE"
);
}
);
};
layerId = "A0850C2E-74F0-4B2E-AE90-CE9FC07F2CBD";
paths = (
{
closed = 1;
nodes = (
"296 38 LINE",
"383 39 LINE",
"197 710 LINE",
"-15 710 LINE",
"192 0 LINE",
"475 0 LINE",
"722 710 LINE",
"522 710 LINE"
);
}
);
width = 683.86364;
}
);
leftKerningGroup = V;
rightKerningGroup = V;
unicode = 0056;
},
{
glyphname = W;
lastChange = "2019-05-08 20:29:10 +0000";
layers = (
{
anchors = (
{
name = bottom;
position = "{464, 0}";
},
{
name = top;
position = "{482, 710}";
}
);
background = {
anchors = (
{
name = bottom;
position = "{471, 0}";
},
{
name = top;
position = "{471, 710}";
}
);
paths = (
{
closed = 1;
nodes = (
"652 24 LINE",
"693 23 LINE",
"526 710 LINE",
"438 710 LINE",
"240 24 LINE",
"280 23 LINE",
"116 710 LINE",
"32 710 LINE",
"208 0 LINE",
"304 0 LINE",
"489 640 LINE",
"466 640 LINE",
"623 0 LINE",
"719 0 LINE",
"925 710 LINE",
"844 710 LINE"
);
}
);
};
layerId = "A3B50665-EA37-4AC6-885C-1233CA61B6BD";
paths = (
{
closed = 1;
nodes = (
"663 59 LINE",
"685 59 LINE",
"527 710 LINE",
"437 710 LINE",
"249 59 LINE",
"270 59 LINE",
"115 710 LINE",
"32 710 LINE",
"208 0 LINE",
"304 0 LINE",
"490 640 LINE",
"466 640 LINE",
"623 0 LINE",
"719 0 LINE",
"925 710 LINE",
"845 710 LINE"
);
}
);
width = 940;
},
{
anchors = (
{
name = bottom;
position = "{499, 0}";
},
{
name = top;
position = "{520, 710}";
}
);
background = {
anchors = (
{
name = bottom;
position = "{504, 0}";
},
{
name = top;
position = "{504, 710}";
}
);
paths = (
{
closed = 1;
nodes = (
"693 67 LINE",
"759 66 LINE",
"612 710 LINE",
"428 710 LINE",
"251 67 LINE",
"321 66 LINE",
"170 710 LINE",
"13 710 LINE",
"190 0 LINE",
"367 0 LINE",
"518 541 LINE",
"504 541 LINE",
"630 0 LINE",
"807 0 LINE",
"1012 710 LINE",
"869 710 LINE"
);
}
);
};
layerId = "014D4A40-7C7F-4023-B30E-1F55CE5EA091";
paths = (
{
closed = 1;
nodes = (
"701 114 LINE",
"748 114 LINE",
"612 710 LINE",
"428 710 LINE",
"264 114 LINE",
"310 114 LINE",
"170 710 LINE",
"13 710 LINE",
"190 0 LINE",
"367 0 LINE",
"524 563 LINE",
"499 563 LINE",
"630 0 LINE",
"807 0 LINE",
"1012 710 LINE",
"865 710 LINE"
);
}
);
width = 1007;
},
{
anchors = (
{
name = bottom;
position = "{439, 0}";
},
{
name = top;
position = "{455, 710}";
}
);
background = {
anchors = (
{
name = bottom;
position = "{439, 0}";
},
{
name = top;
position = "{455, 710}";
}
);
paths = (
{
closed = 1;
nodes = (
"636 20 LINE",
"640 20 LINE",
"466 710 LINE",
"443 710 LINE",
"238 20 LINE",
"242 20 LINE",
"76 710 LINE",
"46 710 LINE",
"221 0 LINE",
"259 0 LINE",
"466 695 LINE",
"443 695 LINE",
"618 0 LINE",
"656 0 LINE",
"863 710 LINE",
"831 710 LINE"
);
}
);
};
layerId = "7F092816-09A2-4631-A7F8-AD4571964C60";
paths = (
{
closed = 1;
nodes = (
"636 20 LINE",
"640 20 LINE",
"466 710 LINE",
"443 710 LINE",
"238 20 LINE",
"243 20 LINE",
"77 710 LINE",
"46 710 LINE",
"221 0 LINE",
"259 0 LINE",
"459 672 LINE",
"449 672 LINE",
"618 0 LINE",
"656 0 LINE",
"863 710 LINE",
"832 710 LINE"
);
}
);
width = 892.28788;
},
{
anchors = (
{
name = bottom;
position = "{520, 0}";
},
{
name = top;
position = "{542, 710}";
}
);
background = {
anchors = (
{
name = bottom;
position = "{520, 0}";
},
{
name = top;
position = "{542, 710}";
}
);
paths = (
{
closed = 1;
nodes = (
"723 147 LINE",
"785 147 LINE",
"662 710 LINE",
"423 710 LINE",
"273 147 LINE",
"333 147 LINE",
"203 710 LINE",
"2 710 LINE",
"179 0 LINE",
"404 0 LINE",
"544 518 LINE",
"519 518 LINE",
"634 0 LINE",
"859 0 LINE",
"1064 710 LINE",
"877 710 LINE"
);
}
);
};
layerId = "A0850C2E-74F0-4B2E-AE90-CE9FC07F2CBD";
paths = (
{
closed = 1;
nodes = (
"723 147 LINE",
"785 147 LINE",
"662 710 LINE",
"423 710 LINE",
"268 147 LINE",
"333 147 LINE",
"203 710 LINE",
"2 710 LINE",
"179 0 LINE",
"404 0 LINE",
"549 520 LINE",
"519 520 LINE",
"634 0 LINE",
"859 0 LINE",
"1064 710 LINE",
"877 710 LINE"
);
}
);
width = 1046.59091;
}
);
leftKerningGroup = V;
rightKerningGroup = V;
unicode = 0057;
},
{
glyphname = X;
lastChange = "2019-05-08 20:29:10 +0000";
layers = (
{
anchors = (
{
name = bottom;
position = "{295, 0}";
},
{
name = top;
position = "{295, 710}";
}
);
background = {
anchors = (
{
name = bottom;
position = "{292, 0}";
},
{
name = top;
position = "{292, 710}";
}
);
paths = (
{
closed = 1;
nodes = (
"581 0 LINE",
"108 710 LINE",
"15 710 LINE",
"486 0 LINE"
);
},
{
closed = 1;
nodes = (
"573 710 LINE",
"483 710 LINE",
"-3 0 LINE",
"91 0 LINE"
);
},
{
closed = 1;
nodes = (
"1281 0 LINE",
"1036 365 LINE",
"994 428 LINE",
"808 710 LINE",
"715 710 LINE",
"946 361 LINE",
"990 296 LINE",
"1186 0 LINE"
);
},
{
closed = 1;
nodes = (
"990 296 LINE",
"1036 365 LINE",
"1270 710 LINE",
"1183 710 LINE",
"994 428 LINE",
"946 361 LINE",
"700 0 LINE",
"791 0 LINE"
);
}
);
};
layerId = "A3B50665-EA37-4AC6-885C-1233CA61B6BD";
paths = (
{
closed = 1;
nodes = (
"581 0 LINE",
"337 364 LINE",
"294 430 LINE",
"108 710 LINE",
"15 710 LINE",
"246 363 LINE",
"290 296 LINE",
"486 0 LINE"
);
},
{
closed = 1;
nodes = (
"290 296 LINE",
"337 364 LINE",
"571 710 LINE",
"482 710 LINE",
"294 430 LINE",
"246 363 LINE",
"-2 0 LINE",
"91 0 LINE"
);
}
);
width = 582;
},
{
anchors = (
{
name = bottom;
position = "{317, 0}";
},
{
name = top;
position = "{317, 710}";
}
);
background = {
anchors = (
{
name = bottom;
position = "{313, 0}";
},
{
name = top;
position = "{313, 710}";
}
);
paths = (
{
closed = 1;
nodes = (
"630 0 LINE",
"397 367 LINE",
"317 491 LINE",
"180 710 LINE",
"5 710 LINE",
"228 359 LINE",
"311 232 LINE",
"452 0 LINE"
);
},
{
closed = 1;
nodes = (
"311 232 LINE",
"397 367 LINE",
"620 710 LINE",
"454 710 LINE",
"317 491 LINE",
"228 359 LINE",
"-8 0 LINE",
"163 0 LINE"
);
}
);
};
layerId = "014D4A40-7C7F-4023-B30E-1F55CE5EA091";
paths = (
{
closed = 1;
nodes = (
"630 0 LINE",
"397 367 LINE",
"317 491 LINE",
"180 710 LINE",
"5 710 LINE",
"228 359 LINE",
"311 232 LINE",
"452 0 LINE"
);
},
{
closed = 1;
nodes = (
"311 232 LINE",
"397 367 LINE",
"620 710 LINE",
"454 710 LINE",
"317 491 LINE",
"228 359 LINE",
"-8 0 LINE",
"163 0 LINE"
);
}
);
width = 629;
},
{
anchors = (
{
name = bottom;
position = "{279, 0}";
},
{
name = top;
position = "{279, 710}";
}
);
background = {
anchors = (
{
name = bottom;
position = "{279, 0}";
},
{
name = top;
position = "{279, 710}";
}
);
paths = (
{
closed = 1;
nodes = (
"546 0 LINE",
"57 710 LINE",
"22 710 LINE",
"510 0 LINE"
);
},
{
closed = 1;
nodes = (
"536 710 LINE",
"502 710 LINE",
"2 0 LINE",
"40 0 LINE"
);
}
);
};
layerId = "7F092816-09A2-4631-A7F8-AD4571964C60";
paths = (
{
closed = 1;
nodes = (
"546 0 LINE",
"294 365 LINE",
"277 390 LINE",
"57 710 LINE",
"22 710 LINE",
"259 365 LINE",
"277 340 LINE",
"510 0 LINE"
);
},
{
closed = 1;
nodes = (
"277 340 LINE",
"294 365 LINE",
"536 710 LINE",
"502 710 LINE",
"277 390 LINE",
"259 365 LINE",
"5 0 LINE",
"40 0 LINE"
);
}
);
width = 548.5303;
},
{
anchors = (
{
name = bottom;
position = "{330, 0}";
},
{
name = top;
position = "{330, 710}";
}
);
background = {
anchors = (
{
name = bottom;
position = "{330, 0}";
},
{
name = top;
position = "{330, 710}";
}
);
paths = (
{
closed = 1;
nodes = (
"659 0 LINE",
"433 369 LINE",
"331 527 LINE",
"222 710 LINE",
"-1 710 LINE",
"217 357 LINE",
"324 194 LINE",
"432 0 LINE"
);
},
{
closed = 1;
nodes = (
"324 194 LINE",
"433 369 LINE",
"649 710 LINE",
"437 710 LINE",
"331 527 LINE",
"217 357 LINE",
"-11 0 LINE",
"205 0 LINE"
);
}
);
};
layerId = "A0850C2E-74F0-4B2E-AE90-CE9FC07F2CBD";
paths = (
{
closed = 1;
nodes = (
"659 0 LINE",
"433 369 LINE",
"331 524 LINE",
"222 710 LINE",
"-1 710 LINE",
"217 357 LINE",
"322 194 LINE",
"432 0 LINE"
);
},
{
closed = 1;
nodes = (
"322 194 LINE",
"433 369 LINE",
"651 710 LINE",
"439 710 LINE",
"331 524 LINE",
"217 357 LINE",
"-11 0 LINE",
"205 0 LINE"
);
}
);
width = 656.77273;
}
);
leftKerningGroup = X;
rightKerningGroup = X;
unicode = 0058;
},
{
glyphname = Y;
lastChange = "2019-05-08 20:29:10 +0000";
layers = (
{
anchors = (
{
name = bottom;
position = "{277, 0}";
},
{
name = top;
position = "{278, 710}";
},
{
name = topleft;
position = "{2, 710}";
}
);
background = {
anchors = (
{
name = bottom;
position = "{277, 0}";
},
{
name = top;
position = "{277, 710}";
},
{
name = topleft;
position = "{2, 710}";
}
);
paths = (
{
closed = 1;
nodes = (
"280 392 LINE",
"70 710 LINE",
"-23 710 LINE",
"249 299 LINE",
"298 293 LINE",
"571 710 LINE",
"484 710 LINE"
);
},
{
closed = 1;
nodes = (
"318 0 LINE",
"318 370 LINE",
"235 370 LINE",
"235 0 LINE"
);
}
);
};
layerId = "A3B50665-EA37-4AC6-885C-1233CA61B6BD";
paths = (
{
closed = 1;
nodes = (
"486 710 LINE",
"264 368 LINE",
"294 371 LINE",
"70 710 LINE",
"-23 710 LINE",
"260 282 LINE",
"235 365 LINE",
"235 0 LINE",
"318 0 LINE",
"318 369 LINE",
"295 286 LINE",
"573 710 LINE"
);
}
);
width = 552;
},
{
anchors = (
{
name = bottom;
position = "{304, 0}";
},
{
name = top;
position = "{306, 710}";
},
{
name = topleft;
position = "{18, 710}";
}
);
background = {
anchors = (
{
name = bottom;
position = "{304, 0}";
},
{
name = top;
position = "{304, 710}";
},
{
name = topleft;
position = "{18, 710}";
}
);
paths = (
{
closed = 1;
nodes = (
"311 451 LINE",
"148 710 LINE",
"-27 710 LINE",
"253 269 LINE",
"347 259 LINE",
"624 710 LINE",
"458 710 LINE"
);
},
{
closed = 1;
nodes = (
"382 0 LINE",
"382 418 LINE",
"226 418 LINE",
"226 0 LINE"
);
}
);
};
layerId = "014D4A40-7C7F-4023-B30E-1F55CE5EA091";
paths = (
{
closed = 1;
nodes = (
"464 710 LINE",
"286 412 LINE",
"335 413 LINE",
"148 710 LINE",
"-27 710 LINE",
"250 274 LINE",
"226 357 LINE",
"226 0 LINE",
"382 0 LINE",
"382 361 LINE",
"358 278 LINE",
"627 710 LINE"
);
}
);
width = 605;
},
{
anchors = (
{
name = bottom;
position = "{258, 0}";
},
{
name = top;
position = "{258, 710}";
},
{
name = topleft;
position = "{-9, 710}";
}
);
background = {
anchors = (
{
name = bottom;
position = "{258, 0}";
},
{
name = top;
position = "{258, 710}";
},
{
name = topleft;
position = "{-9, 710}";
}
);
paths = (
{
closed = 1;
nodes = (
"502 710 LINE",
"248 337 LINE",
"265 341 LINE",
"14 710 LINE",
"-20 710 LINE",
"267 288 LINE",
"241 371 LINE",
"241 0 LINE",
"272 0 LINE",
"272 375 LINE",
"250 292 LINE",
"535 710 LINE"
);
}
);
};
layerId = "7F092816-09A2-4631-A7F8-AD4571964C60";
paths = (
{
closed = 1;
nodes = (
"501 710 LINE",
"253 346 LINE",
"266 341 LINE",
"15 710 LINE",
"-20 710 LINE",
"267 288 LINE",
"241 339 LINE",
"241 0 LINE",
"272 0 LINE",
"272 339 LINE",
"250 292 LINE",
"535 710 LINE"
);
}
);
width = 514.25758;
},
{
anchors = (
{
name = bottom;
position = "{320, 0}";
},
{
name = top;
position = "{323, 710}";
},
{
name = topleft;
position = "{27, 710}";
}
);
background = {
anchors = (
{
name = bottom;
position = "{320, 0}";
},
{
name = top;
position = "{323, 710}";
},
{
name = topleft;
position = "{27, 710}";
}
);
paths = (
{
closed = 1;
nodes = (
"451 710 LINE",
"299 438 LINE",
"359 438 LINE",
"194 710 LINE",
"-29 710 LINE",
"244 270 LINE",
"221 353 LINE",
"221 0 LINE",
"420 0 LINE",
"420 357 LINE",
"395 274 LINE",
"659 710 LINE"
);
}
);
};
layerId = "A0850C2E-74F0-4B2E-AE90-CE9FC07F2CBD";
paths = (
{
closed = 1;
nodes = (
"451 710 LINE",
"299 438 LINE",
"359 438 LINE",
"194 710 LINE",
"-29 710 LINE",
"244 270 LINE",
"221 353 LINE",
"221 0 LINE",
"421 0 LINE",
"421 357 LINE",
"395 274 LINE",
"659 710 LINE"
);
}
);
width = 636.31818;
}
);
leftKerningGroup = Y;
rightKerningGroup = Y;
unicode = 0059;
},
{
glyphname = Z;
lastChange = "2019-05-08 20:29:10 +0000";
layers = (
{
anchors = (
{
name = bottom;
position = "{306, 0}";
},
{
name = center;
position = "{300, 355}";
},
{
name = top;
position = "{306, 710}";
}
);
background = {
anchors = (
{
name = bottom;
position = "{300, 0}";
},
{
name = center;
position = "{300, 355}";
},
{
name = top;
position = "{300, 710}";
}
);
paths = (
{
closed = 1;
nodes = (
"571 0 LINE",
"571 71 LINE",
"109 71 LINE",
"112 27 LINE",
"566 650 LINE",
"566 710 LINE",
"55 710 LINE",
"55 641 LINE",
"500 641 LINE",
"494 683 LINE",
"40 60 LINE",
"40 0 LINE"
);
}
);
};
layerId = "A3B50665-EA37-4AC6-885C-1233CA61B6BD";
paths = (
{
closed = 1;
nodes = (
"571 0 LINE",
"578 72 LINE",
"109 72 LINE",
"130 50 LINE",
"566 650 LINE",
"566 710 LINE",
"55 710 LINE",
"55 638 LINE",
"500 638 LINE",
"476 660 LINE",
"40 60 LINE",
"40 0 LINE"
);
}
);
width = 600;
},
{
anchors = (
{
name = bottom;
position = "{323, 0}";
},
{
name = center;
position = "{318, 355}";
},
{
name = top;
position = "{323, 710}";
}
);
background = {
anchors = (
{
name = bottom;
position = "{318, 0}";
},
{
name = center;
position = "{318, 355}";
},
{
name = top;
position = "{318, 710}";
}
);
paths = (
{
closed = 1;
nodes = (
"608 0 LINE",
"608 135 LINE",
"182 135 LINE",
"201 84 LINE",
"606 598 LINE",
"606 710 LINE",
"55 710 LINE",
"55 575 LINE",
"459 575 LINE",
"442 626 LINE",
"37 112 LINE",
"37 0 LINE"
);
}
);
};
layerId = "014D4A40-7C7F-4023-B30E-1F55CE5EA091";
paths = (
{
closed = 1;
nodes = (
"608 0 LINE",
"618 136 LINE",
"182 136 LINE",
"203 84 LINE",
"606 598 LINE",
"606 710 LINE",
"55 710 LINE",
"55 574 LINE",
"459 574 LINE",
"440 626 LINE",
"37 112 LINE",
"37 0 LINE"
);
}
);
width = 636;
},
{
anchors = (
{
name = bottom;
position = "{294, 0}";
},
{
name = center;
position = "{287, 355}";
},
{
name = top;
position = "{294, 710}";
}
);
background = {
anchors = (
{
name = bottom;
position = "{294, 0}";
},
{
name = center;
position = "{287, 355}";
},
{
name = top;
position = "{294, 710}";
}
);
paths = (
{
closed = 1;
nodes = (
"545 0 LINE",
"550 26 LINE",
"57 26 LINE",
"78 26 LINE",
"538 687 LINE",
"538 710 LINE",
"55 710 LINE",
"55 684 LINE",
"529 684 LINE",
"502 684 LINE",
"42 23 LINE",
"42 0 LINE"
);
}
);
};
layerId = "7F092816-09A2-4631-A7F8-AD4571964C60";
paths = (
{
closed = 1;
nodes = (
"545 0 LINE",
"550 26 LINE",
"57 26 LINE",
"71 15 LINE",
"538 688 LINE",
"538 710 LINE",
"55 710 LINE",
"55 684 LINE",
"519 684 LINE",
"509 695 LINE",
"42 22 LINE",
"42 0 LINE"
);
}
);
width = 574.36364;
},
{
anchors = (
{
name = bottom;
position = "{333, 0}";
},
{
name = center;
position = "{329, 355}";
},
{
name = top;
position = "{333, 710}";
}
);
background = {
anchors = (
{
name = bottom;
position = "{333, 0}";
},
{
name = center;
position = "{329, 355}";
},
{
name = top;
position = "{333, 710}";
}
);
paths = (
{
closed = 1;
nodes = (
"630 0 LINE",
"641 174 LINE",
"225 174 LINE",
"246 104 LINE",
"629 567 LINE",
"629 710 LINE",
"55 710 LINE",
"55 536 LINE",
"435 536 LINE",
"419 606 LINE",
"35 143 LINE",
"35 0 LINE"
);
}
);
};
layerId = "A0850C2E-74F0-4B2E-AE90-CE9FC07F2CBD";
paths = (
{
closed = 1;
nodes = (
"630 0 LINE",
"641 174 LINE",
"225 174 LINE",
"248 104 LINE",
"629 567 LINE",
"629 710 LINE",
"55 710 LINE",
"55 536 LINE",
"435 536 LINE",
"416 606 LINE",
"35 143 LINE",
"35 0 LINE"
);
}
);
width = 657.27273;
}
);
leftKerningGroup = Z;
rightKerningGroup = Z;
unicode = 005A;
},
